G04*
G04 #@! TF.GenerationSoftware,Altium Limited,Altium Designer,21.2.1 (34)*
G04*
G04 Layer_Color=16711935*
%FSTAX24Y24*%
%MOIN*%
G70*
G04*
G04 #@! TF.SameCoordinates,1AE62F94-6DB7-4B32-8B40-2354E624DE5A*
G04*
G04*
G04 #@! TF.FilePolarity,Negative*
G04*
G01*
G75*
%ADD48R,0.0580X0.0630*%
%ADD53R,0.0630X0.0580*%
%ADD69C,0.0320*%
%ADD70C,0.0650*%
%ADD71R,0.0907X0.0907*%
%ADD72C,0.0907*%
%ADD73R,0.0700X0.0700*%
%ADD74C,0.0700*%
%ADD75R,0.0510X0.0510*%
%ADD76C,0.0510*%
%ADD77R,0.0880X0.0880*%
%ADD78C,0.0880*%
%ADD79R,0.0907X0.0907*%
%ADD80O,0.0830X0.0730*%
%ADD81R,0.0830X0.0730*%
%ADD82O,0.0730X0.0830*%
%ADD83C,0.0780*%
%ADD84C,0.1458*%
%ADD85C,0.1025*%
%ADD86R,0.1025X0.1025*%
%ADD87R,0.0700X0.0700*%
%ADD88C,0.1261*%
%ADD89C,0.0280*%
D48*
X0413Y04307D02*
D03*
X0422D02*
D03*
X0448Y04567D02*
D03*
X0457D02*
D03*
X03032Y01672D02*
D03*
X03122D02*
D03*
X02955D02*
D03*
X02865D02*
D03*
X01101Y01322D02*
D03*
X01191D02*
D03*
X04052Y0169D02*
D03*
X04142D02*
D03*
X03934D02*
D03*
X03844D02*
D03*
X02771Y04765D02*
D03*
X02861D02*
D03*
X03145D02*
D03*
X03235D02*
D03*
X0352D02*
D03*
X0361D02*
D03*
X03358Y01638D02*
D03*
X03448D02*
D03*
X03358Y01435D02*
D03*
X03448D02*
D03*
X02319Y01562D02*
D03*
X02409D02*
D03*
X03603Y01436D02*
D03*
X03693D02*
D03*
X03603Y0164D02*
D03*
X03693D02*
D03*
D53*
X04141Y01567D02*
D03*
Y01477D02*
D03*
X03935Y01567D02*
D03*
Y01477D02*
D03*
X02956Y01575D02*
D03*
Y01485D02*
D03*
X03122D02*
D03*
Y01575D02*
D03*
X01101Y01632D02*
D03*
Y01722D02*
D03*
D69*
X010942Y023348D02*
D03*
X011212D02*
D03*
X010942Y026104D02*
D03*
X011212D02*
D03*
D70*
X01214Y023742D02*
D03*
Y02571D02*
D03*
D71*
X036102Y046721D02*
D03*
X032356D02*
D03*
X02861D02*
D03*
X02488D02*
D03*
X012605D02*
D03*
D72*
X034602D02*
D03*
X030856D02*
D03*
X027111D02*
D03*
X01738D02*
D03*
X01888D02*
D03*
X02188D02*
D03*
X02338D02*
D03*
X02038D02*
D03*
X011105D02*
D03*
X01327Y04049D02*
D03*
Y04349D02*
D03*
Y04199D02*
D03*
Y03899D02*
D03*
Y03749D02*
D03*
Y02773D02*
D03*
Y02923D02*
D03*
Y03223D02*
D03*
Y03373D02*
D03*
Y03073D02*
D03*
D73*
X04355Y04308D02*
D03*
D74*
X04555Y04258D02*
D03*
X04355Y04208D02*
D03*
X04555Y04158D02*
D03*
X04355Y04108D02*
D03*
X04555Y04058D02*
D03*
X04355Y04008D02*
D03*
X04555Y03958D02*
D03*
X04355Y03908D02*
D03*
X04555Y03858D02*
D03*
X04355Y03808D02*
D03*
X04555Y03758D02*
D03*
X04355Y03708D02*
D03*
X04555Y03658D02*
D03*
X04355Y03608D02*
D03*
X04572Y04473D02*
D03*
X04522Y04673D02*
D03*
X04472Y04473D02*
D03*
X04422Y04673D02*
D03*
X04372Y04473D02*
D03*
X04322Y04673D02*
D03*
X04272Y04473D02*
D03*
X04222Y04673D02*
D03*
X04172Y04473D02*
D03*
X04122Y04673D02*
D03*
X04072Y04473D02*
D03*
X04022Y04673D02*
D03*
X03972Y04473D02*
D03*
X03922Y04673D02*
D03*
D75*
X04406Y03386D02*
D03*
X04706Y01377D02*
D03*
D76*
X04406Y03286D02*
D03*
Y03186D02*
D03*
Y03086D02*
D03*
Y02986D02*
D03*
Y02886D02*
D03*
Y02786D02*
D03*
Y02686D02*
D03*
Y02586D02*
D03*
Y02486D02*
D03*
X04706D02*
D03*
Y02586D02*
D03*
Y02686D02*
D03*
Y02786D02*
D03*
Y02886D02*
D03*
Y02986D02*
D03*
Y03086D02*
D03*
Y03186D02*
D03*
Y03286D02*
D03*
Y03386D02*
D03*
X04406Y01377D02*
D03*
Y01477D02*
D03*
Y01577D02*
D03*
Y01677D02*
D03*
Y01777D02*
D03*
Y01877D02*
D03*
Y01977D02*
D03*
Y02077D02*
D03*
Y02177D02*
D03*
Y02277D02*
D03*
X04706D02*
D03*
Y02177D02*
D03*
Y02077D02*
D03*
Y01977D02*
D03*
Y01877D02*
D03*
Y01777D02*
D03*
Y01677D02*
D03*
Y01577D02*
D03*
Y01477D02*
D03*
D77*
X02528Y027851D02*
D03*
D78*
Y03041D02*
D03*
D79*
X01327Y04499D02*
D03*
Y03523D02*
D03*
D80*
X01604Y04387D02*
D03*
Y04289D02*
D03*
X01734Y04287D02*
D03*
Y04189D02*
D03*
Y03935D02*
D03*
Y03837D02*
D03*
X01604Y03937D02*
D03*
Y04035D02*
D03*
X016Y01412D02*
D03*
D81*
X01604Y04188D02*
D03*
X01734Y04388D02*
D03*
Y04036D02*
D03*
X01604Y03836D02*
D03*
X016Y01513D02*
D03*
D82*
X011Y01526D02*
D03*
X01201D02*
D03*
X01299D02*
D03*
X014D02*
D03*
X011Y01413D02*
D03*
X01201D02*
D03*
X01299D02*
D03*
X014D02*
D03*
D83*
X03538Y02874D02*
D03*
X03638D02*
D03*
X03738D02*
D03*
X03838D02*
D03*
D84*
X014961Y016537D02*
D03*
X04825D02*
D03*
Y046063D02*
D03*
X014961D02*
D03*
D85*
X014045Y01862D02*
D03*
D86*
Y02062D02*
D03*
D87*
X03872Y04473D02*
D03*
D88*
X032805Y019256D02*
D03*
Y02839D02*
D03*
X040955D02*
D03*
Y019256D02*
D03*
D89*
X03603Y0164D02*
D03*
X03693D02*
D03*
Y01436D02*
D03*
X03603D02*
D03*
X04141Y01567D02*
D03*
X03935D02*
D03*
X02956Y01575D02*
D03*
X03122D02*
D03*
M02*
