G04*
G04 #@! TF.GenerationSoftware,Altium Limited,Altium Designer,21.2.1 (34)*
G04*
G04 Layer_Color=255*
%FSTAX24Y24*%
%MOIN*%
G70*
G04*
G04 #@! TF.SameCoordinates,1AE62F94-6DB7-4B32-8B40-2354E624DE5A*
G04*
G04*
G04 #@! TF.FilePolarity,Positive*
G04*
G01*
G75*
%ADD21O,0.0750X0.0480*%
%ADD22R,0.0750X0.0590*%
%ADD23R,0.0530X0.0160*%
%ADD24R,0.0500X0.0550*%
%ADD25R,0.1080X0.0850*%
%ADD26R,0.1732X0.0709*%
%ADD27R,0.0709X0.1732*%
%ADD28R,0.0850X0.1080*%
%ADD29R,0.0550X0.0500*%
%ADD30R,0.0591X0.0787*%
%ADD31R,0.0787X0.0591*%
%ADD32R,0.0472X0.0433*%
%ADD33R,0.0551X0.0700*%
%ADD34R,0.0315X0.0591*%
%ADD35R,0.0709X0.0551*%
%ADD36R,0.0551X0.0748*%
%ADD37R,0.0945X0.0394*%
%ADD38R,0.0945X0.1299*%
%ADD39R,0.0520X0.0220*%
%ADD40R,0.0920X0.0860*%
%ADD41R,0.0580X0.0110*%
%ADD42R,0.0110X0.0580*%
%ADD43R,0.0630X0.1240*%
%ADD44R,0.0453X0.1811*%
%ADD45R,0.4252X0.3701*%
%ADD73R,0.0700X0.0700*%
%ADD74C,0.0700*%
%ADD75R,0.0510X0.0510*%
%ADD76C,0.0510*%
%ADD87R,0.0700X0.0700*%
%ADD93C,0.0240*%
%ADD94C,0.0570*%
%ADD95R,0.0827X0.0827*%
%ADD96C,0.0827*%
%ADD97R,0.0800X0.0800*%
%ADD98C,0.0800*%
%ADD99R,0.0827X0.0827*%
%ADD100O,0.0750X0.0650*%
%ADD101R,0.0750X0.0650*%
%ADD102O,0.0650X0.0750*%
%ADD103C,0.1378*%
%ADD104C,0.0945*%
%ADD105R,0.0945X0.0945*%
D21*
X011077Y023348D02*
D03*
Y026104D02*
D03*
D22*
Y024332D02*
D03*
Y025119D02*
D03*
D23*
X01213Y024214D02*
D03*
Y02447D02*
D03*
Y024726D02*
D03*
Y024982D02*
D03*
Y025238D02*
D03*
D24*
X0366Y04471D02*
D03*
X0357D02*
D03*
X04217Y03607D02*
D03*
X04127D02*
D03*
X02262Y03343D02*
D03*
X02352D02*
D03*
X02484Y03462D02*
D03*
X02394D02*
D03*
X02484Y03586D02*
D03*
X02394D02*
D03*
X02518Y04541D02*
D03*
X02428D02*
D03*
X02418Y04394D02*
D03*
X02508D02*
D03*
X02251Y04541D02*
D03*
X02341D02*
D03*
X02161D02*
D03*
X02071D02*
D03*
X02048Y04391D02*
D03*
X01958D02*
D03*
X01585Y03589D02*
D03*
X01675D02*
D03*
Y03461D02*
D03*
X01585D02*
D03*
X01645Y03331D02*
D03*
X01735D02*
D03*
X01982Y028D02*
D03*
X01892D02*
D03*
X0143Y02531D02*
D03*
X0134D02*
D03*
X0143Y02443D02*
D03*
X0134D02*
D03*
X0143Y02344D02*
D03*
X0134D02*
D03*
X01944Y02066D02*
D03*
X01854D02*
D03*
X03638Y02786D02*
D03*
X03548D02*
D03*
X02331Y03886D02*
D03*
X02421D02*
D03*
D25*
X03325Y042613D02*
D03*
Y044345D02*
D03*
X031351Y042613D02*
D03*
Y044345D02*
D03*
X029353D02*
D03*
Y042613D02*
D03*
X027324D02*
D03*
Y044345D02*
D03*
X03325Y040656D02*
D03*
Y038924D02*
D03*
X031341D02*
D03*
Y040656D02*
D03*
X029353Y038924D02*
D03*
Y040656D02*
D03*
X027324Y038924D02*
D03*
Y040656D02*
D03*
D26*
X038353Y03805D02*
D03*
X041267D02*
D03*
X038353Y04236D02*
D03*
X041267D02*
D03*
Y0333D02*
D03*
X038353D02*
D03*
D27*
X03591Y038887D02*
D03*
Y0418D02*
D03*
D28*
X027497Y03387D02*
D03*
X029229D02*
D03*
X027497Y03565D02*
D03*
X029229D02*
D03*
X027497Y03745D02*
D03*
X029229D02*
D03*
X031643D02*
D03*
X033375D02*
D03*
X031643Y03565D02*
D03*
X033375D02*
D03*
X031643Y03387D02*
D03*
X033375D02*
D03*
X029229Y03214D02*
D03*
X027497D02*
D03*
X031643D02*
D03*
X033375D02*
D03*
D29*
X04791Y03295D02*
D03*
Y03385D02*
D03*
X04303Y01377D02*
D03*
Y01467D02*
D03*
X03269Y01552D02*
D03*
Y01642D02*
D03*
X02647Y02106D02*
D03*
Y02016D02*
D03*
X02571D02*
D03*
Y02106D02*
D03*
X02441D02*
D03*
Y02016D02*
D03*
X02322Y02106D02*
D03*
Y02016D02*
D03*
X02189Y02106D02*
D03*
Y02016D02*
D03*
X02041Y03251D02*
D03*
Y03161D02*
D03*
X020225Y03955D02*
D03*
Y04045D02*
D03*
X01836Y04288D02*
D03*
Y04198D02*
D03*
X01508Y04288D02*
D03*
Y04198D02*
D03*
X01836Y03935D02*
D03*
Y03845D02*
D03*
X01508D02*
D03*
Y03935D02*
D03*
X01511Y02855D02*
D03*
Y02945D02*
D03*
X01641Y01842D02*
D03*
Y01932D02*
D03*
D30*
X04141Y016263D02*
D03*
Y014137D02*
D03*
X03936Y016263D02*
D03*
Y014137D02*
D03*
X03121Y016243D02*
D03*
Y014117D02*
D03*
X029553D02*
D03*
Y016243D02*
D03*
D31*
X035447Y0164D02*
D03*
X037573D02*
D03*
X035447Y01435D02*
D03*
X037573D02*
D03*
D32*
X03269Y013987D02*
D03*
Y014813D02*
D03*
D33*
X027214Y013156D02*
D03*
D34*
X025383Y014671D02*
D03*
X02495Y01475D02*
D03*
X024517Y014671D02*
D03*
X023651D02*
D03*
X023218Y014593D02*
D03*
X022785Y014671D02*
D03*
X022352D02*
D03*
X024084Y014593D02*
D03*
D35*
X022667Y018726D02*
D03*
X024911D02*
D03*
D36*
X022037Y013549D02*
D03*
D37*
X0254Y025808D02*
D03*
Y024902D02*
D03*
Y023997D02*
D03*
X017608Y025808D02*
D03*
Y024902D02*
D03*
Y023997D02*
D03*
X021508D02*
D03*
Y024902D02*
D03*
Y025808D02*
D03*
D38*
X027683Y024902D02*
D03*
X019892D02*
D03*
X023792D02*
D03*
D39*
X024578Y033425D02*
D03*
Y032675D02*
D03*
X025284Y03305D02*
D03*
D40*
X022722Y035872D02*
D03*
Y034622D02*
D03*
X01793Y035865D02*
D03*
Y034615D02*
D03*
D41*
X021155Y040457D02*
D03*
Y040654D02*
D03*
Y040851D02*
D03*
Y041048D02*
D03*
Y041245D02*
D03*
Y041442D02*
D03*
Y041638D02*
D03*
Y041835D02*
D03*
Y042032D02*
D03*
Y042229D02*
D03*
Y042426D02*
D03*
Y042623D02*
D03*
X024475D02*
D03*
Y042426D02*
D03*
Y042229D02*
D03*
Y042032D02*
D03*
Y041835D02*
D03*
Y041638D02*
D03*
Y041442D02*
D03*
Y041245D02*
D03*
Y041048D02*
D03*
Y040851D02*
D03*
Y040654D02*
D03*
Y040457D02*
D03*
X0195Y030038D02*
D03*
Y030432D02*
D03*
Y030235D02*
D03*
Y029447D02*
D03*
Y029841D02*
D03*
Y029644D02*
D03*
X01618Y030235D02*
D03*
Y030038D02*
D03*
Y029644D02*
D03*
Y029447D02*
D03*
Y029841D02*
D03*
X0195Y031416D02*
D03*
Y031219D02*
D03*
Y031613D02*
D03*
Y030628D02*
D03*
Y031022D02*
D03*
Y030825D02*
D03*
X01618Y031416D02*
D03*
Y031219D02*
D03*
Y031613D02*
D03*
Y030628D02*
D03*
Y030432D02*
D03*
Y031022D02*
D03*
Y030825D02*
D03*
D42*
X021732Y0432D02*
D03*
X021929D02*
D03*
X022126D02*
D03*
X022323D02*
D03*
X02252D02*
D03*
X022717D02*
D03*
X022913D02*
D03*
X02311D02*
D03*
X023307D02*
D03*
X023504D02*
D03*
X023701D02*
D03*
X023898D02*
D03*
Y03988D02*
D03*
X023701D02*
D03*
X023504D02*
D03*
X023307D02*
D03*
X02311D02*
D03*
X022913D02*
D03*
X022717D02*
D03*
X02252D02*
D03*
X022323D02*
D03*
X022126D02*
D03*
X021929D02*
D03*
X021732D02*
D03*
X018923Y02887D02*
D03*
X018332D02*
D03*
X018135D02*
D03*
X018726D02*
D03*
X018529D02*
D03*
X017348D02*
D03*
X017742D02*
D03*
X017545D02*
D03*
X016954D02*
D03*
X016757D02*
D03*
X017151D02*
D03*
X017938D02*
D03*
X018923Y03219D02*
D03*
X018726D02*
D03*
X018135D02*
D03*
X017938D02*
D03*
X018529D02*
D03*
X018332D02*
D03*
X017545D02*
D03*
X017348D02*
D03*
X017742D02*
D03*
X016954D02*
D03*
X016757D02*
D03*
X017151D02*
D03*
D43*
X01639Y020595D02*
D03*
Y022525D02*
D03*
D44*
X01993Y019015D02*
D03*
X01893D02*
D03*
X01793D02*
D03*
D45*
X01893Y01493D02*
D03*
D73*
X04355Y04308D02*
D03*
D74*
X04555Y04258D02*
D03*
X04355Y04208D02*
D03*
X04555Y04158D02*
D03*
X04355Y04108D02*
D03*
X04555Y04058D02*
D03*
X04355Y04008D02*
D03*
X04555Y03958D02*
D03*
X04355Y03908D02*
D03*
X04555Y03858D02*
D03*
X04355Y03808D02*
D03*
X04555Y03758D02*
D03*
X04355Y03708D02*
D03*
X04555Y03658D02*
D03*
X04355Y03608D02*
D03*
X03538Y02874D02*
D03*
X03638D02*
D03*
X03738D02*
D03*
X03838D02*
D03*
X04572Y04473D02*
D03*
X04522Y04673D02*
D03*
X04472Y04473D02*
D03*
X04422Y04673D02*
D03*
X04372Y04473D02*
D03*
X04322Y04673D02*
D03*
X04272Y04473D02*
D03*
X04222Y04673D02*
D03*
X04172Y04473D02*
D03*
X04122Y04673D02*
D03*
X04072Y04473D02*
D03*
X04022Y04673D02*
D03*
X03972Y04473D02*
D03*
X03922Y04673D02*
D03*
D75*
X04406Y03386D02*
D03*
X04706Y01377D02*
D03*
D76*
X04406Y03286D02*
D03*
Y03186D02*
D03*
Y03086D02*
D03*
Y02986D02*
D03*
Y02886D02*
D03*
Y02786D02*
D03*
Y02686D02*
D03*
Y02586D02*
D03*
Y02486D02*
D03*
X04706D02*
D03*
Y02586D02*
D03*
Y02686D02*
D03*
Y02786D02*
D03*
Y02886D02*
D03*
Y02986D02*
D03*
Y03086D02*
D03*
Y03186D02*
D03*
Y03286D02*
D03*
Y03386D02*
D03*
X04406Y01377D02*
D03*
Y01477D02*
D03*
Y01577D02*
D03*
Y01677D02*
D03*
Y01777D02*
D03*
Y01877D02*
D03*
Y01977D02*
D03*
Y02077D02*
D03*
Y02177D02*
D03*
Y02277D02*
D03*
X04706D02*
D03*
Y02177D02*
D03*
Y02077D02*
D03*
Y01977D02*
D03*
Y01877D02*
D03*
Y01777D02*
D03*
Y01677D02*
D03*
Y01577D02*
D03*
Y01477D02*
D03*
D87*
X03872Y04473D02*
D03*
D93*
X010942Y023348D02*
D03*
X011212D02*
D03*
X010942Y026104D02*
D03*
X011212D02*
D03*
D94*
X01214Y023742D02*
D03*
Y02571D02*
D03*
D95*
X036102Y046721D02*
D03*
X032356D02*
D03*
X02861D02*
D03*
X02488D02*
D03*
X012605D02*
D03*
D96*
X034602D02*
D03*
X030856D02*
D03*
X027111D02*
D03*
X01738D02*
D03*
X01888D02*
D03*
X02188D02*
D03*
X02338D02*
D03*
X02038D02*
D03*
X011105D02*
D03*
X01327Y04049D02*
D03*
Y04349D02*
D03*
Y04199D02*
D03*
Y03899D02*
D03*
Y03749D02*
D03*
Y02773D02*
D03*
Y02923D02*
D03*
Y03223D02*
D03*
Y03373D02*
D03*
Y03073D02*
D03*
D97*
X02528Y027851D02*
D03*
D98*
Y03041D02*
D03*
D99*
X01327Y04499D02*
D03*
Y03523D02*
D03*
D100*
X01604Y04387D02*
D03*
Y04289D02*
D03*
X01734Y04287D02*
D03*
Y04189D02*
D03*
Y03935D02*
D03*
Y03837D02*
D03*
X01604Y03937D02*
D03*
Y04035D02*
D03*
X016Y01412D02*
D03*
D101*
X01604Y04188D02*
D03*
X01734Y04388D02*
D03*
Y04036D02*
D03*
X01604Y03836D02*
D03*
X016Y01513D02*
D03*
D102*
X011Y01526D02*
D03*
X01201D02*
D03*
X01299D02*
D03*
X014D02*
D03*
X011Y01413D02*
D03*
X01201D02*
D03*
X01299D02*
D03*
X014D02*
D03*
D103*
X014961Y016537D02*
D03*
X04825D02*
D03*
Y046063D02*
D03*
X014961D02*
D03*
D104*
X014045Y01862D02*
D03*
D105*
Y02062D02*
D03*
M02*
