G04*
G04 #@! TF.GenerationSoftware,Altium Limited,Altium Designer,21.2.1 (34)*
G04*
G04 Layer_Color=128*
%FSTAX24Y24*%
%MOIN*%
G70*
G04*
G04 #@! TF.SameCoordinates,1AE62F94-6DB7-4B32-8B40-2354E624DE5A*
G04*
G04*
G04 #@! TF.FilePolarity,Positive*
G04*
G01*
G75*
%ADD114C,0.0020*%
D114*
X010822Y023348D02*
X011062D01*
X010942Y023228D02*
Y023468D01*
X011092Y023348D02*
X011332D01*
X011212Y023228D02*
Y023468D01*
X010822Y026104D02*
X011062D01*
X010942Y025984D02*
Y026224D01*
X011092Y026104D02*
X011332D01*
X011212Y025984D02*
Y026224D01*
X011975Y023742D02*
X012305D01*
X01214Y023577D02*
Y023907D01*
X011975Y02571D02*
X012305D01*
X01214Y025545D02*
Y025875D01*
X035826Y046721D02*
X036378D01*
X036102Y046446D02*
Y046997D01*
X034326Y046721D02*
X034878D01*
X034602Y046446D02*
Y046997D01*
X032081Y046721D02*
X032632D01*
X032356Y046446D02*
Y046997D01*
X030581Y046721D02*
X031132D01*
X030856Y046446D02*
Y046997D01*
X028335Y046721D02*
X028886D01*
X02861Y046446D02*
Y046997D01*
X026835Y046721D02*
X027386D01*
X027111Y046446D02*
Y046997D01*
X0433Y04308D02*
X0438D01*
X04355Y04283D02*
Y04333D01*
X0453Y04258D02*
X0458D01*
X04555Y04233D02*
Y04283D01*
X0433Y04208D02*
X0438D01*
X04355Y04183D02*
Y04233D01*
X0453Y04158D02*
X0458D01*
X04555Y04133D02*
Y04183D01*
X0433Y04108D02*
X0438D01*
X04355Y04083D02*
Y04133D01*
X0453Y04058D02*
X0458D01*
X04555Y04033D02*
Y04083D01*
X0433Y04008D02*
X0438D01*
X04355Y03983D02*
Y04033D01*
X0453Y03958D02*
X0458D01*
X04555Y03933D02*
Y03983D01*
X0433Y03908D02*
X0438D01*
X04355Y03883D02*
Y03933D01*
X0453Y03858D02*
X0458D01*
X04555Y03833D02*
Y03883D01*
X0433Y03808D02*
X0438D01*
X04355Y03783D02*
Y03833D01*
X0453Y03758D02*
X0458D01*
X04555Y03733D02*
Y03783D01*
X0433Y03708D02*
X0438D01*
X04355Y03683D02*
Y03733D01*
X0453Y03658D02*
X0458D01*
X04555Y03633D02*
Y03683D01*
X0433Y03608D02*
X0438D01*
X04355Y03583D02*
Y03633D01*
X043905Y03386D02*
X044215D01*
X04406Y033705D02*
Y034015D01*
X043905Y03286D02*
X044215D01*
X04406Y032705D02*
Y033015D01*
X043905Y03186D02*
X044215D01*
X04406Y031705D02*
Y032015D01*
X043905Y03086D02*
X044215D01*
X04406Y030705D02*
Y031015D01*
X043905Y02986D02*
X044215D01*
X04406Y029705D02*
Y030015D01*
X043905Y02886D02*
X044215D01*
X04406Y028705D02*
Y029015D01*
X043905Y02786D02*
X044215D01*
X04406Y027705D02*
Y028015D01*
X043905Y02686D02*
X044215D01*
X04406Y026705D02*
Y027015D01*
X043905Y02586D02*
X044215D01*
X04406Y025705D02*
Y026015D01*
X043905Y02486D02*
X044215D01*
X04406Y024705D02*
Y025015D01*
X046905Y02486D02*
X047215D01*
X04706Y024705D02*
Y025015D01*
X046905Y02586D02*
X047215D01*
X04706Y025705D02*
Y026015D01*
X046905Y02686D02*
X047215D01*
X04706Y026705D02*
Y027015D01*
X046905Y02786D02*
X047215D01*
X04706Y027705D02*
Y028015D01*
X046905Y02886D02*
X047215D01*
X04706Y028705D02*
Y029015D01*
X046905Y02986D02*
X047215D01*
X04706Y029705D02*
Y030015D01*
X046905Y03086D02*
X047215D01*
X04706Y030705D02*
Y031015D01*
X046905Y03186D02*
X047215D01*
X04706Y031705D02*
Y032015D01*
X046905Y03286D02*
X047215D01*
X04706Y032705D02*
Y033015D01*
X046905Y03386D02*
X047215D01*
X04706Y033705D02*
Y034015D01*
X043905Y01377D02*
X044215D01*
X04406Y013615D02*
Y013925D01*
X043905Y01477D02*
X044215D01*
X04406Y014615D02*
Y014925D01*
X043905Y01577D02*
X044215D01*
X04406Y015615D02*
Y015925D01*
X043905Y01677D02*
X044215D01*
X04406Y016615D02*
Y016925D01*
X043905Y01777D02*
X044215D01*
X04406Y017615D02*
Y017925D01*
X043905Y01877D02*
X044215D01*
X04406Y018615D02*
Y018925D01*
X043905Y01977D02*
X044215D01*
X04406Y019615D02*
Y019925D01*
X043905Y02077D02*
X044215D01*
X04406Y020615D02*
Y020925D01*
X043905Y02177D02*
X044215D01*
X04406Y021615D02*
Y021925D01*
X043905Y02277D02*
X044215D01*
X04406Y022615D02*
Y022925D01*
X046905Y02277D02*
X047215D01*
X04706Y022615D02*
Y022925D01*
X046905Y02177D02*
X047215D01*
X04706Y021615D02*
Y021925D01*
X046905Y02077D02*
X047215D01*
X04706Y020615D02*
Y020925D01*
X046905Y01977D02*
X047215D01*
X04706Y019615D02*
Y019925D01*
X046905Y01877D02*
X047215D01*
X04706Y018615D02*
Y018925D01*
X046905Y01777D02*
X047215D01*
X04706Y017615D02*
Y017925D01*
X046905Y01677D02*
X047215D01*
X04706Y016615D02*
Y016925D01*
X046905Y01577D02*
X047215D01*
X04706Y015615D02*
Y015925D01*
X046905Y01477D02*
X047215D01*
X04706Y014615D02*
Y014925D01*
X046905Y01377D02*
X047215D01*
X04706Y013615D02*
Y013925D01*
X0251Y027851D02*
X02546D01*
X02528Y027671D02*
Y028031D01*
X0251Y03041D02*
X02546D01*
X02528Y03023D02*
Y03059D01*
X017104Y046721D02*
X017656D01*
X01738Y046446D02*
Y046997D01*
X018604Y046721D02*
X019156D01*
X01888Y046446D02*
Y046997D01*
X021604Y046721D02*
X022156D01*
X02188Y046446D02*
Y046997D01*
X023104Y046721D02*
X023656D01*
X02338Y046446D02*
Y046997D01*
X024604Y046721D02*
X025156D01*
X02488Y046446D02*
Y046997D01*
X020104Y046721D02*
X020656D01*
X02038Y046446D02*
Y046997D01*
X010829Y046721D02*
X01138D01*
X011105Y046446D02*
Y046997D01*
X012329Y046721D02*
X01288D01*
X012605Y046446D02*
Y046997D01*
X012994Y04049D02*
X013546D01*
X01327Y040214D02*
Y040766D01*
X012994Y04499D02*
X013546D01*
X01327Y044714D02*
Y045266D01*
X012994Y04349D02*
X013546D01*
X01327Y043214D02*
Y043766D01*
X012994Y04199D02*
X013546D01*
X01327Y041714D02*
Y042266D01*
X012994Y03899D02*
X013546D01*
X01327Y038714D02*
Y039266D01*
X012994Y03749D02*
X013546D01*
X01327Y037214D02*
Y037766D01*
X01586Y04387D02*
X01622D01*
X01604Y04369D02*
Y04405D01*
X01586Y04289D02*
X01622D01*
X01604Y04271D02*
Y04307D01*
X01586Y04188D02*
X01622D01*
X01604Y0417D02*
Y04206D01*
X01716Y04287D02*
X01752D01*
X01734Y04269D02*
Y04305D01*
X01716Y04189D02*
X01752D01*
X01734Y04171D02*
Y04207D01*
X01716Y04388D02*
X01752D01*
X01734Y0437D02*
Y04406D01*
X01716Y04036D02*
X01752D01*
X01734Y04018D02*
Y04054D01*
X01716Y03935D02*
X01752D01*
X01734Y03917D02*
Y03953D01*
X01716Y03837D02*
X01752D01*
X01734Y03819D02*
Y03855D01*
X01586Y03836D02*
X01622D01*
X01604Y03818D02*
Y03854D01*
X01586Y03937D02*
X01622D01*
X01604Y03919D02*
Y03955D01*
X01586Y04035D02*
X01622D01*
X01604Y04017D02*
Y04053D01*
X012994Y02773D02*
X013546D01*
X01327Y027454D02*
Y028006D01*
X012994Y02923D02*
X013546D01*
X01327Y028954D02*
Y029506D01*
X012994Y03223D02*
X013546D01*
X01327Y031954D02*
Y032506D01*
X012994Y03373D02*
X013546D01*
X01327Y033454D02*
Y034006D01*
X012994Y03523D02*
X013546D01*
X01327Y034954D02*
Y035506D01*
X012994Y03073D02*
X013546D01*
X01327Y030454D02*
Y031006D01*
X01582Y01513D02*
X01618D01*
X016Y01495D02*
Y01531D01*
X01582Y01412D02*
X01618D01*
X016Y01394D02*
Y0143D01*
X01082Y01526D02*
X01118D01*
X011Y01508D02*
Y01544D01*
X01183Y01526D02*
X01219D01*
X01201Y01508D02*
Y01544D01*
X01281Y01526D02*
X01317D01*
X01299Y01508D02*
Y01544D01*
X01382Y01526D02*
X01418D01*
X014Y01508D02*
Y01544D01*
X01082Y01413D02*
X01118D01*
X011Y01395D02*
Y01431D01*
X01183Y01413D02*
X01219D01*
X01201Y01395D02*
Y01431D01*
X01281Y01413D02*
X01317D01*
X01299Y01395D02*
Y01431D01*
X01382Y01413D02*
X01418D01*
X014Y01395D02*
Y01431D01*
X03518Y02874D02*
X03558D01*
X03538Y02854D02*
Y02894D01*
X03618Y02874D02*
X03658D01*
X03638Y02854D02*
Y02894D01*
X03718Y02874D02*
X03758D01*
X03738Y02854D02*
Y02894D01*
X03818Y02874D02*
X03858D01*
X03838Y02854D02*
Y02894D01*
X014272Y016537D02*
X01565D01*
X014961Y015848D02*
Y017226D01*
X047561Y016537D02*
X048939D01*
X04825Y015848D02*
Y017226D01*
X047561Y046063D02*
X048939D01*
X04825Y045374D02*
Y046752D01*
X014272Y046063D02*
X01565D01*
X014961Y045374D02*
Y046752D01*
X01373Y01862D02*
X01436D01*
X014045Y018305D02*
Y018935D01*
X01373Y02062D02*
X01436D01*
X014045Y020305D02*
Y020935D01*
X04547Y04473D02*
X04597D01*
X04572Y04448D02*
Y04498D01*
X04497Y04673D02*
X04547D01*
X04522Y04648D02*
Y04698D01*
X04447Y04473D02*
X04497D01*
X04472Y04448D02*
Y04498D01*
X04397Y04673D02*
X04447D01*
X04422Y04648D02*
Y04698D01*
X04347Y04473D02*
X04397D01*
X04372Y04448D02*
Y04498D01*
X04297Y04673D02*
X04347D01*
X04322Y04648D02*
Y04698D01*
X04247Y04473D02*
X04297D01*
X04272Y04448D02*
Y04498D01*
X04197Y04673D02*
X04247D01*
X04222Y04648D02*
Y04698D01*
X04147Y04473D02*
X04197D01*
X04172Y04448D02*
Y04498D01*
X04097Y04673D02*
X04147D01*
X04122Y04648D02*
Y04698D01*
X04047Y04473D02*
X04097D01*
X04072Y04448D02*
Y04498D01*
X03997Y04673D02*
X04047D01*
X04022Y04648D02*
Y04698D01*
X03947Y04473D02*
X03997D01*
X03972Y04448D02*
Y04498D01*
X03897Y04673D02*
X03947D01*
X03922Y04648D02*
Y04698D01*
X03847Y04473D02*
X03897D01*
X03872Y04448D02*
Y04498D01*
X04795Y049D02*
X04805D01*
X048Y04895D02*
Y04905D01*
X04845Y048D02*
X04855D01*
X0485Y04795D02*
Y04805D01*
X04795Y047D02*
X04805D01*
X048Y04695D02*
Y04705D01*
X04795Y045D02*
X04805D01*
X048Y04495D02*
Y04505D01*
X04845Y044D02*
X04855D01*
X0485Y04395D02*
Y04405D01*
X04795Y043D02*
X04805D01*
X048Y04295D02*
Y04305D01*
X04795Y023D02*
X04805D01*
X048Y02295D02*
Y02305D01*
X04845Y022D02*
X04855D01*
X0485Y02195D02*
Y02205D01*
X04795Y021D02*
X04805D01*
X048Y02095D02*
Y02105D01*
X04845Y02D02*
X04855D01*
X0485Y01995D02*
Y02005D01*
X04795Y019D02*
X04805D01*
X048Y01895D02*
Y01905D01*
X04845Y018D02*
X04855D01*
X0485Y01795D02*
Y01805D01*
X04795Y015D02*
X04805D01*
X048Y01495D02*
Y01505D01*
X04845Y014D02*
X04855D01*
X0485Y01395D02*
Y01405D01*
X04795Y013D02*
X04805D01*
X048Y01295D02*
Y01305D01*
X04695Y049D02*
X04705D01*
X047Y04895D02*
Y04905D01*
X04745Y048D02*
X04755D01*
X0475Y04795D02*
Y04805D01*
X04745Y044D02*
X04755D01*
X0475Y04395D02*
Y04405D01*
X04745Y036D02*
X04755D01*
X0475Y03595D02*
Y03605D01*
X04695Y035D02*
X04705D01*
X047Y03495D02*
Y03505D01*
X04745Y022D02*
X04755D01*
X0475Y02195D02*
Y02205D01*
X04745Y02D02*
X04755D01*
X0475Y01995D02*
Y02005D01*
X04745Y018D02*
X04755D01*
X0475Y01795D02*
Y01805D01*
X04745Y016D02*
X04755D01*
X0475Y01595D02*
Y01605D01*
X04695Y013D02*
X04705D01*
X047Y01295D02*
Y01305D01*
X04595Y049D02*
X04605D01*
X046Y04895D02*
Y04905D01*
X04595Y025D02*
X04605D01*
X046Y02495D02*
Y02505D01*
X04645Y022D02*
X04655D01*
X0465Y02195D02*
Y02205D01*
X04645Y014D02*
X04655D01*
X0465Y01395D02*
Y01405D01*
X04495Y023D02*
X04505D01*
X045Y02295D02*
Y02305D01*
X04495Y021D02*
X04505D01*
X045Y02095D02*
Y02105D01*
X04445Y032D02*
X04455D01*
X0445Y03195D02*
Y03205D01*
X04445Y03D02*
X04455D01*
X0445Y02995D02*
Y03005D01*
X04445Y028D02*
X04455D01*
X0445Y02795D02*
Y02805D01*
X04445Y022D02*
X04455D01*
X0445Y02195D02*
Y02205D01*
X04295Y039D02*
X04305D01*
X043Y03895D02*
Y03905D01*
X04345Y034D02*
X04355D01*
X0435Y03395D02*
Y03405D01*
X04295Y033D02*
X04305D01*
X043Y03295D02*
Y03305D01*
X04295Y023D02*
X04305D01*
X043Y02295D02*
Y02305D01*
X04345Y022D02*
X04355D01*
X0435Y02195D02*
Y02205D01*
X04295Y017D02*
X04305D01*
X043Y01695D02*
Y01705D01*
X04245Y034D02*
X04255D01*
X0425Y03395D02*
Y03405D01*
X04245Y032D02*
X04255D01*
X0425Y03195D02*
Y03205D01*
X04245Y03D02*
X04255D01*
X0425Y02995D02*
Y03005D01*
X04245Y028D02*
X04255D01*
X0425Y02795D02*
Y02805D01*
X04195Y023D02*
X04205D01*
X042Y02295D02*
Y02305D01*
X04195Y015D02*
X04205D01*
X042Y01495D02*
Y01505D01*
X04145Y032D02*
X04155D01*
X0415Y03195D02*
Y03205D01*
X04145Y018D02*
X04155D01*
X0415Y01795D02*
Y01805D01*
X04045Y036D02*
X04055D01*
X0405Y03595D02*
Y03605D01*
X04045Y034D02*
X04055D01*
X0405Y03395D02*
Y03405D01*
X04045Y032D02*
X04055D01*
X0405Y03195D02*
Y03205D01*
X03995Y021D02*
X04005D01*
X04Y02095D02*
Y02105D01*
X04045Y02D02*
X04055D01*
X0405Y01995D02*
Y02005D01*
X03995Y019D02*
X04005D01*
X04Y01895D02*
Y01905D01*
X03995Y017D02*
X04005D01*
X04Y01695D02*
Y01705D01*
X04045Y016D02*
X04055D01*
X0405Y01595D02*
Y01605D01*
X03995Y015D02*
X04005D01*
X04Y01495D02*
Y01505D01*
X03945Y036D02*
X03955D01*
X0395Y03595D02*
Y03605D01*
X03945Y034D02*
X03955D01*
X0395Y03395D02*
Y03405D01*
X03945Y032D02*
X03955D01*
X0395Y03195D02*
Y03205D01*
X03895Y029D02*
X03905D01*
X039Y02895D02*
Y02905D01*
X03895Y021D02*
X03905D01*
X039Y02095D02*
Y02105D01*
X03945Y02D02*
X03955D01*
X0395Y01995D02*
Y02005D01*
X03945Y018D02*
X03955D01*
X0395Y01795D02*
Y01805D01*
X03845Y036D02*
X03855D01*
X0385Y03595D02*
Y03605D01*
X03845Y034D02*
X03855D01*
X0385Y03395D02*
Y03405D01*
X03845Y032D02*
X03855D01*
X0385Y03195D02*
Y03205D01*
X03845Y03D02*
X03855D01*
X0385Y02995D02*
Y03005D01*
X03795Y021D02*
X03805D01*
X038Y02095D02*
Y02105D01*
X03795Y019D02*
X03805D01*
X038Y01895D02*
Y01905D01*
X03845Y018D02*
X03855D01*
X0385Y01795D02*
Y01805D01*
X03845Y016D02*
X03855D01*
X0385Y01595D02*
Y01605D01*
X03795Y015D02*
X03805D01*
X038Y01495D02*
Y01505D01*
X03745Y036D02*
X03755D01*
X0375Y03595D02*
Y03605D01*
X03745Y034D02*
X03755D01*
X0375Y03395D02*
Y03405D01*
X03695Y033D02*
X03705D01*
X037Y03295D02*
Y03305D01*
X03745Y032D02*
X03755D01*
X0375Y03195D02*
Y03205D01*
X03745Y03D02*
X03755D01*
X0375Y02995D02*
Y03005D01*
X03695Y021D02*
X03705D01*
X037Y02095D02*
Y02105D01*
X03695Y019D02*
X03705D01*
X037Y01895D02*
Y01905D01*
X03745Y018D02*
X03755D01*
X0375Y01795D02*
Y01805D01*
X03695Y015D02*
X03705D01*
X037Y01495D02*
Y01505D01*
X03595Y033D02*
X03605D01*
X036Y03295D02*
Y03305D01*
X03645Y032D02*
X03655D01*
X0365Y03195D02*
Y03205D01*
X03645Y03D02*
X03655D01*
X0365Y02995D02*
Y03005D01*
X03595Y021D02*
X03605D01*
X036Y02095D02*
Y02105D01*
X03595Y019D02*
X03605D01*
X036Y01895D02*
Y01905D01*
X03645Y018D02*
X03655D01*
X0365Y01795D02*
Y01805D01*
X03595Y015D02*
X03605D01*
X036Y01495D02*
Y01505D01*
X03495Y037D02*
X03505D01*
X035Y03695D02*
Y03705D01*
X03545Y036D02*
X03555D01*
X0355Y03595D02*
Y03605D01*
X03545Y03D02*
X03555D01*
X0355Y02995D02*
Y03005D01*
X03495Y021D02*
X03505D01*
X035Y02095D02*
Y02105D01*
X03495Y019D02*
X03505D01*
X035Y01895D02*
Y01905D01*
X03545Y018D02*
X03555D01*
X0355Y01795D02*
Y01805D01*
X03395Y047D02*
X03405D01*
X034Y04695D02*
Y04705D01*
X03445Y04D02*
X03455D01*
X0345Y03995D02*
Y04005D01*
X03445Y038D02*
X03455D01*
X0345Y03795D02*
Y03805D01*
X03445Y026D02*
X03455D01*
X0345Y02595D02*
Y02605D01*
X03395Y021D02*
X03405D01*
X034Y02095D02*
Y02105D01*
X03395Y019D02*
X03405D01*
X034Y01895D02*
Y01905D01*
X03445Y018D02*
X03455D01*
X0345Y01795D02*
Y01805D01*
X03395Y015D02*
X03405D01*
X034Y01495D02*
Y01505D01*
X03295Y047D02*
X03305D01*
X033Y04695D02*
Y04705D01*
X03345Y04D02*
X03355D01*
X0335Y03995D02*
Y04005D01*
X03345Y03D02*
X03355D01*
X0335Y02995D02*
Y03005D01*
X03345Y028D02*
X03355D01*
X0335Y02795D02*
Y02805D01*
X03345Y026D02*
X03355D01*
X0335Y02595D02*
Y02605D01*
X03295Y021D02*
X03305D01*
X033Y02095D02*
Y02105D01*
X03345Y018D02*
X03355D01*
X0335Y01795D02*
Y01805D01*
X03245Y04D02*
X03255D01*
X0325Y03995D02*
Y04005D01*
X03245Y038D02*
X03255D01*
X0325Y03795D02*
Y03805D01*
X03245Y032D02*
X03255D01*
X0325Y03195D02*
Y03205D01*
X03245Y03D02*
X03255D01*
X0325Y02995D02*
Y03005D01*
X03195Y029D02*
X03205D01*
X032Y02895D02*
Y02905D01*
X03245Y024D02*
X03255D01*
X0325Y02395D02*
Y02405D01*
X03195Y021D02*
X03205D01*
X032Y02095D02*
Y02105D01*
X03245Y016D02*
X03255D01*
X0325Y01595D02*
Y01605D01*
X03195Y015D02*
X03205D01*
X032Y01495D02*
Y01505D01*
X03145Y04D02*
X03155D01*
X0315Y03995D02*
Y04005D01*
X03145Y03D02*
X03155D01*
X0315Y02995D02*
Y03005D01*
X03095Y029D02*
X03105D01*
X031Y02895D02*
Y02905D01*
X03145Y028D02*
X03155D01*
X0315Y02795D02*
Y02805D01*
X03095Y021D02*
X03105D01*
X031Y02095D02*
Y02105D01*
X03145Y018D02*
X03155D01*
X0315Y01795D02*
Y01805D01*
X03045Y04D02*
X03055D01*
X0305Y03995D02*
Y04005D01*
X03045Y038D02*
X03055D01*
X0305Y03795D02*
Y03805D01*
X02995Y033D02*
X03005D01*
X03Y03295D02*
Y03305D01*
X02995Y031D02*
X03005D01*
X03Y03095D02*
Y03105D01*
X03045Y03D02*
X03055D01*
X0305Y02995D02*
Y03005D01*
X03045Y026D02*
X03055D01*
X0305Y02595D02*
Y02605D01*
X02995Y019D02*
X03005D01*
X03Y01895D02*
Y01905D01*
X02945Y04D02*
X02955D01*
X0295Y03995D02*
Y04005D01*
X02895Y033D02*
X02905D01*
X029Y03295D02*
Y03305D01*
X02895Y031D02*
X02905D01*
X029Y03095D02*
Y03105D01*
X02945Y03D02*
X02955D01*
X0295Y02995D02*
Y03005D01*
X02895Y019D02*
X02905D01*
X029Y01895D02*
Y01905D01*
X02945Y018D02*
X02955D01*
X0295Y01795D02*
Y01805D01*
X02895Y015D02*
X02905D01*
X029Y01495D02*
Y01505D01*
X02795Y047D02*
X02805D01*
X028Y04695D02*
Y04705D01*
X02845Y046D02*
X02855D01*
X0285Y04595D02*
Y04605D01*
X02845Y04D02*
X02855D01*
X0285Y03995D02*
Y04005D01*
X02845Y038D02*
X02855D01*
X0285Y03795D02*
Y03805D01*
X02845Y034D02*
X02855D01*
X0285Y03395D02*
Y03405D01*
X02795Y033D02*
X02805D01*
X028Y03295D02*
Y03305D01*
X02845Y032D02*
X02855D01*
X0285Y03195D02*
Y03205D01*
X02795Y031D02*
X02805D01*
X028Y03095D02*
Y03105D01*
X02845Y03D02*
X02855D01*
X0285Y02995D02*
Y03005D01*
X02845Y028D02*
X02855D01*
X0285Y02795D02*
Y02805D01*
X02795Y021D02*
X02805D01*
X028Y02095D02*
Y02105D01*
X02845Y018D02*
X02855D01*
X0285Y01795D02*
Y01805D01*
X02795Y015D02*
X02805D01*
X028Y01495D02*
Y01505D01*
X02745Y046D02*
X02755D01*
X0275Y04595D02*
Y04605D01*
X02745Y04D02*
X02755D01*
X0275Y03995D02*
Y04005D01*
X02695Y033D02*
X02705D01*
X027Y03295D02*
Y03305D01*
X02745Y016D02*
X02755D01*
X0275Y01595D02*
Y01605D01*
X02645Y038D02*
X02655D01*
X0265Y03795D02*
Y03805D01*
X02645Y034D02*
X02655D01*
X0265Y03395D02*
Y03405D01*
X02595Y023D02*
X02605D01*
X026Y02295D02*
Y02305D01*
X02645Y016D02*
X02655D01*
X0265Y01595D02*
Y01605D01*
X02595Y015D02*
X02605D01*
X026Y01495D02*
Y01505D01*
X02495Y017D02*
X02505D01*
X025Y01695D02*
Y01705D01*
X02345Y048D02*
X02355D01*
X0235Y04795D02*
Y04805D01*
X02245Y048D02*
X02255D01*
X0225Y04795D02*
Y04805D01*
X02195Y027D02*
X02205D01*
X022Y02695D02*
Y02705D01*
X02245Y02D02*
X02255D01*
X0225Y01995D02*
Y02005D01*
X02245Y018D02*
X02255D01*
X0225Y01795D02*
Y01805D01*
X02195Y017D02*
X02205D01*
X022Y01695D02*
Y01705D01*
X02095Y047D02*
X02105D01*
X021Y04695D02*
Y04705D01*
X02145Y046D02*
X02155D01*
X0215Y04595D02*
Y04605D01*
X02145Y028D02*
X02155D01*
X0215Y02795D02*
Y02805D01*
X02095Y019D02*
X02105D01*
X021Y01895D02*
Y01905D01*
X02095Y017D02*
X02105D01*
X021Y01695D02*
Y01705D01*
X02045Y046D02*
X02055D01*
X0205Y04595D02*
Y04605D01*
X01995Y027D02*
X02005D01*
X02Y02695D02*
Y02705D01*
X01995Y021D02*
X02005D01*
X02Y02095D02*
Y02105D01*
X02045Y02D02*
X02055D01*
X0205Y01995D02*
Y02005D01*
X02045Y018D02*
X02055D01*
X0205Y01795D02*
Y01805D01*
X01945Y046D02*
X01955D01*
X0195Y04595D02*
Y04605D01*
X01945Y034D02*
X01955D01*
X0195Y03395D02*
Y03405D01*
X01945Y032D02*
X01955D01*
X0195Y03195D02*
Y03205D01*
X01945Y022D02*
X01955D01*
X0195Y02195D02*
Y02205D01*
X01945Y02D02*
X01955D01*
X0195Y01995D02*
Y02005D01*
X01945Y018D02*
X01955D01*
X0195Y01795D02*
Y01805D01*
X01845Y022D02*
X01855D01*
X0185Y02195D02*
Y02205D01*
X01845Y02D02*
X01855D01*
X0185Y01995D02*
Y02005D01*
X01795Y017D02*
X01805D01*
X018Y01695D02*
Y01705D01*
X01695Y023D02*
X01705D01*
X017Y02295D02*
Y02305D01*
X01745Y022D02*
X01755D01*
X0175Y02195D02*
Y02205D01*
X01695Y021D02*
X01705D01*
X017Y02095D02*
Y02105D01*
X01745Y02D02*
X01755D01*
X0175Y01995D02*
Y02005D01*
X01745Y018D02*
X01755D01*
X0175Y01795D02*
Y01805D01*
X01695Y017D02*
X01705D01*
X017Y01695D02*
Y01705D01*
X01595Y047D02*
X01605D01*
X016Y04695D02*
Y04705D01*
X01645Y04D02*
X01655D01*
X0165Y03995D02*
Y04005D01*
X01595Y029D02*
X01605D01*
X016Y02895D02*
Y02905D01*
X01645Y028D02*
X01655D01*
X0165Y02795D02*
Y02805D01*
X01645Y016D02*
X01655D01*
X0165Y01595D02*
Y01605D01*
X01495Y047D02*
X01505D01*
X015Y04695D02*
Y04705D01*
X01545Y04D02*
X01555D01*
X0155Y03995D02*
Y04005D01*
X01495Y027D02*
X01505D01*
X015Y02695D02*
Y02705D01*
X01545Y026D02*
X01555D01*
X0155Y02595D02*
Y02605D01*
X01545Y022D02*
X01555D01*
X0155Y02195D02*
Y02205D01*
X01495Y015D02*
X01505D01*
X015Y01495D02*
Y01505D01*
X01395Y043D02*
X01405D01*
X014Y04295D02*
Y04305D01*
X01445Y026D02*
X01455D01*
X0145Y02595D02*
Y02605D01*
X01395Y023D02*
X01405D01*
X014Y02295D02*
Y02305D01*
X01445Y018D02*
X01455D01*
X0145Y01795D02*
Y01805D01*
X01395Y017D02*
X01405D01*
X014Y01695D02*
Y01705D01*
X01295Y049D02*
X01305D01*
X013Y04895D02*
Y04905D01*
X01345Y046D02*
X01355D01*
X0135Y04595D02*
Y04605D01*
X01345Y036D02*
X01355D01*
X0135Y03595D02*
Y03605D01*
X01295Y033D02*
X01305D01*
X013Y03295D02*
Y03305D01*
X01345Y03D02*
X01355D01*
X0135Y02995D02*
Y03005D01*
X01345Y026D02*
X01355D01*
X0135Y02595D02*
Y02605D01*
X01345Y016D02*
X01355D01*
X0135Y01595D02*
Y01605D01*
X01245Y046D02*
X01255D01*
X0125Y04595D02*
Y04605D01*
X01245Y044D02*
X01255D01*
X0125Y04395D02*
Y04405D01*
X01195Y027D02*
X01205D01*
X012Y02695D02*
Y02705D01*
X01245Y026D02*
X01255D01*
X0125Y02595D02*
Y02605D01*
X01195Y023D02*
X01205D01*
X012Y02295D02*
Y02305D01*
X01195Y021D02*
X01205D01*
X012Y02095D02*
Y02105D01*
X01245Y014D02*
X01255D01*
X0125Y01395D02*
Y01405D01*
X01095Y049D02*
X01105D01*
X011Y04895D02*
Y04905D01*
X01095Y045D02*
X01105D01*
X011Y04495D02*
Y04505D01*
X01095Y043D02*
X01105D01*
X011Y04295D02*
Y04305D01*
X01145Y042D02*
X01155D01*
X0115Y04195D02*
Y04205D01*
X01095Y041D02*
X01105D01*
X011Y04095D02*
Y04105D01*
X01145Y04D02*
X01155D01*
X0115Y03995D02*
Y04005D01*
X01095Y039D02*
X01105D01*
X011Y03895D02*
Y03905D01*
X01145Y038D02*
X01155D01*
X0115Y03795D02*
Y03805D01*
X01095Y037D02*
X01105D01*
X011Y03695D02*
Y03705D01*
X01145Y036D02*
X01155D01*
X0115Y03595D02*
Y03605D01*
X01095Y035D02*
X01105D01*
X011Y03495D02*
Y03505D01*
X01145Y034D02*
X01155D01*
X0115Y03395D02*
Y03405D01*
X01095Y033D02*
X01105D01*
X011Y03295D02*
Y03305D01*
X01145Y032D02*
X01155D01*
X0115Y03195D02*
Y03205D01*
X01095Y031D02*
X01105D01*
X011Y03095D02*
Y03105D01*
X01095Y029D02*
X01105D01*
X011Y02895D02*
Y02905D01*
X01095Y021D02*
X01105D01*
X011Y02095D02*
Y02105D01*
X01145Y02D02*
X01155D01*
X0115Y01995D02*
Y02005D01*
X01145Y014D02*
X01155D01*
X0115Y01395D02*
Y01405D01*
X01285Y0229D02*
X01295D01*
X0129Y02285D02*
Y02295D01*
X01284Y02393D02*
X01294D01*
X01289Y02388D02*
Y02398D01*
X02403Y01562D02*
X02413D01*
X02408Y01557D02*
Y01567D01*
X02328Y03808D02*
X02338D01*
X02333Y03803D02*
Y03813D01*
X02253Y02746D02*
X02263D01*
X02258Y02741D02*
Y02751D01*
X02253Y03098D02*
X02263D01*
X02258Y03093D02*
Y03103D01*
X02814Y01436D02*
X02824D01*
X02819Y01431D02*
Y01441D01*
X02225Y02925D02*
X02235D01*
X0223Y0292D02*
Y0293D01*
X01988Y03347D02*
X01998D01*
X01993Y03342D02*
Y03352D01*
X022439Y040768D02*
X022539D01*
X022489Y040718D02*
Y040818D01*
X022002Y041042D02*
X022102D01*
X022052Y040992D02*
Y041092D01*
X02287Y04113D02*
X02297D01*
X02292Y04108D02*
Y04118D01*
X02237Y04115D02*
X02247D01*
X02242Y0411D02*
Y0412D01*
X0482Y04818D02*
X0483D01*
X04825Y04813D02*
Y04823D01*
X04439Y03655D02*
X04449D01*
X04444Y0365D02*
Y0366D01*
X03839Y04751D02*
X03849D01*
X03844Y04746D02*
Y04756D01*
X01888Y01493D02*
X01898D01*
X01893Y01488D02*
Y01498D01*
X01634Y04596D02*
X01644D01*
X01639Y04591D02*
Y04601D01*
X0204Y03107D02*
X0205D01*
X02045Y03102D02*
Y03112D01*
X01955Y03515D02*
X01965D01*
X0196Y0351D02*
Y0352D01*
X02549Y041537D02*
X02559D01*
X02554Y041487D02*
Y041587D01*
X02575Y04153D02*
X02585D01*
X0258Y04148D02*
Y04158D01*
X02361Y039275D02*
X02371D01*
X02366Y039225D02*
Y039325D01*
X02411Y039487D02*
X02421D01*
X02416Y039437D02*
Y039537D01*
X0298Y029247D02*
X0299D01*
X02985Y029197D02*
Y029297D01*
X023605Y019999D02*
X023705D01*
X023655Y019949D02*
Y020049D01*
X01661Y03123D02*
X01671D01*
X01666Y03118D02*
Y03128D01*
X016962Y031035D02*
X017062D01*
X017012Y030985D02*
Y031085D01*
X01768Y03143D02*
X01778D01*
X01773Y03138D02*
Y03148D01*
X02458Y019403D02*
X02468D01*
X02463Y019353D02*
Y019453D01*
X04215Y04839D02*
X04225D01*
X0422Y04834D02*
Y04844D01*
X03873Y0435D02*
X03883D01*
X03878Y04345D02*
Y04355D01*
X01528Y03224D02*
X01538D01*
X01533Y03219D02*
Y03229D01*
X02788Y01692D02*
X02798D01*
X02793Y01687D02*
Y01697D01*
X03526Y03563D02*
X03536D01*
X03531Y03558D02*
Y03568D01*
X02432Y03996D02*
X02442D01*
X02437Y03991D02*
Y04001D01*
X02367Y04144D02*
X02377D01*
X02372Y04139D02*
Y04149D01*
X03533Y03051D02*
X03543D01*
X03538Y03046D02*
Y03056D01*
X02398Y04833D02*
X02408D01*
X02403Y04828D02*
Y04838D01*
X02424Y04805D02*
X02434D01*
X02429Y048D02*
Y0481D01*
X04764Y042D02*
X04774D01*
X04769Y04195D02*
Y04205D01*
X04758Y02517D02*
X04768D01*
X04763Y02512D02*
Y02522D01*
X03926Y04329D02*
X03936D01*
X03931Y04324D02*
Y04334D01*
X0332Y044345D02*
X0333D01*
X03325Y044295D02*
Y044395D01*
X031301Y044345D02*
X031401D01*
X031351Y044295D02*
Y044395D01*
X029303Y044345D02*
X029403D01*
X029353Y044295D02*
Y044395D01*
X02727Y04435D02*
X02737D01*
X02732Y0443D02*
Y0444D01*
X0353Y03215D02*
X0354D01*
X03535Y0321D02*
Y0322D01*
X03529Y03387D02*
X03539D01*
X03534Y03382D02*
Y03392D01*
X03527Y03746D02*
X03537D01*
X03532Y03741D02*
Y03751D01*
X04266Y02486D02*
X04276D01*
X04271Y02481D02*
Y02491D01*
X02138Y02072D02*
X02148D01*
X02143Y02067D02*
Y02077D01*
X02258Y01872D02*
X02268D01*
X02263Y01867D02*
Y01877D01*
X0226Y03804D02*
X0227D01*
X02265Y03799D02*
Y03809D01*
X01392Y04092D02*
X01402D01*
X01397Y04087D02*
Y04097D01*
X01867Y0301D02*
X01877D01*
X01872Y03005D02*
Y03015D01*
X01748Y03167D02*
X01758D01*
X01753Y03162D02*
Y03172D01*
X019655Y032495D02*
X019755D01*
X019705Y032445D02*
Y032545D01*
X01731Y03322D02*
X01741D01*
X01736Y03317D02*
Y03327D01*
X01286Y02175D02*
X01296D01*
X01291Y0217D02*
Y0218D01*
X01283Y0261D02*
X01293D01*
X01288Y02605D02*
Y02615D01*
X01977Y028D02*
X01987D01*
X01982Y02795D02*
Y02805D01*
X02918Y01805D02*
X02928D01*
X02923Y018D02*
Y0181D01*
X02449Y02468D02*
X02459D01*
X02454Y02463D02*
Y02473D01*
X0226Y02655D02*
X0227D01*
X02265Y0265D02*
Y0266D01*
X02486Y01872D02*
X02496D01*
X02491Y01867D02*
Y01877D01*
X02384Y02014D02*
X02394D01*
X02389Y02009D02*
Y02019D01*
X03324Y0149D02*
X03334D01*
X03329Y01485D02*
Y01495D01*
X02315Y02001D02*
X02325D01*
X0232Y01996D02*
Y02006D01*
X0163Y02484D02*
X0164D01*
X01635Y02479D02*
Y02489D01*
X01629Y02247D02*
X01639D01*
X01634Y02242D02*
Y02252D01*
X02314Y01562D02*
X02324D01*
X02319Y01557D02*
Y01567D01*
X04136Y01476D02*
X04146D01*
X04141Y01471D02*
Y01481D01*
X0393Y01477D02*
X0394D01*
X03935Y01472D02*
Y01482D01*
X02951Y01485D02*
X02961D01*
X02956Y0148D02*
Y0149D01*
X03117Y01485D02*
X03127D01*
X03122Y0148D02*
Y0149D01*
X032215Y019256D02*
X033396D01*
X032805Y018666D02*
Y019847D01*
X032215Y02839D02*
X033396D01*
X032805Y027799D02*
Y028981D01*
X040364Y02839D02*
X041545D01*
X040955Y027799D02*
Y028981D01*
X040364Y019256D02*
X041545D01*
X040955Y018666D02*
Y019847D01*
X02926Y02836D02*
X02936D01*
X02931Y02831D02*
Y02841D01*
X02943Y02867D02*
X02953D01*
X02948Y02862D02*
Y02872D01*
X029705Y029005D02*
X029805D01*
X029755Y028955D02*
Y029055D01*
X04502Y04208D02*
X04512D01*
X04507Y04203D02*
Y04213D01*
X04622Y04317D02*
X04642D01*
X04632Y04307D02*
Y04327D01*
X03972Y02888D02*
X03992D01*
X03982Y02878D02*
Y02898D01*
X03972Y03804D02*
X03992D01*
X03982Y03794D02*
Y03814D01*
X02373Y02745D02*
X02383D01*
X02378Y0274D02*
Y0275D01*
X04541Y01377D02*
X04551D01*
X04546Y01372D02*
Y01382D01*
X02844Y02012D02*
X02854D01*
X02849Y02007D02*
Y02017D01*
X02837Y01983D02*
X02847D01*
X02842Y01978D02*
Y01988D01*
X02798Y01923D02*
X02808D01*
X02803Y01918D02*
Y01928D01*
X028185Y01954D02*
X028285D01*
X028235Y01949D02*
Y01959D01*
X0286Y01672D02*
X0287D01*
X02865Y01667D02*
Y01677D01*
X03353Y01435D02*
X03363D01*
X03358Y0143D02*
Y0144D01*
X04541Y03386D02*
X04551D01*
X04546Y03381D02*
Y03391D01*
X02109Y03095D02*
X02119D01*
X02114Y0309D02*
Y031D01*
X02017Y03435D02*
X02027D01*
X02022Y0343D02*
Y0344D01*
X02017Y03745D02*
X02027D01*
X02022Y0374D02*
Y0375D01*
X020175Y04045D02*
X020275D01*
X020225Y0404D02*
Y0405D01*
X02309Y04142D02*
X02319D01*
X02314Y04137D02*
Y04147D01*
X02513Y04539D02*
X02523D01*
X02518Y04534D02*
Y04544D01*
X02336Y04541D02*
X02346D01*
X02341Y04536D02*
Y04546D01*
X02066Y04541D02*
X02076D01*
X02071Y04536D02*
Y04546D01*
X01886Y02737D02*
X01896D01*
X01891Y02732D02*
Y02742D01*
X02036Y03161D02*
X02046D01*
X02041Y03156D02*
Y03166D01*
X01881Y03321D02*
X01891D01*
X01886Y03316D02*
Y03326D01*
X01741Y03683D02*
X01751D01*
X01746Y03678D02*
Y03688D01*
X01448Y03683D02*
X01458D01*
X01453Y03678D02*
Y03688D01*
X02167Y02867D02*
X02177D01*
X02172Y02862D02*
Y02872D01*
X02179Y04082D02*
X02189D01*
X02184Y04077D02*
Y04087D01*
X022Y02901D02*
X0221D01*
X02205Y02896D02*
Y02906D01*
X02144Y02838D02*
X02154D01*
X02149Y02833D02*
Y02843D01*
X02062Y03436D02*
X02072D01*
X02067Y03431D02*
Y03441D01*
X0206Y03891D02*
X0207D01*
X02065Y03886D02*
Y03896D01*
X02114Y0297D02*
X02124D01*
X02119Y02965D02*
Y02975D01*
X02101Y0344D02*
X02111D01*
X02106Y03435D02*
Y03445D01*
X02101Y03896D02*
X02111D01*
X02106Y03891D02*
Y03901D01*
X02143Y0344D02*
X02153D01*
X02148Y03435D02*
Y03445D01*
X02145Y03894D02*
X02155D01*
X0215Y03889D02*
Y03899D01*
X0218Y03438D02*
X0219D01*
X02185Y03433D02*
Y03443D01*
X0218Y03892D02*
X0219D01*
X02185Y03887D02*
Y03897D01*
X02624Y03737D02*
X02634D01*
X02629Y03732D02*
Y03742D01*
X02623Y03697D02*
X02633D01*
X02628Y03692D02*
Y03702D01*
X02622Y03652D02*
X02632D01*
X02627Y03647D02*
Y03657D01*
X02621Y03613D02*
X02631D01*
X02626Y03608D02*
Y03618D01*
X03474Y04141D02*
X03484D01*
X03479Y04136D02*
Y04146D01*
X04419Y04524D02*
X04429D01*
X04424Y04519D02*
Y04529D01*
X03952Y04162D02*
X03962D01*
X03957Y04157D02*
Y04167D01*
X04007Y04111D02*
X04017D01*
X04012Y04106D02*
Y04116D01*
X04317Y04548D02*
X04327D01*
X04322Y04543D02*
Y04553D01*
X03211Y02324D02*
X03221D01*
X03216Y02319D02*
Y02329D01*
X03177Y02293D02*
X03187D01*
X03182Y02288D02*
Y02298D01*
X03141Y02261D02*
X03151D01*
X03146Y02256D02*
Y02266D01*
X031Y0223D02*
X0311D01*
X03105Y02225D02*
Y02235D01*
X03068Y02195D02*
X03078D01*
X03073Y0219D02*
Y022D01*
X03032Y02161D02*
X03042D01*
X03037Y02156D02*
Y02166D01*
X01322Y01636D02*
X01332D01*
X01327Y01631D02*
Y01641D01*
X020845Y029535D02*
X020945D01*
X020895Y029485D02*
Y029585D01*
X02258Y04773D02*
X02268D01*
X02263Y04768D02*
Y04778D01*
X01741Y03059D02*
X01751D01*
X01746Y03054D02*
Y03064D01*
X01795Y03027D02*
X01805D01*
X018Y03022D02*
Y03032D01*
X02056Y02944D02*
X02066D01*
X02061Y02939D02*
Y02949D01*
X02025Y02942D02*
X02035D01*
X0203Y02937D02*
Y02947D01*
X01945Y0291D02*
X01955D01*
X0195Y02905D02*
Y02915D01*
X01822Y02749D02*
X01832D01*
X01827Y02744D02*
Y02754D01*
X03598Y0164D02*
X03608D01*
X03603Y01635D02*
Y01645D01*
X03688Y0164D02*
X03698D01*
X03693Y01635D02*
Y01645D01*
X03688Y01436D02*
X03698D01*
X03693Y01431D02*
Y01441D01*
X03598Y01436D02*
X03608D01*
X03603Y01431D02*
Y01441D01*
X015544Y031416D02*
X015644D01*
X015594Y031366D02*
Y031466D01*
X04136Y01567D02*
X04146D01*
X04141Y01562D02*
Y01572D01*
X0393Y01567D02*
X0394D01*
X03935Y01562D02*
Y01572D01*
X02951Y01575D02*
X02961D01*
X02956Y0157D02*
Y0158D01*
X03117Y01575D02*
X03127D01*
X03122Y0157D02*
Y0158D01*
M02*
