G04*
G04 #@! TF.GenerationSoftware,Altium Limited,Altium Designer,21.2.1 (34)*
G04*
G04 Layer_Color=65535*
%FSTAX24Y24*%
%MOIN*%
G70*
G04*
G04 #@! TF.SameCoordinates,1AE62F94-6DB7-4B32-8B40-2354E624DE5A*
G04*
G04*
G04 #@! TF.FilePolarity,Positive*
G04*
G01*
G75*
%ADD10C,0.0200*%
%ADD11C,0.0098*%
%ADD12C,0.0060*%
%ADD13C,0.0080*%
%ADD14C,0.0079*%
%ADD15C,0.0040*%
%ADD16C,0.0050*%
%ADD17C,0.0100*%
%ADD18C,0.0070*%
%ADD19C,0.0030*%
%ADD20C,0.0250*%
G36*
X014Y01582D02*
X01375Y01607D01*
X01425D01*
X014Y01582D01*
D02*
G37*
G36*
X01544Y01513D02*
X01519Y01488D01*
Y01538D01*
X01544Y01513D01*
D02*
G37*
G36*
X014Y01469D02*
X01375Y01494D01*
X01425D01*
X014Y01469D01*
D02*
G37*
G36*
X01579Y03016D02*
Y03031D01*
X01569D01*
Y03016D01*
X01579D01*
D02*
G37*
G36*
X017226Y03258D02*
Y03268D01*
X017076D01*
Y03258D01*
X017226D01*
D02*
G37*
G36*
X017817Y02848D02*
Y02838D01*
X017667D01*
Y02848D01*
X017817D01*
D02*
G37*
G36*
X01989Y029963D02*
Y030113D01*
X01999D01*
Y029963D01*
X01989D01*
D02*
G37*
G36*
X0166Y03836D02*
X01685Y03811D01*
Y03861D01*
X0166Y03836D01*
D02*
G37*
G36*
X01678Y04036D02*
X01653Y04061D01*
Y04011D01*
X01678Y04036D01*
D02*
G37*
G36*
X0166Y04188D02*
X01685Y04163D01*
Y04213D01*
X0166Y04188D01*
D02*
G37*
G36*
X01678Y04388D02*
X01653Y04413D01*
Y04363D01*
X01678Y04388D01*
D02*
G37*
G36*
X020765Y042107D02*
Y041957D01*
X020665D01*
Y042107D01*
X020765D01*
D02*
G37*
G36*
X022838Y04359D02*
Y04369D01*
X022988D01*
Y04359D01*
X022838D01*
D02*
G37*
G36*
X023429Y03949D02*
Y03939D01*
X023579D01*
Y03949D01*
X023429D01*
D02*
G37*
G36*
X024865Y04191D02*
Y04176D01*
X024965D01*
Y04191D01*
X024865D01*
D02*
G37*
D10*
X01228Y027051D02*
G03*
X01228Y027051I-00015J0D01*
G01*
D11*
X032759Y041879D02*
G03*
X032759Y041879I-000049J0D01*
G01*
X03086D02*
G03*
X03086Y041879I-000049J0D01*
G01*
X028862D02*
G03*
X028862Y041879I-000049J0D01*
G01*
X026833D02*
G03*
X026833Y041879I-000049J0D01*
G01*
X041739Y037479D02*
G03*
X041739Y037479I-000049J0D01*
G01*
Y041789D02*
G03*
X041739Y041789I-000049J0D01*
G01*
X035388Y038463D02*
G03*
X035388Y038463I-000049J0D01*
G01*
X032759Y03819D02*
G03*
X032759Y03819I-000049J0D01*
G01*
X03085D02*
G03*
X03085Y03819I-000049J0D01*
G01*
X028862D02*
G03*
X028862Y03819I-000049J0D01*
G01*
X026833D02*
G03*
X026833Y03819I-000049J0D01*
G01*
X026812Y03441D02*
G03*
X026812Y03441I-000049J0D01*
G01*
Y03619D02*
G03*
X026812Y03619I-000049J0D01*
G01*
Y03799D02*
G03*
X026812Y03799I-000049J0D01*
G01*
X030958D02*
G03*
X030958Y03799I-000049J0D01*
G01*
Y03619D02*
G03*
X030958Y03619I-000049J0D01*
G01*
Y03441D02*
G03*
X030958Y03441I-000049J0D01*
G01*
X026812Y03268D02*
G03*
X026812Y03268I-000049J0D01*
G01*
X030958D02*
G03*
X030958Y03268I-000049J0D01*
G01*
X041739Y032729D02*
G03*
X041739Y032729I-000049J0D01*
G01*
X025449Y026221D02*
G03*
X025449Y026221I-000049J0D01*
G01*
X017657D02*
G03*
X017657Y026221I-000049J0D01*
G01*
X015927Y020054D02*
G03*
X015927Y020054I-000049J0D01*
G01*
X021557Y026221D02*
G03*
X021557Y026221I-000049J0D01*
G01*
D12*
X04363Y044305D02*
G03*
X04363Y044305I-00008J0D01*
G01*
X02455Y03385D02*
G03*
X02455Y03385I-00005J0D01*
G01*
X022752Y033722D02*
G03*
X022752Y033722I-00003J0D01*
G01*
X01796Y036765D02*
G03*
X01796Y036765I-00003J0D01*
G01*
X037575Y04473D02*
G03*
X037575Y04473I-00008J0D01*
G01*
X01147Y023101D02*
X01218D01*
X00984Y026351D02*
X010684D01*
X01218Y026124D02*
Y026351D01*
X01147D02*
X01218D01*
Y023101D02*
Y023327D01*
X00984Y023101D02*
X010684D01*
X00984D02*
Y026351D01*
X045337Y035555D02*
Y036149D01*
X046907Y035605D02*
Y043555D01*
X045337Y043011D02*
Y043605D01*
Y035555D02*
X047407D01*
Y043605D01*
X045337D02*
X047407D01*
X045337Y042011D02*
Y042149D01*
Y041011D02*
Y041149D01*
Y040011D02*
Y040149D01*
Y039011D02*
Y039149D01*
Y038011D02*
Y038149D01*
Y037011D02*
Y037149D01*
X04687Y034196D02*
Y03471D01*
X04425Y02401D02*
X04687D01*
Y024524D01*
X04425Y03471D02*
X04687D01*
X04425Y034246D02*
Y03471D01*
Y033196D02*
Y033474D01*
Y032196D02*
Y032524D01*
Y031196D02*
Y031524D01*
Y030196D02*
Y030524D01*
Y029196D02*
Y029524D01*
Y028196D02*
Y028524D01*
Y027196D02*
Y027524D01*
Y026196D02*
Y026524D01*
Y025196D02*
Y025524D01*
Y02401D02*
Y024524D01*
X04687Y025196D02*
Y025524D01*
Y026196D02*
Y026524D01*
Y027196D02*
Y027524D01*
Y028196D02*
Y028524D01*
Y029196D02*
Y029524D01*
Y030196D02*
Y030524D01*
Y031196D02*
Y031524D01*
Y032196D02*
Y032524D01*
Y033196D02*
Y033524D01*
X04425Y014106D02*
Y014434D01*
Y015106D02*
Y015434D01*
Y016106D02*
Y016434D01*
Y017106D02*
Y017434D01*
Y018106D02*
Y018434D01*
Y019106D02*
Y019434D01*
Y020106D02*
Y020434D01*
Y021106D02*
Y021434D01*
Y022106D02*
Y022434D01*
X04687Y023106D02*
Y02362D01*
Y022106D02*
Y022434D01*
Y021106D02*
Y021434D01*
Y020106D02*
Y020434D01*
Y019106D02*
Y019434D01*
Y018106D02*
Y018434D01*
Y017106D02*
Y017434D01*
Y016106D02*
Y016434D01*
Y015106D02*
Y015434D01*
Y014156D02*
Y014434D01*
Y01292D02*
Y013384D01*
X04425Y01292D02*
X04687D01*
X04425Y023106D02*
Y02362D01*
X04687D01*
X04425Y01292D02*
Y013434D01*
X025275Y033291D02*
Y03369D01*
X024625Y032916D02*
Y033184D01*
Y03241D02*
X025275D01*
Y032809D01*
X024625Y03369D02*
X025275D01*
X023312Y034172D02*
X023402D01*
X022042D02*
X022133D01*
X022042D02*
Y036322D01*
X023312D02*
X023402D01*
Y034172D02*
Y036322D01*
X022042D02*
X022133D01*
X021345Y04007D02*
Y040271D01*
Y04301D02*
X021546D01*
X024285Y042809D02*
Y04301D01*
X024084Y04007D02*
X024285D01*
X021345D02*
X021546D01*
X021345Y042809D02*
Y04301D01*
X024084D02*
X024285D01*
Y04007D02*
Y040271D01*
X018519Y034165D02*
X01861D01*
X01725D02*
Y036315D01*
Y034165D02*
X017341D01*
X01861D02*
Y036315D01*
X018519D02*
X01861D01*
X01725D02*
X017341D01*
X01931Y02906D02*
Y029261D01*
X019109Y02906D02*
X01931D01*
X01637D02*
X016571D01*
X01637D02*
Y029261D01*
X01931Y031799D02*
Y032D01*
X019109D02*
X01931D01*
X01637Y031799D02*
Y032D01*
X016571D01*
X044651Y046517D02*
X044789D01*
X043651D02*
X043789D01*
X042651D02*
X042789D01*
X041651D02*
X041789D01*
X040651D02*
X040789D01*
X039651D02*
X039789D01*
X038195D02*
Y048587D01*
X046245D01*
Y046517D02*
Y048587D01*
X038195Y046517D02*
X038789D01*
X038245Y048087D02*
X046195D01*
X045651Y046517D02*
X046245D01*
D13*
X027839Y02913D02*
G03*
X027839Y02913I-002559J0D01*
G01*
D14*
X020669Y019415D02*
G03*
X020669Y019415I-000039J0D01*
G01*
X034834Y046249D02*
X035571D01*
X037086D02*
Y049871D01*
X033618D02*
X037086D01*
X033618Y046249D02*
Y049871D01*
X036634Y046249D02*
X037086D01*
X033618D02*
X03437D01*
X031089D02*
X031825D01*
X033341D02*
Y049871D01*
X029872D02*
X033341D01*
X029872Y046249D02*
Y049871D01*
X032888Y046249D02*
X033341D01*
X029872D02*
X030624D01*
X027343D02*
X028079D01*
X029595D02*
Y049871D01*
X026126D02*
X029595D01*
X026126Y046249D02*
Y049871D01*
X029142Y046249D02*
X029595D01*
X026126D02*
X026878D01*
X03263Y042089D02*
Y044859D01*
X03388Y042089D02*
Y044869D01*
X03263Y042089D02*
X032927D01*
X032647Y044859D02*
X032947D01*
X03358Y042089D02*
X03388D01*
X03358Y044869D02*
X03388D01*
X030731Y042089D02*
Y044859D01*
X031981Y042089D02*
Y044869D01*
X030731Y042089D02*
X031029D01*
X030749Y044859D02*
X031049D01*
X031681Y042089D02*
X031981D01*
X031681Y044869D02*
X031981D01*
X029683D02*
X029983D01*
X029683Y042089D02*
X029983D01*
X02875Y044859D02*
X02905D01*
X028733Y042089D02*
X02903D01*
X029983D02*
Y044869D01*
X028733Y042089D02*
Y044859D01*
X026704Y042089D02*
Y044859D01*
X027954Y042089D02*
Y044869D01*
X026704Y042089D02*
X027001D01*
X026721Y044859D02*
X027021D01*
X027654Y042089D02*
X027954D01*
X027654Y044869D02*
X027954D01*
X040656Y039684D02*
X041444Y038896D01*
X040656Y036416D02*
X041444Y037204D01*
Y038503D02*
Y038896D01*
Y037204D02*
Y037597D01*
X038176Y039684D02*
X040656D01*
X038176Y036416D02*
X040656D01*
X038176Y038503D02*
Y039684D01*
Y036416D02*
Y037558D01*
X040656Y043994D02*
X041444Y043206D01*
X040656Y040726D02*
X041444Y041514D01*
Y042813D02*
Y043206D01*
Y041514D02*
Y041907D01*
X038176Y043994D02*
X040656D01*
X038176Y040726D02*
X040656D01*
X038176Y042813D02*
Y043994D01*
Y040726D02*
Y041868D01*
X034276Y041977D02*
X035418D01*
X036363D02*
X037544D01*
X034276Y039497D02*
Y041977D01*
X037544Y039497D02*
Y041977D01*
X035064Y038709D02*
X035457D01*
X036363D02*
X036756D01*
X034276Y039497D02*
X035064Y038709D01*
X036756D02*
X037544Y039497D01*
X03358Y04118D02*
X03388D01*
X03358Y0384D02*
X03388D01*
X032647Y04117D02*
X032947D01*
X03263Y0384D02*
X032927D01*
X03388D02*
Y04118D01*
X03263Y0384D02*
Y04117D01*
X030721Y0384D02*
Y04117D01*
X031971Y0384D02*
Y04118D01*
X030721Y0384D02*
X031019D01*
X030739Y04117D02*
X031039D01*
X031671Y0384D02*
X031971D01*
X031671Y04118D02*
X031971D01*
X028733Y0384D02*
Y04117D01*
X029983Y0384D02*
Y04118D01*
X028733Y0384D02*
X02903D01*
X02875Y04117D02*
X02905D01*
X029683Y0384D02*
X029983D01*
X029683Y04118D02*
X029983D01*
X026704Y0384D02*
Y04117D01*
X027954Y0384D02*
Y04118D01*
X026704Y0384D02*
X027001D01*
X026721Y04117D02*
X027021D01*
X027654Y0384D02*
X027954D01*
X027654Y04118D02*
X027954D01*
X026973Y03449D02*
X029743D01*
X026973Y03324D02*
X029753D01*
X026973Y034193D02*
Y03449D01*
X029743Y034173D02*
Y034473D01*
X026973Y03324D02*
Y03354D01*
X029753Y03324D02*
Y03354D01*
X026973Y03627D02*
X029743D01*
X026973Y03502D02*
X029753D01*
X026973Y035973D02*
Y03627D01*
X029743Y035953D02*
Y036253D01*
X026973Y03502D02*
Y03532D01*
X029753Y03502D02*
Y03532D01*
X026973Y03807D02*
X029743D01*
X026973Y03682D02*
X029753D01*
X026973Y037773D02*
Y03807D01*
X029743Y037753D02*
Y038053D01*
X026973Y03682D02*
Y03712D01*
X029753Y03682D02*
Y03712D01*
X031119Y03807D02*
X033889D01*
X031119Y03682D02*
X033899D01*
X031119Y037773D02*
Y03807D01*
X033889Y037753D02*
Y038053D01*
X031119Y03682D02*
Y03712D01*
X033899Y03682D02*
Y03712D01*
X031119Y03627D02*
X033889D01*
X031119Y03502D02*
X033899D01*
X031119Y035973D02*
Y03627D01*
X033889Y035953D02*
Y036253D01*
X031119Y03502D02*
Y03532D01*
X033899Y03502D02*
Y03532D01*
X031119Y03449D02*
X033889D01*
X031119Y03324D02*
X033899D01*
X031119Y034193D02*
Y03449D01*
X033889Y034173D02*
Y034473D01*
X031119Y03324D02*
Y03354D01*
X033899Y03324D02*
Y03354D01*
X029753Y03151D02*
Y03181D01*
X026973Y03151D02*
Y03181D01*
X029743Y032443D02*
Y032743D01*
X026973Y032463D02*
Y03276D01*
Y03151D02*
X029753D01*
X026973Y03276D02*
X029743D01*
X031119D02*
X033889D01*
X031119Y03151D02*
X033899D01*
X031119Y032463D02*
Y03276D01*
X033889Y032443D02*
Y032743D01*
X031119Y03151D02*
Y03181D01*
X033899Y03151D02*
Y03181D01*
X038176Y031666D02*
Y032808D01*
Y033753D02*
Y034934D01*
Y031666D02*
X040656D01*
X038176Y034934D02*
X040656D01*
X041444Y032454D02*
Y032847D01*
Y033753D02*
Y034146D01*
X040656Y031666D02*
X041444Y032454D01*
X040656Y034934D02*
X041444Y034146D01*
X040721Y014019D02*
Y016381D01*
Y014019D02*
X040997D01*
X040721Y016381D02*
X040997D01*
X041823D02*
X042099D01*
X041823Y014019D02*
X042099D01*
Y016381D01*
X038671Y014019D02*
Y016381D01*
Y014019D02*
X038947D01*
X038671Y016381D02*
X038947D01*
X039773D02*
X040049D01*
X039773Y014019D02*
X040049D01*
Y016381D01*
X035329Y015711D02*
X037691D01*
Y015987D01*
X035329Y015711D02*
Y015987D01*
Y016813D02*
Y017089D01*
X037691Y016813D02*
Y017089D01*
X035329D02*
X037691D01*
X035329Y013661D02*
X037691D01*
Y013937D01*
X035329Y013661D02*
Y013937D01*
Y014763D02*
Y015039D01*
X037691Y014763D02*
Y015039D01*
X035329D02*
X037691D01*
X030521Y013999D02*
Y016361D01*
Y013999D02*
X030797D01*
X030521Y016361D02*
X030797D01*
X031623D02*
X031899D01*
X031623Y013999D02*
X031899D01*
Y016361D01*
X030242Y013999D02*
Y016361D01*
X029967Y013999D02*
X030242D01*
X029967Y016361D02*
X030242D01*
X028864D02*
X02914D01*
X028864Y013999D02*
X02914D01*
X028864D02*
Y016361D01*
X025991Y023583D02*
Y026221D01*
X027093Y023583D02*
Y026221D01*
X025991D02*
X027093D01*
X025991Y023583D02*
X027093D01*
X020612Y046249D02*
X021648D01*
X022112D02*
X023148D01*
X023612D02*
X024348D01*
X025864D02*
Y049871D01*
X016396D02*
X025864D01*
X016396Y046249D02*
Y049871D01*
X025411Y046249D02*
X025864D01*
X019112D02*
X020148D01*
X017612D02*
X018648D01*
X016396D02*
X017148D01*
X01012D02*
X010872D01*
X013136D02*
X013589D01*
X01012D02*
Y049871D01*
X013589D01*
Y046249D02*
Y049871D01*
X011337Y046249D02*
X012073D01*
X013742Y036506D02*
Y037258D01*
Y037722D02*
Y038758D01*
Y039222D02*
Y040258D01*
Y045521D02*
Y045974D01*
X01012Y036506D02*
X013742D01*
X01012D02*
Y045974D01*
X013742D01*
Y043722D02*
Y044458D01*
Y042222D02*
Y043258D01*
Y040722D02*
Y041758D01*
X018199Y023583D02*
Y026221D01*
X019301Y023583D02*
Y026221D01*
X018199D02*
X019301D01*
X018199Y023583D02*
X019301D01*
X013742Y030962D02*
Y031998D01*
Y032462D02*
Y033498D01*
Y033962D02*
Y034699D01*
X01012Y036214D02*
X013742D01*
X01012Y026746D02*
Y036214D01*
Y026746D02*
X013742D01*
Y035761D02*
Y036214D01*
Y029462D02*
Y030498D01*
Y027962D02*
Y028998D01*
Y026746D02*
Y027498D01*
X017099Y020261D02*
X017689Y020851D01*
X015091D02*
X015681Y020261D01*
X015091Y022859D02*
X015898D01*
X016843D02*
X017689D01*
X015091Y020851D02*
Y022859D01*
X017689Y020851D02*
Y022859D01*
X015681Y020261D02*
X015937D01*
X016843D02*
X017099D01*
X014832Y01762D02*
Y02162D01*
X010108D02*
X014832D01*
X010108Y01762D02*
Y02162D01*
Y01762D02*
X014832D01*
X022099Y023583D02*
X023201D01*
X022099Y026221D02*
X023201D01*
Y023583D02*
Y026221D01*
X022099Y023583D02*
Y026221D01*
D15*
X03605Y04499D02*
X03625D01*
X03605Y04444D02*
X03625D01*
X04162Y03635D02*
X04182D01*
X04162Y0358D02*
X04182D01*
X04817Y03326D02*
Y03354D01*
X047644Y03326D02*
Y03355D01*
X043296Y01407D02*
Y01436D01*
X04277Y01408D02*
Y01436D01*
X03297Y01587D02*
Y01607D01*
X03242Y01587D02*
Y01607D01*
X02619Y02051D02*
Y02071D01*
X02674Y02051D02*
Y02071D01*
X02598Y02051D02*
Y02071D01*
X02543Y02051D02*
Y02071D01*
X02413Y02051D02*
Y02071D01*
X02468Y02051D02*
Y02071D01*
X02294Y02051D02*
Y02071D01*
X02349Y02051D02*
Y02071D01*
X02161Y02051D02*
Y02071D01*
X02216Y02051D02*
Y02071D01*
X02297Y03316D02*
X02317D01*
X02297Y03371D02*
X02317D01*
X02425Y03488D02*
X02453D01*
X02424Y034354D02*
X02453D01*
X02425Y03612D02*
X02453D01*
X02424Y035594D02*
X02453D01*
X020144Y03192D02*
Y03221D01*
X02067Y03192D02*
Y0322D01*
X02463Y04569D02*
X02483D01*
X02463Y04514D02*
X02483D01*
X02449Y04368D02*
X02477D01*
X02449Y044206D02*
X02478D01*
X02286Y04514D02*
X02306D01*
X02286Y04569D02*
X02306D01*
X02106Y04568D02*
X02126D01*
X02106Y04513D02*
X02126D01*
X020491Y03985D02*
Y04014D01*
X019965Y03986D02*
Y04014D01*
X01989Y044176D02*
X02018D01*
X01989Y04365D02*
X02017D01*
X01808Y04233D02*
Y04253D01*
X01863Y04233D02*
Y04253D01*
X01481Y04233D02*
Y04253D01*
X01536Y04233D02*
Y04253D01*
X01808Y0388D02*
Y039D01*
X01863Y0388D02*
Y039D01*
X01536Y0388D02*
Y039D01*
X01481Y0388D02*
Y039D01*
X01616Y03563D02*
X01644D01*
X01616Y036156D02*
X01645D01*
X01616Y034876D02*
X01645D01*
X01616Y03435D02*
X01644D01*
X01675Y033044D02*
X01704D01*
X01676Y03357D02*
X01704D01*
X01923Y028266D02*
X01952D01*
X01923Y02774D02*
X01951D01*
X015376Y02885D02*
Y02914D01*
X01485Y02886D02*
Y02914D01*
X01375Y02559D02*
X01395D01*
X01375Y02504D02*
X01395D01*
X01375Y02471D02*
X01395D01*
X01375Y02416D02*
X01395D01*
X01375Y02372D02*
X01395D01*
X01375Y02317D02*
X01395D01*
X01885Y02092D02*
X01913D01*
X01884Y020394D02*
X01913D01*
X01667Y01873D02*
Y01901D01*
X016144Y01873D02*
Y01902D01*
X03579Y028126D02*
X03608D01*
X03579Y0276D02*
X03607D01*
X02362Y0386D02*
X0239D01*
X02362Y039126D02*
X02391D01*
D16*
X03539Y04437D02*
X03691D01*
Y04505D01*
X03539D02*
X03691D01*
X03539Y04437D02*
Y04505D01*
X04096Y03573D02*
X04248D01*
Y03641D01*
X04096D02*
X04248D01*
X04096Y03573D02*
Y03641D01*
X04758Y03263D02*
X04825D01*
X04758D02*
Y03417D01*
X04825D01*
Y03263D02*
Y03417D01*
X04269Y01345D02*
Y01499D01*
Y01345D02*
X04336D01*
Y01499D01*
X04269D02*
X04336D01*
X03235Y01521D02*
Y01673D01*
Y01521D02*
X03303D01*
Y01673D01*
X03235D02*
X03303D01*
X02681Y01985D02*
Y02137D01*
X02613D02*
X02681D01*
X02613Y01985D02*
Y02137D01*
Y01985D02*
X02681D01*
X02537D02*
X02605D01*
X02537D02*
Y02137D01*
X02605D01*
Y01985D02*
Y02137D01*
X02475Y01985D02*
Y02137D01*
X02407D02*
X02475D01*
X02407Y01985D02*
Y02137D01*
Y01985D02*
X02475D01*
X02356D02*
Y02137D01*
X02288D02*
X02356D01*
X02288Y01985D02*
Y02137D01*
Y01985D02*
X02356D01*
X02223D02*
Y02137D01*
X02155D02*
X02223D01*
X02155Y01985D02*
Y02137D01*
Y01985D02*
X02223D01*
X02231Y03309D02*
Y03377D01*
X02383D01*
Y03309D02*
Y03377D01*
X02231Y03309D02*
X02383D01*
X02516Y03429D02*
Y03496D01*
X02362Y03429D02*
X02516D01*
X02362D02*
Y03496D01*
X02516D01*
Y03553D02*
Y0362D01*
X02362Y03553D02*
X02516D01*
X02362D02*
Y0362D01*
X02516D01*
X02075Y03129D02*
Y03283D01*
X02008D02*
X02075D01*
X02008Y03129D02*
Y03283D01*
Y03129D02*
X02075D01*
X02397Y04507D02*
X02549D01*
Y04575D01*
X02397D02*
X02549D01*
X02397Y04507D02*
Y04575D01*
X02386Y0436D02*
Y04427D01*
X0254D01*
Y0436D02*
Y04427D01*
X02386Y0436D02*
X0254D01*
X0222Y04507D02*
Y04575D01*
X02372D01*
Y04507D02*
Y04575D01*
X0222Y04507D02*
X02372D01*
X02192D02*
Y04575D01*
X0204Y04507D02*
X02192D01*
X0204D02*
Y04575D01*
X02192D01*
X019885Y03923D02*
Y04077D01*
Y03923D02*
X020555D01*
Y04077D01*
X019885D02*
X020555D01*
X01926Y04357D02*
X0208D01*
Y04424D01*
X01926D02*
X0208D01*
X01926Y04357D02*
Y04424D01*
X0187Y04167D02*
Y04319D01*
X01802D02*
X0187D01*
X01802Y04167D02*
Y04319D01*
Y04167D02*
X0187D01*
X01474Y04319D02*
X01542D01*
Y04167D02*
Y04319D01*
X01474Y04167D02*
X01542D01*
X01474D02*
Y04319D01*
X0187Y03814D02*
Y03966D01*
X01802D02*
X0187D01*
X01802Y03814D02*
Y03966D01*
Y03814D02*
X0187D01*
X01474D02*
Y03966D01*
Y03814D02*
X01542D01*
Y03966D01*
X01474D02*
X01542D01*
X01553Y03555D02*
Y03622D01*
X01707D01*
Y03555D02*
Y03622D01*
X01553Y03555D02*
X01707D01*
X01553Y03427D02*
X01707D01*
Y03494D01*
X01553D02*
X01707D01*
X01553Y03427D02*
Y03494D01*
X01613Y03365D02*
X01767D01*
X01613Y03298D02*
Y03365D01*
Y03298D02*
X01767D01*
Y03365D01*
X0186Y02766D02*
X02014D01*
Y02833D01*
X0186D02*
X02014D01*
X0186Y02766D02*
Y02833D01*
X01477Y02823D02*
Y02977D01*
Y02823D02*
X01544D01*
Y02977D01*
X01477D02*
X01544D01*
X01309Y02497D02*
X01461D01*
Y02565D01*
X01309D02*
X01461D01*
X01309Y02497D02*
Y02565D01*
Y02409D02*
X01461D01*
Y02477D01*
X01309D02*
X01461D01*
X01309Y02409D02*
Y02477D01*
Y0231D02*
X01461D01*
Y02378D01*
X01309D02*
X01461D01*
X01309Y0231D02*
Y02378D01*
X01976Y02033D02*
Y021D01*
X01822Y02033D02*
X01976D01*
X01822D02*
Y021D01*
X01976D01*
X01668Y012965D02*
X021179D01*
X01668Y016915D02*
X021179D01*
X01668Y012965D02*
Y016915D01*
X021179Y012965D02*
Y016915D01*
X01608Y0181D02*
X01675D01*
X01608D02*
Y01964D01*
X01675D01*
Y0181D02*
Y01964D01*
X03516Y02752D02*
X0367D01*
Y02819D01*
X03516D02*
X0367D01*
X03516Y02752D02*
Y02819D01*
X02299Y03852D02*
Y03919D01*
X02453D01*
Y03852D02*
Y03919D01*
X02299Y03852D02*
X02453D01*
X0327Y013653D02*
Y013396D01*
X032572Y013525D02*
X032829D01*
D17*
X021564Y012656D02*
X027664D01*
Y019156D01*
X026964D02*
X027664D01*
X021564D02*
X026964D01*
X021564Y012656D02*
Y019156D01*
X03118Y02944D02*
X04273D01*
X03118Y01819D02*
Y02944D01*
Y01819D02*
X034518D01*
X04273D02*
Y02944D01*
X039242Y01819D02*
X04273D01*
X034518D02*
X039242D01*
X01184Y022856D02*
X01164D01*
X01174D01*
Y022356D01*
X01164Y022256D01*
X01154D01*
X01144Y022356D01*
X01204Y022256D02*
X01224D01*
X01214D01*
Y022856D01*
X01204Y022756D01*
X03123Y03039D02*
Y02989D01*
X03133Y02979D01*
X03153D01*
X03163Y02989D01*
Y03039D01*
X03223D02*
X03203Y03029D01*
X03183Y03009D01*
Y02989D01*
X03193Y02979D01*
X03213D01*
X03223Y02989D01*
Y02999D01*
X03213Y03009D01*
X03183D01*
X03634Y04349D02*
Y04409D01*
X03664D01*
X03674Y04399D01*
Y04379D01*
X03664Y04369D01*
X03634D01*
X03654D02*
X03674Y04349D01*
X03734D02*
X03694D01*
X03734Y04389D01*
Y04399D01*
X03724Y04409D01*
X03704D01*
X03694Y04399D01*
X03794Y04409D02*
X03754D01*
Y04379D01*
X03774Y04389D01*
X03784D01*
X03794Y04379D01*
Y04359D01*
X03784Y04349D01*
X03764D01*
X03754Y04359D01*
X04114Y03474D02*
Y03534D01*
X04144D01*
X04154Y03524D01*
Y03504D01*
X04144Y03494D01*
X04114D01*
X04134D02*
X04154Y03474D01*
X04214D02*
X04174D01*
X04214Y03514D01*
Y03524D01*
X04204Y03534D01*
X04184D01*
X04174Y03524D01*
X04264Y03474D02*
Y03534D01*
X04234Y03504D01*
X04274D01*
X01985Y01919D02*
Y01869D01*
X01995Y01859D01*
X02015D01*
X02025Y01869D01*
Y01919D01*
X02045Y01909D02*
X02085Y01869D01*
X02045D02*
X02085Y01909D01*
X02045Y01889D02*
X02085D01*
X02065Y01869D02*
Y01909D01*
X02105Y01859D02*
X02125D01*
X02115D01*
Y01919D01*
X02105Y01909D01*
X02167Y02957D02*
Y02897D01*
X02197D01*
X02207Y02907D01*
Y02917D01*
X02197Y02927D01*
X02167D01*
X02197D01*
X02207Y02937D01*
Y02947D01*
X02197Y02957D01*
X02167D01*
X02227Y02897D02*
X02247D01*
X02237D01*
Y02957D01*
X02227Y02947D01*
X02207Y03728D02*
Y03718D01*
X02227Y03698D01*
X02247Y03718D01*
Y03728D01*
X02227Y03698D02*
Y03668D01*
X02307D02*
X02267D01*
X02307Y03708D01*
Y03718D01*
X02297Y03728D01*
X02277D01*
X02267Y03718D01*
X01754Y03733D02*
Y03723D01*
X01774Y03703D01*
X01794Y03723D01*
Y03733D01*
X01774Y03703D02*
Y03673D01*
X01814D02*
X01834D01*
X01824D01*
Y03733D01*
X01814Y03723D01*
X04759Y02373D02*
Y02323D01*
X04769Y02313D01*
X04789D01*
X04799Y02323D01*
Y02373D01*
X04819Y02363D02*
X04829Y02373D01*
X04849D01*
X04859Y02363D01*
Y02353D01*
X04849Y02343D01*
X04859Y02333D01*
Y02323D01*
X04849Y02313D01*
X04829D01*
X04819Y02323D01*
Y02333D01*
X04829Y02343D01*
X04819Y02353D01*
Y02363D01*
X04829Y02343D02*
X04849D01*
X04259Y03452D02*
Y03402D01*
X04269Y03392D01*
X04289D01*
X04299Y03402D01*
Y03452D01*
X04319D02*
X04359D01*
Y03442D01*
X04319Y03402D01*
Y03392D01*
X02154Y03928D02*
Y03878D01*
X02164Y03868D01*
X02184D01*
X02194Y03878D01*
Y03928D01*
X02254D02*
X02214D01*
Y03898D01*
X02234Y03908D01*
X02244D01*
X02254Y03898D01*
Y03878D01*
X02244Y03868D01*
X02224D01*
X02214Y03878D01*
X01639Y02823D02*
Y02773D01*
X01649Y02763D01*
X01669D01*
X01679Y02773D01*
Y02823D01*
X01729Y02763D02*
Y02823D01*
X01699Y02793D01*
X01739D01*
X02102Y02724D02*
Y02674D01*
X02112Y02664D01*
X02132D01*
X02142Y02674D01*
Y02724D01*
X02162Y02714D02*
X02172Y02724D01*
X02192D01*
X02202Y02714D01*
Y02704D01*
X02192Y02694D01*
X02182D01*
X02192D01*
X02202Y02684D01*
Y02674D01*
X02192Y02664D01*
X02172D01*
X02162Y02674D01*
X01712Y02713D02*
Y02663D01*
X01722Y02653D01*
X01742D01*
X01752Y02663D01*
Y02713D01*
X01812Y02653D02*
X01772D01*
X01812Y02693D01*
Y02703D01*
X01802Y02713D01*
X01782D01*
X01772Y02703D01*
X02743Y02658D02*
Y02608D01*
X02753Y02598D01*
X02773D01*
X02783Y02608D01*
Y02658D01*
X02803Y02598D02*
X02823D01*
X02813D01*
Y02658D01*
X02803Y02648D01*
X0129Y02227D02*
Y02287D01*
X0132D01*
X0133Y02277D01*
Y02257D01*
X0132Y02247D01*
X0129D01*
X0131D02*
X0133Y02227D01*
X04083Y0135D02*
X04043D01*
Y0129D01*
X04083D01*
X04043Y0132D02*
X04063D01*
X04103Y0135D02*
X04143Y0129D01*
Y0135D02*
X04103Y0129D01*
X04163Y0135D02*
X04183D01*
X04173D01*
Y0129D01*
X04163D01*
X04183D01*
X04213Y0135D02*
X04253D01*
X04233D01*
Y0129D01*
X03907Y01352D02*
X03887D01*
X03877Y01342D01*
Y01302D01*
X03887Y01292D01*
X03907D01*
X03917Y01302D01*
Y01342D01*
X03907Y01352D01*
X03937D02*
Y01292D01*
Y01312D01*
X03977Y01352D01*
X03947Y01322D01*
X03977Y01292D01*
X03544Y01344D02*
Y01284D01*
X03574D01*
X03584Y01294D01*
Y01334D01*
X03574Y01344D01*
X03544D01*
X03634D02*
X03614D01*
X03604Y01334D01*
Y01294D01*
X03614Y01284D01*
X03634D01*
X03644Y01294D01*
Y01334D01*
X03634Y01344D01*
X03664D02*
Y01284D01*
X03684Y01304D01*
X03704Y01284D01*
Y01344D01*
X03724Y01284D02*
Y01344D01*
X03764Y01284D01*
Y01344D01*
X03613Y01792D02*
Y01742D01*
X03623Y01732D01*
X03643D01*
X03653Y01742D01*
Y01792D01*
X03673Y01732D02*
Y01792D01*
X03703D01*
X03713Y01782D01*
Y01762D01*
X03703Y01752D01*
X03673D01*
X02982Y01293D02*
Y01353D01*
X03012D01*
X03022Y01343D01*
Y01323D01*
X03012Y01313D01*
X02982D01*
X03002D02*
X03022Y01293D01*
X03082Y01353D02*
X03042D01*
Y01293D01*
X03082D01*
X03042Y01323D02*
X03062D01*
X03142Y01343D02*
X03132Y01353D01*
X03112D01*
X03102Y01343D01*
Y01333D01*
X03112Y01323D01*
X03132D01*
X03142Y01313D01*
Y01303D01*
X03132Y01293D01*
X03112D01*
X03102Y01303D01*
X03202Y01353D02*
X03162D01*
Y01293D01*
X03202D01*
X03162Y01323D02*
X03182D01*
X03222Y01353D02*
X03262D01*
X03242D01*
Y01293D01*
X02858Y013371D02*
X02798D01*
X02818Y01357D01*
X02798Y01377D01*
X02858D01*
Y01397D02*
X02798D01*
Y01427D01*
X02808Y01437D01*
X02828D01*
X02838Y01427D01*
Y01397D01*
Y01417D02*
X02858Y01437D01*
X02798Y01497D02*
Y01457D01*
X02858D01*
Y01497D01*
X02828Y01457D02*
Y01477D01*
X02808Y01557D02*
X02798Y01547D01*
Y01527D01*
X02808Y01517D01*
X02818D01*
X02828Y01527D01*
Y01547D01*
X02838Y01557D01*
X02848D01*
X02858Y01547D01*
Y01527D01*
X02848Y01517D01*
X02798Y01617D02*
Y01577D01*
X02858D01*
Y01617D01*
X02828Y01577D02*
Y01597D01*
X02798Y01637D02*
Y016769D01*
Y01657D01*
X02858D01*
X02591Y0216D02*
X02531D01*
Y0219D01*
X02541Y022D01*
X02561D01*
X02571Y0219D01*
Y0216D01*
Y0218D02*
X02591Y022D01*
Y0222D02*
Y0224D01*
Y0223D01*
X02531D01*
X02541Y0222D01*
Y0227D02*
X02531Y0228D01*
Y023D01*
X02541Y0231D01*
X02551D01*
X02561Y023D01*
X02571Y0231D01*
X02581D01*
X02591Y023D01*
Y0228D01*
X02581Y0227D01*
X02571D01*
X02561Y0228D01*
X02551Y0227D01*
X02541D01*
X02561Y0228D02*
Y023D01*
X02479Y0216D02*
X02419D01*
Y0219D01*
X02429Y022D01*
X02449D01*
X02459Y0219D01*
Y0216D01*
Y0218D02*
X02479Y022D01*
Y0222D02*
Y0224D01*
Y0223D01*
X02419D01*
X02429Y0222D01*
X02419Y0227D02*
Y0231D01*
X02429D01*
X02469Y0227D01*
X02479D01*
X02351Y0216D02*
X02291D01*
Y0219D01*
X02301Y022D01*
X02321D01*
X02331Y0219D01*
Y0216D01*
Y0218D02*
X02351Y022D01*
Y0222D02*
Y0224D01*
Y0223D01*
X02291D01*
X02301Y0222D01*
X02291Y0231D02*
X02301Y0229D01*
X02321Y0227D01*
X02341D01*
X02351Y0228D01*
Y023D01*
X02341Y0231D01*
X02331D01*
X02321Y023D01*
Y0227D01*
X02213Y0216D02*
X02153D01*
Y0219D01*
X02163Y022D01*
X02183D01*
X02193Y0219D01*
Y0216D01*
Y0218D02*
X02213Y022D01*
Y0222D02*
Y0224D01*
Y0223D01*
X02153D01*
X02163Y0222D01*
X02153Y0231D02*
Y0227D01*
X02183D01*
X02173Y0229D01*
Y023D01*
X02183Y0231D01*
X02203D01*
X02213Y023D01*
Y0228D01*
X02203Y0227D01*
X02689Y0216D02*
X02629D01*
Y0219D01*
X02639Y022D01*
X02659D01*
X02669Y0219D01*
Y0216D01*
Y0218D02*
X02689Y022D01*
Y0222D02*
Y0224D01*
Y0223D01*
X02629D01*
X02639Y0222D01*
X02689Y023D02*
X02629D01*
X02659Y0227D01*
Y0231D01*
X02398Y04439D02*
Y04499D01*
X02428D01*
X02438Y04489D01*
Y04469D01*
X02428Y04459D01*
X02398D01*
X02418D02*
X02438Y04439D01*
X02458D02*
X02478D01*
X02468D01*
Y04499D01*
X02458Y04489D01*
X02548Y04439D02*
X02508D01*
X02548Y04479D01*
Y04489D01*
X02538Y04499D01*
X02518D01*
X02508Y04489D01*
X02238Y04439D02*
Y04499D01*
X02268D01*
X02278Y04489D01*
Y04469D01*
X02268Y04459D01*
X02238D01*
X02258D02*
X02278Y04439D01*
X02298D02*
X02318D01*
X02308D01*
Y04499D01*
X02298Y04489D01*
X02348Y04439D02*
X02368D01*
X02358D01*
Y04499D01*
X02348Y04489D01*
X02018Y04439D02*
Y04499D01*
X02048D01*
X02058Y04489D01*
Y04469D01*
X02048Y04459D01*
X02018D01*
X02038D02*
X02058Y04439D01*
X02078D02*
X02098D01*
X02088D01*
Y04499D01*
X02078Y04489D01*
X02128D02*
X02138Y04499D01*
X02158D01*
X02168Y04489D01*
Y04449D01*
X02158Y04439D01*
X02138D01*
X02128Y04449D01*
Y04489D01*
X01536Y04049D02*
X01476D01*
Y04079D01*
X01486Y04089D01*
X01506D01*
X01516Y04079D01*
Y04049D01*
Y04069D02*
X01536Y04089D01*
X01526Y04109D02*
X01536Y04119D01*
Y04139D01*
X01526Y04149D01*
X01486D01*
X01476Y04139D01*
Y04119D01*
X01486Y04109D01*
X01496D01*
X01506Y04119D01*
Y04149D01*
X01909Y04189D02*
Y04249D01*
X01939D01*
X01949Y04239D01*
Y04219D01*
X01939Y04209D01*
X01909D01*
X01929D02*
X01949Y04189D01*
X01969Y04239D02*
X01979Y04249D01*
X01999D01*
X02009Y04239D01*
Y04229D01*
X01999Y04219D01*
X02009Y04209D01*
Y04199D01*
X01999Y04189D01*
X01979D01*
X01969Y04199D01*
Y04209D01*
X01979Y04219D01*
X01969Y04229D01*
Y04239D01*
X01979Y04219D02*
X01999D01*
X03224Y01703D02*
Y01763D01*
X03254D01*
X03264Y01753D01*
Y01733D01*
X03254Y01723D01*
X03224D01*
X03244D02*
X03264Y01703D01*
X03324Y01763D02*
X03304Y01753D01*
X03284Y01733D01*
Y01713D01*
X03294Y01703D01*
X03314D01*
X03324Y01713D01*
Y01723D01*
X03314Y01733D01*
X03284D01*
X0225Y03218D02*
Y03278D01*
X0228D01*
X0229Y03268D01*
Y03248D01*
X0228Y03238D01*
X0225D01*
X0227D02*
X0229Y03218D01*
X0235Y03278D02*
X0231D01*
Y03248D01*
X0233Y03258D01*
X0234D01*
X0235Y03248D01*
Y03228D01*
X0234Y03218D01*
X0232D01*
X0231Y03228D01*
X01496Y02416D02*
Y02476D01*
X01526D01*
X01536Y02466D01*
Y02446D01*
X01526Y02436D01*
X01496D01*
X01516D02*
X01536Y02416D01*
X01586D02*
Y02476D01*
X01556Y02446D01*
X01596D01*
X01539Y03684D02*
X01479D01*
Y03714D01*
X01489Y03724D01*
X01509D01*
X01519Y03714D01*
Y03684D01*
Y03704D02*
X01539Y03724D01*
X01489Y03744D02*
X01479Y03754D01*
Y03774D01*
X01489Y03784D01*
X01499D01*
X01509Y03774D01*
Y03764D01*
Y03774D01*
X01519Y03784D01*
X01529D01*
X01539Y03774D01*
Y03754D01*
X01529Y03744D01*
X01902Y03799D02*
Y03859D01*
X01932D01*
X01942Y03849D01*
Y03829D01*
X01932Y03819D01*
X01902D01*
X01922D02*
X01942Y03799D01*
X02002D02*
X01962D01*
X02002Y03839D01*
Y03849D01*
X01992Y03859D01*
X01972D01*
X01962Y03849D01*
X01494Y02506D02*
Y02566D01*
X01524D01*
X01534Y02556D01*
Y02536D01*
X01524Y02526D01*
X01494D01*
X01514D02*
X01534Y02506D01*
X01554D02*
X01574D01*
X01564D01*
Y02566D01*
X01554Y02556D01*
X02578Y03194D02*
Y03234D01*
X02568Y03244D01*
X02548D01*
X02538Y03234D01*
Y03194D01*
X02548Y03184D01*
X02568D01*
X02558Y03204D02*
X02578Y03184D01*
X02568D02*
X02578Y03194D01*
X02598Y03184D02*
X02618D01*
X02608D01*
Y03244D01*
X02598Y03234D01*
X01997Y01723D02*
Y01783D01*
X02027D01*
X02037Y01773D01*
Y01753D01*
X02027Y01743D01*
X01997D01*
X02057Y01783D02*
X02077D01*
X02067D01*
Y01723D01*
X02057D01*
X02077D01*
X02107D02*
X02127D01*
X02117D01*
Y01783D01*
X02107Y01773D01*
X016531Y04585D02*
X01693D01*
Y04575D01*
X016531Y04535D01*
Y04525D01*
X01693D01*
X01713Y04515D02*
X01753D01*
X01773Y04525D02*
Y04565D01*
X01793Y04585D01*
X01813Y04565D01*
Y04525D01*
Y04555D01*
X01773D01*
X01833Y04585D02*
X01873Y04525D01*
Y04585D02*
X01833Y04525D01*
X01893Y04585D02*
X01913D01*
X01903D01*
Y04525D01*
X01893D01*
X01913D01*
X019829Y04575D02*
X019729Y04585D01*
X01953D01*
X01943Y04575D01*
Y04565D01*
X01953Y04555D01*
X019729D01*
X019829Y04545D01*
Y04535D01*
X019729Y04525D01*
X01953D01*
X01943Y04535D01*
X01406Y04706D02*
X01466D01*
Y04736D01*
X01456Y04746D01*
X01416D01*
X01406Y04736D01*
Y04706D01*
X01466Y04766D02*
X01406D01*
Y04796D01*
X01416Y04806D01*
X01436D01*
X01446Y04796D01*
Y04766D01*
Y04786D02*
X01466Y04806D01*
X01406Y04826D02*
Y04846D01*
Y04836D01*
X01466D01*
Y04826D01*
Y04846D01*
X01406Y04876D02*
X01466D01*
Y04916D01*
X01406Y04936D02*
X01466D01*
Y04976D01*
X01407Y029261D02*
X01467Y02966D01*
X01407D02*
X01467Y029261D01*
X01477Y02986D02*
Y03026D01*
X01467Y03046D02*
X01427D01*
X01407Y03066D01*
X01427Y03086D01*
X01467D01*
X01437D01*
Y03046D01*
X01407Y03106D02*
X01467Y03146D01*
X01407D02*
X01467Y03106D01*
X01407Y03166D02*
Y03186D01*
Y03176D01*
X01467D01*
Y03166D01*
Y03186D01*
X01417Y032559D02*
X01407Y032459D01*
Y03226D01*
X01417Y03216D01*
X01427D01*
X01437Y03226D01*
Y032459D01*
X01447Y032559D01*
X01457D01*
X01467Y032459D01*
Y03226D01*
X01457Y03216D01*
X01405Y042591D02*
X01415D01*
X01435Y04279D01*
X01415Y04299D01*
X01405D01*
X01435Y04279D02*
X01465D01*
X01475Y04319D02*
Y04359D01*
X01465Y04379D02*
X01425D01*
X01405Y04399D01*
X01425Y04419D01*
X01465D01*
X01435D01*
Y04379D01*
X01405Y04439D02*
X01465Y04479D01*
X01405D02*
X01465Y04439D01*
X01405Y04499D02*
Y04519D01*
Y04509D01*
X01465D01*
Y04499D01*
Y04519D01*
X01415Y045889D02*
X01405Y045789D01*
Y04559D01*
X01415Y04549D01*
X01425D01*
X01435Y04559D01*
Y045789D01*
X01445Y045889D01*
X01455D01*
X01465Y045789D01*
Y04559D01*
X01455Y04549D01*
X026161Y04604D02*
Y04544D01*
Y04574D01*
X02656D01*
Y04604D01*
Y04544D01*
X02706Y04604D02*
X02686D01*
X02676Y04594D01*
Y04554D01*
X02686Y04544D01*
X02706D01*
X02716Y04554D01*
Y04594D01*
X02706Y04604D01*
X02736Y04544D02*
Y04604D01*
X02756Y04584D01*
X02776Y04604D01*
Y04544D01*
X02836Y04604D02*
X02796D01*
Y04544D01*
X02836D01*
X02796Y04574D02*
X02816D01*
X02856Y04534D02*
X02896D01*
X02916Y04604D02*
X029559D01*
Y04594D01*
X02916Y04554D01*
Y04544D01*
X029559D01*
X030091Y04608D02*
Y04548D01*
Y04578D01*
X03049D01*
Y04608D01*
Y04548D01*
X03099Y04608D02*
X03079D01*
X03069Y04598D01*
Y04558D01*
X03079Y04548D01*
X03099D01*
X03109Y04558D01*
Y04598D01*
X03099Y04608D01*
X03129Y04548D02*
Y04608D01*
X03149Y04588D01*
X03169Y04608D01*
Y04548D01*
X03229Y04608D02*
X03189D01*
Y04548D01*
X03229D01*
X03189Y04578D02*
X03209D01*
X03249Y04538D02*
X03289D01*
X03309Y04608D02*
Y04598D01*
X03329Y04578D01*
X033489Y04598D01*
Y04608D01*
X03329Y04578D02*
Y04548D01*
X034051Y04604D02*
Y04544D01*
Y04574D01*
X03445D01*
Y04604D01*
Y04544D01*
X03495Y04604D02*
X03475D01*
X03465Y04594D01*
Y04554D01*
X03475Y04544D01*
X03495D01*
X03505Y04554D01*
Y04594D01*
X03495Y04604D01*
X03525Y04544D02*
Y04604D01*
X03545Y04584D01*
X03565Y04604D01*
Y04544D01*
X03625Y04604D02*
X03585D01*
Y04544D01*
X03625D01*
X03585Y04574D02*
X03605D01*
X03645Y04534D02*
X03685D01*
X03705Y04604D02*
X037449Y04544D01*
Y04604D02*
X03705Y04544D01*
X01547Y04345D02*
X01487D01*
Y04375D01*
X01497Y04385D01*
X01517D01*
X01527Y04375D01*
Y04345D01*
X01497Y04405D02*
X01487Y04415D01*
Y04435D01*
X01497Y04445D01*
X01507D01*
X01517Y04435D01*
X01527Y04445D01*
X01537D01*
X01547Y04435D01*
Y04415D01*
X01537Y04405D01*
X01527D01*
X01517Y04415D01*
X01507Y04405D01*
X01497D01*
X01517Y04415D02*
Y04435D01*
X0181Y04355D02*
Y04415D01*
X0184D01*
X0185Y04405D01*
Y04385D01*
X0184Y04375D01*
X0181D01*
X0187Y04415D02*
X0191D01*
Y04405D01*
X0187Y04365D01*
Y04355D01*
X01047Y01285D02*
Y01345D01*
X01077D01*
X01087Y01335D01*
Y01315D01*
X01077Y01305D01*
X01047D01*
X01147Y01345D02*
X01127Y01335D01*
X01107Y01315D01*
Y01295D01*
X01117Y01285D01*
X01137D01*
X01147Y01295D01*
Y01305D01*
X01137Y01315D01*
X01107D01*
X01575Y03704D02*
Y03764D01*
X01605D01*
X01615Y03754D01*
Y03734D01*
X01605Y03724D01*
X01575D01*
X01675Y03764D02*
X01635D01*
Y03734D01*
X01655Y03744D01*
X01665D01*
X01675Y03734D01*
Y03714D01*
X01665Y03704D01*
X01645D01*
X01635Y03714D01*
X01804Y04014D02*
Y04074D01*
X01834D01*
X01844Y04064D01*
Y04044D01*
X01834Y04034D01*
X01804D01*
X01894Y04014D02*
Y04074D01*
X01864Y04044D01*
X01904D01*
X01059Y01598D02*
Y01658D01*
X01089D01*
X01099Y01648D01*
Y01628D01*
X01089Y01618D01*
X01059D01*
X01119Y01648D02*
X01129Y01658D01*
X01149D01*
X01159Y01648D01*
Y01638D01*
X01149Y01628D01*
X01139D01*
X01149D01*
X01159Y01618D01*
Y01608D01*
X01149Y01598D01*
X01129D01*
X01119Y01608D01*
X01508Y01283D02*
Y01343D01*
X01538D01*
X01548Y01333D01*
Y01313D01*
X01538Y01303D01*
X01508D01*
X01608Y01283D02*
X01568D01*
X01608Y01323D01*
Y01333D01*
X01598Y01343D01*
X01578D01*
X01568Y01333D01*
X01012Y02201D02*
Y02261D01*
X01042D01*
X01052Y02251D01*
Y02231D01*
X01042Y02221D01*
X01012D01*
X01072Y02201D02*
X01092D01*
X01082D01*
Y02261D01*
X01072Y02251D01*
X03009Y04269D02*
X03069D01*
Y04299D01*
X03059Y04309D01*
X03019D01*
X03009Y04299D01*
Y04269D01*
X03069Y04329D02*
Y04349D01*
Y04339D01*
X03009D01*
X03019Y04329D01*
X03009Y04379D02*
Y04419D01*
X03019D01*
X03059Y04379D01*
X03069D01*
X03425Y04281D02*
X03485D01*
Y04311D01*
X03475Y04321D01*
X03435D01*
X03425Y04311D01*
Y04281D01*
X03485Y04341D02*
Y04361D01*
Y04351D01*
X03425D01*
X03435Y04341D01*
X03425Y04431D02*
X03435Y04411D01*
X03455Y04391D01*
X03475D01*
X03485Y04401D01*
Y04421D01*
X03475Y04431D01*
X03465D01*
X03455Y04421D01*
Y04391D01*
X03206Y04275D02*
X03266D01*
Y04305D01*
X03256Y04315D01*
X03216D01*
X03206Y04305D01*
Y04275D01*
X03266Y04335D02*
Y04355D01*
Y04345D01*
X03206D01*
X03216Y04335D01*
X03206Y04425D02*
Y04385D01*
X03236D01*
X03226Y04405D01*
Y04415D01*
X03236Y04425D01*
X03256D01*
X03266Y04415D01*
Y04395D01*
X03256Y04385D01*
X02804Y04284D02*
X02864D01*
Y04314D01*
X02854Y04324D01*
X02814D01*
X02804Y04314D01*
Y04284D01*
X02864Y04344D02*
Y04364D01*
Y04354D01*
X02804D01*
X02814Y04344D01*
X02864Y04424D02*
X02804D01*
X02834Y04394D01*
Y04434D01*
X02866Y04193D02*
Y04133D01*
X02896D01*
X02906Y04143D01*
Y04183D01*
X02896Y04193D01*
X02866D01*
X02926Y04133D02*
X02946D01*
X02936D01*
Y04193D01*
X02926Y04183D01*
X02976D02*
X02986Y04193D01*
X03006D01*
X03016Y04183D01*
Y04173D01*
X03006Y04163D01*
X02996D01*
X03006D01*
X03016Y04153D01*
Y04143D01*
X03006Y04133D01*
X02986D01*
X02976Y04143D01*
X03254Y04193D02*
Y04133D01*
X03284D01*
X03294Y04143D01*
Y04183D01*
X03284Y04193D01*
X03254D01*
X03314Y04133D02*
X03334D01*
X03324D01*
Y04193D01*
X03314Y04183D01*
X03404Y04133D02*
X03364D01*
X03404Y04173D01*
Y04183D01*
X03394Y04193D01*
X03374D01*
X03364Y04183D01*
X03072Y04193D02*
Y04133D01*
X03102D01*
X03112Y04143D01*
Y04183D01*
X03102Y04193D01*
X03072D01*
X03132Y04133D02*
X03152D01*
X03142D01*
Y04193D01*
X03132Y04183D01*
X03182Y04133D02*
X03202D01*
X03192D01*
Y04193D01*
X03182Y04183D01*
X02565Y0392D02*
X02625D01*
Y0395D01*
X02615Y0396D01*
X02575D01*
X02565Y0395D01*
Y0392D01*
X02625Y0398D02*
Y04D01*
Y0399D01*
X02565D01*
X02575Y0398D01*
Y0403D02*
X02565Y0404D01*
Y0406D01*
X02575Y0407D01*
X02615D01*
X02625Y0406D01*
Y0404D01*
X02615Y0403D01*
X02575D01*
X03439Y03422D02*
Y03362D01*
X03469D01*
X03479Y03372D01*
Y03412D01*
X03469Y03422D01*
X03439D01*
X03499Y03372D02*
X03509Y03362D01*
X03529D01*
X03539Y03372D01*
Y03412D01*
X03529Y03422D01*
X03509D01*
X03499Y03412D01*
Y03402D01*
X03509Y03392D01*
X03539D01*
X03439Y03597D02*
Y03537D01*
X03469D01*
X03479Y03547D01*
Y03587D01*
X03469Y03597D01*
X03439D01*
X03499Y03587D02*
X03509Y03597D01*
X03529D01*
X03539Y03587D01*
Y03577D01*
X03529Y03567D01*
X03539Y03557D01*
Y03547D01*
X03529Y03537D01*
X03509D01*
X03499Y03547D01*
Y03557D01*
X03509Y03567D01*
X03499Y03577D01*
Y03587D01*
X03509Y03567D02*
X03529D01*
X03439Y03779D02*
Y03719D01*
X03469D01*
X03479Y03729D01*
Y03769D01*
X03469Y03779D01*
X03439D01*
X03499D02*
X03539D01*
Y03769D01*
X03499Y03729D01*
Y03719D01*
X03439Y03248D02*
Y03188D01*
X03469D01*
X03479Y03198D01*
Y03238D01*
X03469Y03248D01*
X03439D01*
X03539D02*
X03519Y03238D01*
X03499Y03218D01*
Y03198D01*
X03509Y03188D01*
X03529D01*
X03539Y03198D01*
Y03208D01*
X03529Y03218D01*
X03499D01*
X03Y03422D02*
Y03362D01*
X0303D01*
X0304Y03372D01*
Y03412D01*
X0303Y03422D01*
X03D01*
X031D02*
X0306D01*
Y03392D01*
X0308Y03402D01*
X0309D01*
X031Y03392D01*
Y03372D01*
X0309Y03362D01*
X0307D01*
X0306Y03372D01*
X03Y03592D02*
Y03532D01*
X0303D01*
X0304Y03542D01*
Y03582D01*
X0303Y03592D01*
X03D01*
X0309Y03532D02*
Y03592D01*
X0306Y03562D01*
X031D01*
X03Y0378D02*
Y0372D01*
X0303D01*
X0304Y0373D01*
Y0377D01*
X0303Y0378D01*
X03D01*
X0306Y0377D02*
X0307Y0378D01*
X0309D01*
X031Y0377D01*
Y0376D01*
X0309Y0375D01*
X0308D01*
X0309D01*
X031Y0374D01*
Y0373D01*
X0309Y0372D01*
X0307D01*
X0306Y0373D01*
X03Y03241D02*
Y03181D01*
X0303D01*
X0304Y03191D01*
Y03231D01*
X0303Y03241D01*
X03D01*
X031Y03181D02*
X0306D01*
X031Y03221D01*
Y03231D01*
X0309Y03241D01*
X0307D01*
X0306Y03231D01*
X03333Y01457D02*
Y01397D01*
X03363D01*
X03373Y01407D01*
Y01447D01*
X03363Y01457D01*
X03333D01*
X03393Y01397D02*
X03413D01*
X03403D01*
Y01457D01*
X03393Y01447D01*
X03788Y04942D02*
X03778Y04952D01*
X03758D01*
X03748Y04942D01*
Y04902D01*
X03758Y04892D01*
X03778D01*
X03788Y04902D01*
X03808Y04892D02*
Y04952D01*
X03838D01*
X03848Y04942D01*
Y04922D01*
X03838Y04912D01*
X03808D01*
X03828D02*
X03848Y04892D01*
X039079D02*
X03868D01*
X039079Y04932D01*
Y04942D01*
X03898Y04952D01*
X03878D01*
X03868Y04942D01*
X04706Y04449D02*
X04696Y04459D01*
X04676D01*
X04666Y04449D01*
Y04409D01*
X04676Y04399D01*
X04696D01*
X04706Y04409D01*
X04726Y04399D02*
Y04459D01*
X04756D01*
X04766Y04449D01*
Y04429D01*
X04756Y04419D01*
X04726D01*
X04746D02*
X04766Y04399D01*
X04786D02*
X04806D01*
X04796D01*
Y04459D01*
X04786Y04449D01*
X048Y03501D02*
X0479Y03511D01*
X0477D01*
X0476Y03501D01*
Y03461D01*
X0477Y03451D01*
X0479D01*
X048Y03461D01*
X0482Y03501D02*
X0483Y03511D01*
X0485D01*
X0486Y03501D01*
Y03491D01*
X0485Y03481D01*
X0484D01*
X0485D01*
X0486Y03471D01*
Y03461D01*
X0485Y03451D01*
X0483D01*
X0482Y03461D01*
X0491Y03451D02*
Y03511D01*
X0488Y03481D01*
X0492D01*
X03858Y03131D02*
X03848Y03141D01*
X03828D01*
X03818Y03131D01*
Y03091D01*
X03828Y03081D01*
X03848D01*
X03858Y03091D01*
X03878Y03131D02*
X03888Y03141D01*
X03908D01*
X03918Y03131D01*
Y03121D01*
X03908Y03111D01*
X03898D01*
X03908D01*
X03918Y03101D01*
Y03091D01*
X03908Y03081D01*
X03888D01*
X03878Y03091D01*
X03938Y03131D02*
X03948Y03141D01*
X03968D01*
X03978Y03131D01*
Y03121D01*
X03968Y03111D01*
X03958D01*
X03968D01*
X03978Y03101D01*
Y03091D01*
X03968Y03081D01*
X03948D01*
X03938Y03091D01*
X0384Y04047D02*
X0383Y04057D01*
X0381D01*
X038Y04047D01*
Y04007D01*
X0381Y03997D01*
X0383D01*
X0384Y04007D01*
X0386Y04047D02*
X0387Y04057D01*
X0389D01*
X039Y04047D01*
Y04037D01*
X0389Y04027D01*
X0388D01*
X0389D01*
X039Y04017D01*
Y04007D01*
X0389Y03997D01*
X0387D01*
X0386Y04007D01*
X0396Y03997D02*
X0392D01*
X0396Y04037D01*
Y04047D01*
X0395Y04057D01*
X0393D01*
X0392Y04047D01*
X04299Y01582D02*
X04289Y01592D01*
X04269D01*
X04259Y01582D01*
Y01542D01*
X04269Y01532D01*
X04289D01*
X04299Y01542D01*
X04319Y01582D02*
X04329Y01592D01*
X04349D01*
X04359Y01582D01*
Y01572D01*
X04349Y01562D01*
X04339D01*
X04349D01*
X04359Y01552D01*
Y01542D01*
X04349Y01532D01*
X04329D01*
X04319Y01542D01*
X04379Y01532D02*
X04399D01*
X04389D01*
Y01592D01*
X04379Y01582D01*
X03641Y03743D02*
X03631Y03753D01*
X03611D01*
X03601Y03743D01*
Y03703D01*
X03611Y03693D01*
X03631D01*
X03641Y03703D01*
X03661Y03743D02*
X03671Y03753D01*
X03691D01*
X03701Y03743D01*
Y03733D01*
X03691Y03723D01*
X03681D01*
X03691D01*
X03701Y03713D01*
Y03703D01*
X03691Y03693D01*
X03671D01*
X03661Y03703D01*
X03721Y03743D02*
X03731Y03753D01*
X03751D01*
X03761Y03743D01*
Y03703D01*
X03751Y03693D01*
X03731D01*
X03721Y03703D01*
Y03743D01*
X03844Y03609D02*
X03834Y03619D01*
X03814D01*
X03804Y03609D01*
Y03569D01*
X03814Y03559D01*
X03834D01*
X03844Y03569D01*
X03904Y03559D02*
X03864D01*
X03904Y03599D01*
Y03609D01*
X03894Y03619D01*
X03874D01*
X03864Y03609D01*
X03924Y03569D02*
X03934Y03559D01*
X03954D01*
X03964Y03569D01*
Y03609D01*
X03954Y03619D01*
X03934D01*
X03924Y03609D01*
Y03599D01*
X03934Y03589D01*
X03964D01*
X03564Y02902D02*
X03554Y02912D01*
X03534D01*
X03524Y02902D01*
Y02862D01*
X03534Y02852D01*
X03554D01*
X03564Y02862D01*
X03624Y02852D02*
X03584D01*
X03624Y02892D01*
Y02902D01*
X03614Y02912D01*
X03594D01*
X03584Y02902D01*
X03644D02*
X03654Y02912D01*
X03674D01*
X036839Y02902D01*
Y02892D01*
X03674Y02882D01*
X03664D01*
X03674D01*
X036839Y02872D01*
Y02862D01*
X03674Y02852D01*
X03654D01*
X03644Y02862D01*
X02346Y04002D02*
X02336Y04012D01*
X02316D01*
X02306Y04002D01*
Y03962D01*
X02316Y03952D01*
X02336D01*
X02346Y03962D01*
X02406Y03952D02*
X02366D01*
X02406Y03992D01*
Y04002D01*
X02396Y04012D01*
X02376D01*
X02366Y04002D01*
X02426Y03952D02*
X02446D01*
X02436D01*
Y04012D01*
X02426Y04002D01*
X01939Y04149D02*
X01929Y04159D01*
X01909D01*
X01899Y04149D01*
Y04109D01*
X01909Y04099D01*
X01929D01*
X01939Y04109D01*
X01999Y04099D02*
X01959D01*
X01999Y04139D01*
Y04149D01*
X01989Y04159D01*
X01969D01*
X01959Y04149D01*
X02019D02*
X02029Y04159D01*
X02049D01*
X02059Y04149D01*
Y04109D01*
X02049Y04099D01*
X02029D01*
X02019Y04109D01*
Y04149D01*
X01973Y04331D02*
X01963Y04341D01*
X01943D01*
X01933Y04331D01*
Y04291D01*
X01943Y04281D01*
X01963D01*
X01973Y04291D01*
X01993Y04281D02*
X02013D01*
X02003D01*
Y04341D01*
X01993Y04331D01*
X02043Y04291D02*
X02053Y04281D01*
X02073D01*
X02083Y04291D01*
Y04331D01*
X02073Y04341D01*
X02053D01*
X02043Y04331D01*
Y04321D01*
X02053Y04311D01*
X02083D01*
X02401Y03703D02*
X02391Y03713D01*
X02371D01*
X02361Y03703D01*
Y03663D01*
X02371Y03653D01*
X02391D01*
X02401Y03663D01*
X02421Y03653D02*
X02441D01*
X02431D01*
Y03713D01*
X02421Y03703D01*
X02511Y03713D02*
X02471D01*
Y03683D01*
X02491Y03693D01*
X02501D01*
X02511Y03683D01*
Y03663D01*
X02501Y03653D01*
X02481D01*
X02471Y03663D01*
X02556Y03432D02*
X02546Y03422D01*
Y03402D01*
X02556Y03392D01*
X02596D01*
X02606Y03402D01*
Y03422D01*
X02596Y03432D01*
X02606Y03452D02*
Y03472D01*
Y03462D01*
X02546D01*
X02556Y03452D01*
Y03502D02*
X02546Y03512D01*
Y03532D01*
X02556Y03542D01*
X02566D01*
X02576Y03532D01*
Y03522D01*
Y03532D01*
X02586Y03542D01*
X02596D01*
X02606Y03532D01*
Y03512D01*
X02596Y03502D01*
X01444Y03479D02*
X01434Y03489D01*
X01414D01*
X01404Y03479D01*
Y03439D01*
X01414Y03429D01*
X01434D01*
X01444Y03439D01*
X01464Y03429D02*
X01484D01*
X01474D01*
Y03489D01*
X01464Y03479D01*
X01514Y03429D02*
X01534D01*
X01524D01*
Y03489D01*
X01514Y03479D01*
X01483Y03346D02*
X01473Y03356D01*
X01453D01*
X01443Y03346D01*
Y03306D01*
X01453Y03296D01*
X01473D01*
X01483Y03306D01*
X01503Y03296D02*
X01523D01*
X01513D01*
Y03356D01*
X01503Y03346D01*
X01553D02*
X01563Y03356D01*
X01583D01*
X01593Y03346D01*
Y03306D01*
X01583Y03296D01*
X01563D01*
X01553Y03306D01*
Y03346D01*
X01577Y02893D02*
X01567Y02883D01*
Y02863D01*
X01577Y02853D01*
X01617D01*
X01627Y02863D01*
Y02883D01*
X01617Y02893D01*
Y02913D02*
X01627Y02923D01*
Y02943D01*
X01617Y02953D01*
X01577D01*
X01567Y02943D01*
Y02923D01*
X01577Y02913D01*
X01587D01*
X01597Y02923D01*
Y02953D01*
X01942Y02736D02*
X01932Y02746D01*
X01912D01*
X01902Y02736D01*
Y02696D01*
X01912Y02686D01*
X01932D01*
X01942Y02696D01*
X01962Y02736D02*
X01972Y02746D01*
X01992D01*
X02002Y02736D01*
Y02726D01*
X01992Y02716D01*
X02002Y02706D01*
Y02696D01*
X01992Y02686D01*
X01972D01*
X01962Y02696D01*
Y02706D01*
X01972Y02716D01*
X01962Y02726D01*
Y02736D01*
X01972Y02716D02*
X01992D01*
X01467Y03607D02*
X01457Y03617D01*
X01437D01*
X01427Y03607D01*
Y03567D01*
X01437Y03557D01*
X01457D01*
X01467Y03567D01*
X01487Y03617D02*
X01527D01*
Y03607D01*
X01487Y03567D01*
Y03557D01*
X02521Y04326D02*
X02511Y04336D01*
X02491D01*
X02481Y04326D01*
Y04286D01*
X02491Y04276D01*
X02511D01*
X02521Y04286D01*
X02581Y04336D02*
X02541D01*
Y04306D01*
X02561Y04316D01*
X02571D01*
X02581Y04306D01*
Y04286D01*
X02571Y04276D01*
X02551D01*
X02541Y04286D01*
X02055Y03363D02*
X02045Y03373D01*
X02025D01*
X02015Y03363D01*
Y03323D01*
X02025Y03313D01*
X02045D01*
X02055Y03323D01*
X02105Y03313D02*
Y03373D01*
X02075Y03343D01*
X02115D01*
X01884Y02183D02*
X01874Y02193D01*
X01854D01*
X01844Y02183D01*
Y02143D01*
X01854Y02133D01*
X01874D01*
X01884Y02143D01*
X01904Y02183D02*
X01914Y02193D01*
X01934D01*
X01944Y02183D01*
Y02173D01*
X01934Y02163D01*
X01924D01*
X01934D01*
X01944Y02153D01*
Y02143D01*
X01934Y02133D01*
X01914D01*
X01904Y02143D01*
X0161Y01776D02*
X016Y01786D01*
X0158D01*
X0157Y01776D01*
Y01736D01*
X0158Y01726D01*
X016D01*
X0161Y01736D01*
X0167Y01726D02*
X0163D01*
X0167Y01766D01*
Y01776D01*
X0166Y01786D01*
X0164D01*
X0163Y01776D01*
X01557Y02379D02*
X01547Y02389D01*
X01527D01*
X01517Y02379D01*
Y02339D01*
X01527Y02329D01*
X01547D01*
X01557Y02339D01*
X01577Y02329D02*
X01597D01*
X01587D01*
Y02389D01*
X01577Y02379D01*
D18*
X01654Y04138D02*
Y04438D01*
X01554Y04138D02*
X01654D01*
X01554D02*
Y04438D01*
X01654D01*
X01555Y04233D02*
X01654D01*
X01684Y04138D02*
Y04438D01*
Y04343D02*
X01783D01*
X01684Y04138D02*
X01784D01*
X01684Y04438D02*
X01784D01*
Y04138D02*
Y04438D01*
X01684Y03991D02*
X01783D01*
X01684Y03786D02*
X01784D01*
Y04086D01*
X01684D02*
X01784D01*
X01684Y03786D02*
Y04086D01*
X01555Y03881D02*
X01654D01*
X01554Y04086D02*
X01654D01*
X01554Y03786D02*
Y04086D01*
Y03786D02*
X01654D01*
Y04086D01*
X0155Y01468D02*
X01649D01*
X0155Y01363D02*
X0165D01*
Y01563D01*
X0155D02*
X0165D01*
X0155Y01363D02*
Y01563D01*
X0105Y01576D02*
X0145D01*
Y01476D02*
Y01576D01*
X0105Y01476D02*
X0145D01*
X0105D02*
Y01576D01*
X01355Y01477D02*
Y01576D01*
X0105Y01463D02*
X0145D01*
Y01363D02*
Y01463D01*
X0105Y01363D02*
X0145D01*
X0105D02*
Y01463D01*
X01355Y01364D02*
Y01463D01*
D19*
X043935Y034582D02*
X044268Y034248D01*
X043935D02*
X044268Y034582D01*
X043935Y034415D02*
X044268D01*
X044102Y034248D02*
Y034582D01*
X047185Y013048D02*
X046852Y013382D01*
X047185D02*
X046852Y013048D01*
X047185Y013215D02*
X046852D01*
X047018Y013382D02*
Y013048D01*
X020848Y03954D02*
X021182Y039873D01*
Y03954D02*
X020848Y039873D01*
X021015Y03954D02*
Y039873D01*
X021182Y039707D02*
X020848D01*
X019807Y03253D02*
X019473Y032197D01*
Y03253D02*
X019807Y032197D01*
X01964Y03253D02*
Y032197D01*
X019473Y032363D02*
X019807D01*
D20*
X024128Y02747D02*
Y02822D01*
X023753Y027845D02*
X024503D01*
M02*
