G04*
G04 #@! TF.GenerationSoftware,Altium Limited,Altium Designer,21.2.1 (34)*
G04*
G04 Layer_Color=32896*
%FSTAX24Y24*%
%MOIN*%
G70*
G04*
G04 #@! TF.SameCoordinates,1AE62F94-6DB7-4B32-8B40-2354E624DE5A*
G04*
G04*
G04 #@! TF.FilePolarity,Positive*
G04*
G01*
G75*
%ADD10C,0.0200*%
%ADD15C,0.0040*%
%ADD16C,0.0050*%
%ADD17C,0.0100*%
D10*
X01228Y027051D02*
G03*
X01228Y027051I-00015J0D01*
G01*
D15*
X04165Y04334D02*
X04185D01*
X04165Y04279D02*
X04185D01*
X04515Y04594D02*
X04535D01*
X04515Y04539D02*
X04535D01*
X041676Y01508D02*
Y01537D01*
X04115Y01508D02*
Y01536D01*
X039616Y01508D02*
Y01537D01*
X03909Y01508D02*
Y01536D01*
X03067Y017D02*
X03087D01*
X03067Y01645D02*
X03087D01*
X029D02*
X0292D01*
X029Y017D02*
X0292D01*
X029826Y01516D02*
Y01545D01*
X0293Y01516D02*
Y01544D01*
X03096Y01516D02*
Y01544D01*
X031486Y01516D02*
Y01545D01*
X01131Y013486D02*
X0116D01*
X01132Y01296D02*
X0116D01*
X010744Y01662D02*
Y01691D01*
X01127Y01663D02*
Y01691D01*
X04087Y01718D02*
X04107D01*
X04087Y01663D02*
X04107D01*
X03879D02*
X03899D01*
X03879Y01718D02*
X03899D01*
X02802Y04791D02*
X0283D01*
X02802Y047384D02*
X02831D01*
X03176Y04791D02*
X03204D01*
X03176Y047384D02*
X03205D01*
X03551Y04791D02*
X03579D01*
X03551Y047384D02*
X0358D01*
X03393Y01666D02*
X03413D01*
X03393Y01611D02*
X03413D01*
X03393Y01463D02*
X03413D01*
X03393Y01408D02*
X03413D01*
X02349Y015886D02*
X02378D01*
X0235Y01536D02*
X02378D01*
X03633Y014626D02*
X03662D01*
X03634Y0141D02*
X03662D01*
X03633Y016666D02*
X03662D01*
X03634Y01614D02*
X03662D01*
D16*
X04099Y04273D02*
Y04341D01*
Y04273D02*
X04251D01*
Y04341D01*
X04099D02*
X04251D01*
X04449Y04533D02*
Y04601D01*
Y04533D02*
X04601D01*
Y04601D01*
X04449D02*
X04601D01*
X04107Y01445D02*
Y01599D01*
X04174D01*
Y01445D02*
Y01599D01*
X04107Y01445D02*
X04174D01*
X03901D02*
Y01599D01*
X03968D01*
Y01445D02*
Y01599D01*
X03901Y01445D02*
X03968D01*
X03001Y01638D02*
X03153D01*
X03001D02*
Y01706D01*
X03153D01*
Y01638D02*
Y01706D01*
X02986Y01638D02*
Y01706D01*
X02834D02*
X02986D01*
X02834Y01638D02*
Y01706D01*
Y01638D02*
X02986D01*
X02922Y01453D02*
Y01607D01*
X02989D01*
Y01453D02*
Y01607D01*
X02922Y01453D02*
X02989D01*
X03088D02*
X03155D01*
Y01607D01*
X03088D02*
X03155D01*
X03088Y01453D02*
Y01607D01*
X01069Y01288D02*
X01223D01*
X01069D02*
Y01355D01*
X01223D01*
Y01288D02*
Y01355D01*
X01135Y016D02*
Y01754D01*
X01068Y016D02*
X01135D01*
X01068D02*
Y01754D01*
X01135D01*
X04021Y01656D02*
X04173D01*
X04021D02*
Y01724D01*
X04173D01*
Y01656D02*
Y01724D01*
X03965Y01656D02*
Y01724D01*
X03813D02*
X03965D01*
X03813Y01656D02*
Y01724D01*
Y01656D02*
X03965D01*
X02739Y04732D02*
Y04799D01*
Y04732D02*
X02893D01*
Y04799D01*
X02739D02*
X02893D01*
X03113Y04732D02*
Y04799D01*
Y04732D02*
X03267D01*
Y04799D01*
X03113D02*
X03267D01*
X03488Y04732D02*
Y04799D01*
Y04732D02*
X03642D01*
Y04799D01*
X03488D02*
X03642D01*
X03327Y01604D02*
X03479D01*
X03327D02*
Y01672D01*
X03479D01*
Y01604D02*
Y01672D01*
X03327Y01401D02*
X03479D01*
X03327D02*
Y01469D01*
X03479D01*
Y01401D02*
Y01469D01*
X02287Y01528D02*
X02441D01*
X02287D02*
Y01595D01*
X02441D01*
Y01528D02*
Y01595D01*
X03571Y01402D02*
X03725D01*
X03571D02*
Y01469D01*
X03725D01*
Y01402D02*
Y01469D01*
X03571Y01606D02*
X03725D01*
X03571D02*
Y01673D01*
X03725D01*
Y01606D02*
Y01673D01*
D17*
X01361Y01339D02*
X01371Y01349D01*
X01391D01*
X01401Y01339D01*
Y01299D01*
X01391Y01289D01*
X01371D01*
X01361Y01299D01*
X01341Y01289D02*
X01321D01*
X01331D01*
Y01349D01*
X01341Y01339D01*
X01261Y01289D02*
Y01349D01*
X01291Y01319D01*
X01251D01*
X01231Y01732D02*
X01241Y01742D01*
X01261D01*
X01271Y01732D01*
Y01692D01*
X01261Y01682D01*
X01241D01*
X01231Y01692D01*
X01171Y01742D02*
X01191Y01732D01*
X01211Y01712D01*
Y01692D01*
X01201Y01682D01*
X01181D01*
X01171Y01692D01*
Y01702D01*
X01181Y01712D01*
X01211D01*
X04706Y04649D02*
X04646D01*
Y04619D01*
X04656Y04609D01*
X04676D01*
X04686Y04619D01*
Y04649D01*
Y04629D02*
X04706Y04609D01*
Y04549D02*
Y04589D01*
X04666Y04549D01*
X04656D01*
X04646Y04559D01*
Y04579D01*
X04656Y04589D01*
X04646Y04489D02*
X04656Y04509D01*
X04676Y04529D01*
X04696D01*
X04706Y04519D01*
Y04499D01*
X04696Y04489D01*
X04686D01*
X04676Y04499D01*
Y04529D01*
X04174Y04195D02*
Y04255D01*
X04144D01*
X04134Y04245D01*
Y04225D01*
X04144Y04215D01*
X04174D01*
X04154D02*
X04134Y04195D01*
X04074D02*
X04114D01*
X04074Y04235D01*
Y04245D01*
X04084Y04255D01*
X04104D01*
X04114Y04245D01*
X04054D02*
X04044Y04255D01*
X04024D01*
X04014Y04245D01*
Y04235D01*
X04024Y04225D01*
X04034D01*
X04024D01*
X04014Y04215D01*
Y04205D01*
X04024Y04195D01*
X04044D01*
X04054Y04205D01*
X04166Y01756D02*
Y01816D01*
X04136D01*
X04126Y01806D01*
Y01786D01*
X04136Y01776D01*
X04166D01*
X04146D02*
X04126Y01756D01*
X04066D02*
X04106D01*
X04066Y01796D01*
Y01806D01*
X04076Y01816D01*
X04096D01*
X04106Y01806D01*
X040061Y01756D02*
X04046D01*
X040061Y01796D01*
Y01806D01*
X04016Y01816D01*
X04036D01*
X04046Y01806D01*
X03958Y01756D02*
Y01816D01*
X03928D01*
X03918Y01806D01*
Y01786D01*
X03928Y01776D01*
X03958D01*
X03938D02*
X03918Y01756D01*
X03858D02*
X03898D01*
X03858Y01796D01*
Y01806D01*
X03868Y01816D01*
X03888D01*
X03898Y01806D01*
X03838Y01756D02*
X03818D01*
X03828D01*
Y01816D01*
X03838Y01806D01*
X03472Y01502D02*
Y01562D01*
X03442D01*
X03432Y01552D01*
Y01532D01*
X03442Y01522D01*
X03472D01*
X03452D02*
X03432Y01502D01*
X03372D02*
X03412D01*
X03372Y01542D01*
Y01552D01*
X03382Y01562D01*
X03402D01*
X03412Y01552D01*
X03352D02*
X03342Y01562D01*
X03322D01*
X033121Y01552D01*
Y01512D01*
X03322Y01502D01*
X03342D01*
X03352Y01512D01*
Y01552D01*
X03472Y01704D02*
Y01764D01*
X03442D01*
X03432Y01754D01*
Y01734D01*
X03442Y01724D01*
X03472D01*
X03452D02*
X03432Y01704D01*
X03412D02*
X03392D01*
X03402D01*
Y01764D01*
X03412Y01754D01*
X03362Y01714D02*
X03352Y01704D01*
X03332D01*
X03322Y01714D01*
Y01754D01*
X03332Y01764D01*
X03352D01*
X03362Y01754D01*
Y01744D01*
X03352Y01734D01*
X03322D01*
X03157Y01741D02*
Y01801D01*
X03127D01*
X03117Y01791D01*
Y01771D01*
X03127Y01761D01*
X03157D01*
X03137D02*
X03117Y01741D01*
X03097D02*
X03077D01*
X03087D01*
Y01801D01*
X03097Y01791D01*
X03047D02*
X03037Y01801D01*
X03017D01*
X03007Y01791D01*
Y01781D01*
X03017Y01771D01*
X03027D01*
X03017D01*
X03007Y01761D01*
Y01751D01*
X03017Y01741D01*
X03037D01*
X03047Y01751D01*
X0294Y01739D02*
Y01799D01*
X0291D01*
X029Y01789D01*
Y01769D01*
X0291Y01759D01*
X0294D01*
X0292D02*
X029Y01739D01*
X0288Y01799D02*
X0284D01*
Y01789D01*
X0288Y01749D01*
Y01739D01*
X04147Y01388D02*
X04157Y01398D01*
X04177D01*
X04187Y01388D01*
Y01348D01*
X04177Y01338D01*
X04157D01*
X04147Y01348D01*
X04087Y01338D02*
X04127D01*
X04087Y01378D01*
Y01388D01*
X04097Y01398D01*
X04117D01*
X04127Y01388D01*
X04067D02*
X04057Y01398D01*
X04037D01*
X04027Y01388D01*
Y01378D01*
X04037Y01368D01*
X04027Y01358D01*
Y01348D01*
X04037Y01338D01*
X04057D01*
X04067Y01348D01*
Y01358D01*
X04057Y01368D01*
X04067Y01378D01*
Y01388D01*
X04057Y01368D02*
X04037D01*
X0392Y01377D02*
X0393Y01387D01*
X0395D01*
X0396Y01377D01*
Y01337D01*
X0395Y01327D01*
X0393D01*
X0392Y01337D01*
X0386Y01327D02*
X039D01*
X0386Y01367D01*
Y01377D01*
X0387Y01387D01*
X0389D01*
X039Y01377D01*
X0384Y01387D02*
X038D01*
Y01377D01*
X0384Y01337D01*
Y01327D01*
X03678Y01552D02*
X03688Y01562D01*
X03708D01*
X03718Y01552D01*
Y01512D01*
X03708Y01502D01*
X03688D01*
X03678Y01512D01*
X03618Y01502D02*
X03658D01*
X03618Y01542D01*
Y01552D01*
X03628Y01562D01*
X03648D01*
X03658Y01552D01*
X035581Y01562D02*
X03578Y01552D01*
X03598Y01532D01*
Y01512D01*
X03588Y01502D01*
X03568D01*
X035581Y01512D01*
Y01522D01*
X03568Y01532D01*
X03598D01*
X03678Y01756D02*
X03688Y01766D01*
X03708D01*
X03718Y01756D01*
Y01716D01*
X03708Y01706D01*
X03688D01*
X03678Y01716D01*
X03618Y01706D02*
X03658D01*
X03618Y01746D01*
Y01756D01*
X03628Y01766D01*
X03648D01*
X03658Y01756D01*
X035581Y01766D02*
X03598D01*
Y01736D01*
X03578Y01746D01*
X03568D01*
X035581Y01736D01*
Y01716D01*
X03568Y01706D01*
X03588D01*
X03598Y01716D01*
X02394Y01678D02*
X02404Y01688D01*
X02424D01*
X02434Y01678D01*
Y01638D01*
X02424Y01628D01*
X02404D01*
X02394Y01638D01*
X02334Y01628D02*
X02374D01*
X02334Y01668D01*
Y01678D01*
X02344Y01688D01*
X02364D01*
X02374Y01678D01*
X02284Y01628D02*
Y01688D01*
X02314Y01658D01*
X022741D01*
X03151Y01415D02*
X03161Y01425D01*
X03181D01*
X03191Y01415D01*
Y01375D01*
X03181Y01365D01*
X03161D01*
X03151Y01375D01*
X03091Y01365D02*
X03131D01*
X03091Y01405D01*
Y01415D01*
X03101Y01425D01*
X03121D01*
X03131Y01415D01*
X03031Y01365D02*
X03071D01*
X03031Y01405D01*
Y01415D01*
X03041Y01425D01*
X03061D01*
X03071Y01415D01*
X02846Y04882D02*
X02856Y04892D01*
X02876D01*
X02886Y04882D01*
Y04842D01*
X02876Y04832D01*
X02856D01*
X02846Y04842D01*
X02826Y04832D02*
X02806D01*
X02816D01*
Y04892D01*
X02826Y04882D01*
X02776D02*
X02766Y04892D01*
X02746D01*
X02736Y04882D01*
Y04872D01*
X02746Y04862D01*
X02736Y04852D01*
Y04842D01*
X02746Y04832D01*
X02766D01*
X02776Y04842D01*
Y04852D01*
X02766Y04862D01*
X02776Y04872D01*
Y04882D01*
X02766Y04862D02*
X02746D01*
X0322Y04882D02*
X0323Y04892D01*
X0325D01*
X0326Y04882D01*
Y04842D01*
X0325Y04832D01*
X0323D01*
X0322Y04842D01*
X032Y04832D02*
X0318D01*
X0319D01*
Y04892D01*
X032Y04882D01*
X0315Y04892D02*
X0311D01*
Y04882D01*
X0315Y04842D01*
Y04832D01*
X03594Y04882D02*
X03604Y04892D01*
X03624D01*
X03634Y04882D01*
Y04842D01*
X03624Y04832D01*
X03604D01*
X03594Y04842D01*
X03574Y04832D02*
X03554D01*
X03564D01*
Y04892D01*
X03574Y04882D01*
X03484Y04892D02*
X03504Y04882D01*
X03524Y04862D01*
Y04842D01*
X03514Y04832D01*
X03494D01*
X03484Y04842D01*
Y04852D01*
X03494Y04862D01*
X03524D01*
X02938Y01406D02*
X02948Y01416D01*
X02968D01*
X02978Y01406D01*
Y01366D01*
X02968Y01356D01*
X02948D01*
X02938Y01366D01*
X02918Y01356D02*
X02898D01*
X02908D01*
Y01416D01*
X02918Y01406D01*
X02828Y01356D02*
X02868D01*
X02828Y01396D01*
Y01406D01*
X02838Y01416D01*
X02858D01*
X02868Y01406D01*
M02*
