M48
;Layer_Color=9474304
;FILE_FORMAT=2:4
INCH,LZ
;TYPE=PLATED
T1F00S00C0.0100
T2F00S00C0.0200
T3F00S00C0.0240
T4F00S00C0.0310
T5F00S00C0.0330
T6F00S00C0.0360
T7F00S00C0.0400
T8F00S00C0.0500
T9F00S00C0.0551
T10F00S00C0.0630
T11F00S00C0.1181
T12F00S00C0.1378
%
T01
X0115Y014
X0125
X015Y015
X01893Y01493
X02319Y01562
X02409
X026Y015
X028
X02819Y01447
X029Y015
X02956Y01485
X03122
X032Y015
X03329Y0149
X034Y015
X03358Y01435
X03603Y01436
X036Y015
X037
X03693Y01436
X038Y015
X03935Y01477
X04Y015
X04141Y01476
X042Y015
X04546Y01377
X0465Y014
X047Y013
X048
X0485Y014
X048Y015
X0475Y016
Y018
X0485
X048Y019
X0485Y02
X0475
X048Y021
X0485Y022
X0475
X048Y023
Y025
X04763Y02517
X048Y027
X0475Y03
X0465Y028
X046Y027
Y025
X045Y023
X0445Y022
X0435
X043Y023
X042
X04271Y02486
X0425Y028
X0445
Y03
X0425
X0385
X0375
X0365
X0355
X03538Y03051
X0335Y03
X0325
X0315
X032Y029
X0315Y028
X0335
Y026
X0345
X0325Y024
X03216Y02324
X03182Y02293
X03146Y02261
X032Y021
X033
X034
X035
X036
X037
X038
X039
X04
X0405Y02
X0395
X04Y019
X0395Y018
X0385
X0375
X0365
X0355
X0345
X0335
X034Y019
X035
X036
X037
X038
X0385Y016
X03935Y01567
X0405Y016
X04141Y01567
X0415Y018
X043Y017
X04
X03693Y0164
X03603
X0325Y016
X0315Y018
X045Y021
X0465Y022
X039Y029
X031
X029755Y029005
X02985Y029247
X02948Y02867
X02931Y02836
X0285Y028
Y03
X0295
X0305
X03Y031
X029
X028
X02253Y03098
X02114Y03095
X02045Y03107
X02061Y02944
X0203Y02942
X020895Y029535
X02119Y0297
X02205Y02901
X0223Y02925
X02172Y02867
X02149Y02838
X022Y027
X0225Y02746
X02265Y02655
X02378Y02745
X02454Y02468
X02389Y02014
X023655Y019999
X0232Y02001
X0225Y02
X02263Y01872
X0225Y018
X022Y017
X021
X0205Y018
X0195
Y02
X0205
X021Y019
X02143Y02072
X02Y021
X0205Y022
X0195
X0185
X0175
X017Y023
X01634Y02247
X017Y021
X0175Y02
X0185
X0175Y018
X018Y017
X017
X0165Y016
X01635Y02484
X0165Y028
X016Y029
X01666Y03123
X017012Y031035
X01746Y03059
X018Y03027
X01872Y0301
X0195Y0291
X01982Y028
X02Y027
X01891Y02737
X01827Y02749
X0195Y026
X0305
X03105Y0223
X03073Y02195
X03037Y02161
X031Y021
X03Y019
X029
X02923Y01805
X0285Y018
X0275
X02793Y01692
X02865Y01672
X0275Y016
X0265
X025Y017
X02491Y01872
X02463Y019403
X02803Y01923
X028235Y01954
X02842Y01983
X02849Y02012
X028Y021
X02956Y01575
X03122
X0135Y016
X01327Y01636
X0125Y016
Y018
X0135
X0145
X014Y017
X0125Y02
X0115
X012Y021
X011
X01291Y02175
X01288Y0229
X012Y023
X01289Y02393
X014Y023
X0155Y022
X0145Y026
X0135
X01288Y0261
X012Y027
X015
X0135Y03
X013Y033
X011
X0115Y034
X011Y035
X0115Y036
X011Y037
X0115Y038
X011Y039
X0115Y04
X011Y041
X0115Y042
X011Y043
Y045
X0125Y046
X0135
X0125Y044
X014Y043
X0145Y042
X01397Y04092
X0155Y04
X01453Y03683
X0135Y036
X01533Y03224
X015594Y031416
X0115Y032
X01753Y03167
X01773Y03143
X01736Y03322
X01886Y03321
X01993Y03344
X0195Y034
X02022Y03435
X02067Y03436
X02106Y0344
X02148
X02185Y03438
X0196Y03515
X019705Y032495
X0195Y032
X02041Y03161
X02022Y03745
X02065Y03891
X02106Y03896
X0215Y03894
X02185Y03892
X02265Y03804
X02332Y03809
X02366Y039275
X02416Y039487
X02437Y03996
X02372Y04144
X02314Y04142
X02292Y04113
X02242Y04115
X022489Y040768
X02184Y04082
X022052Y041042
X020225Y04045
X0165Y04
X01746Y03683
X02628Y03697
X02629Y03737
X0265Y038
X02627Y03652
X02626Y03613
X0265Y034
X027Y033
X028
X029
X03
X0285Y034
Y032
Y038
X0305
Y04
X0295
X0285
X0275
X0258Y04153
X02554Y041537
X02518Y04539
X02341Y04541
X0215Y046
X0205
X02071Y04541
X0195Y046
X0185
X01639Y04596
X0275Y046
X0285
X029353Y044345
X02732Y04435
X031351Y044345
X03325
X03479Y04141
X0345Y04
X0335
X0325
X0315
X0325Y038
X0345
X03532Y03746
X035Y037
X0355Y036
X03531Y03563
X03534Y03387
X036Y033
X037
X0375Y034
X0385
X0395
X0405
X0425
X0435
X043Y033
X0425Y032
X0415
X0405
X0395
X0385
X0375
X0365
X03535Y03215
X0375Y036
X0385
X0395
X0405
X04444Y03655
X04546Y03386
X0445Y032
X043Y039
X04012Y04111
X03957Y04162
X03931Y04329
X03878Y0435
X04322Y04548
X04424Y04524
X04507Y04208
X04769Y042
X048Y043
X0485Y044
X0475
X048Y045
X0475Y036
X047Y035
X048Y047
X04825Y04818
X0485Y048
X0475
X048Y049
X047
X0422Y04839
X03844Y04751
X034Y047
X033
X028
X02429Y04805
X02403Y04833
X0235Y048
X0225
X02263Y04773
X021Y047
X018
X016
X015
X013Y049
X011
T02
X03982Y02888
Y03804
X04632Y04317
T03
X011162Y023352
X011432
Y026108
X011162
T04
X04406Y01377
Y01477
X04706
Y01377
Y01577
Y01677
Y01777
Y01877
Y01977
Y02077
Y02177
Y02277
Y02486
Y02586
Y02686
Y02786
Y02886
Y02986
Y03086
X04406
Y02986
Y02886
Y02786
Y02686
Y02586
Y02486
Y02277
Y02177
Y02077
Y01977
Y01877
Y01777
Y01677
Y01577
Y03186
Y03286
Y03386
X04706
Y03286
Y03186
T05
X01236Y023746
Y025714
T06
X011Y01413
X01201
X01299
X014
Y01526
X01299
X01201
X011
X016Y01513
Y01412
X02528Y027851
Y03041
X01734Y03837
Y03935
Y04036
X01604Y04035
Y03937
Y03836
Y04188
Y04289
Y04387
X01734Y04388
Y04287
Y04189
T07
X03538Y02874
X03638
X03738
X03838
T08
X04355Y03608
Y03708
Y03808
Y03908
Y04008
Y04108
Y04208
Y04308
X04372Y04473
X04472
X04572
X04555Y04258
Y04158
Y04058
Y03958
Y03858
Y03758
Y03658
X04522Y04673
X04422
X04322
X04222
X04122
X04022
X03922
X03972Y04473
X04072
X04172
X04272
X03872
T09
X01327Y02773
Y02923
Y03073
Y03223
Y03373
Y03523
Y03749
Y03899
Y04049
Y04199
Y04349
Y04499
X012605Y046721
X011105
X01738
X01888
X02038
X02188
X02338
X02488
X027111
X02861
X030856
X032356
X034602
X036102
T10
X014045Y01862
Y02062
T11
X032805Y019256
X040955
Y02839
X032805
T12
X04825Y016537
X014961
Y046063
X04825
M30
