G04*
G04 #@! TF.GenerationSoftware,Altium Limited,Altium Designer,21.2.1 (34)*
G04*
G04 Layer_Color=2752767*
%FSTAX24Y24*%
%MOIN*%
G70*
G04*
G04 #@! TF.SameCoordinates,5BC75E6B-F5FC-40A1-8AA7-6D38C453C1D6*
G04*
G04*
G04 #@! TF.FilePolarity,Positive*
G04*
G01*
G75*
%ADD113C,0.0020*%
%ADD114C,0.0027*%
%ADD115C,0.0013*%
D113*
X036022Y046641D02*
Y046801D01*
X036182D01*
Y046641D01*
X036022D01*
X034522D02*
Y046801D01*
X034682D01*
Y046641D01*
X034522D01*
X032276D02*
Y046801D01*
X032436D01*
Y046641D01*
X032276D01*
X030776D02*
Y046801D01*
X030936D01*
Y046641D01*
X030776D01*
X02853D02*
Y046801D01*
X028691D01*
Y046641D01*
X02853D01*
X02703D02*
Y046801D01*
X02719D01*
Y046641D01*
X02703D01*
X04406Y03378D02*
X04398Y03394D01*
X04414D01*
X04406Y03378D01*
Y03278D02*
X04398Y03294D01*
X04414D01*
X04406Y03278D01*
Y03178D02*
X04398Y03194D01*
X04414D01*
X04406Y03178D01*
Y03078D02*
X04398Y03094D01*
X04414D01*
X04406Y03078D01*
Y02978D02*
X04398Y02994D01*
X04414D01*
X04406Y02978D01*
Y02878D02*
X04398Y02894D01*
X04414D01*
X04406Y02878D01*
Y02778D02*
X04398Y02794D01*
X04414D01*
X04406Y02778D01*
Y02678D02*
X04398Y02694D01*
X04414D01*
X04406Y02678D01*
Y02578D02*
X04398Y02594D01*
X04414D01*
X04406Y02578D01*
Y02478D02*
X04398Y02494D01*
X04414D01*
X04406Y02478D01*
X04706D02*
X04698Y02494D01*
X04714D01*
X04706Y02478D01*
Y02578D02*
X04698Y02594D01*
X04714D01*
X04706Y02578D01*
Y02678D02*
X04698Y02694D01*
X04714D01*
X04706Y02678D01*
Y02778D02*
X04698Y02794D01*
X04714D01*
X04706Y02778D01*
Y02878D02*
X04698Y02894D01*
X04714D01*
X04706Y02878D01*
Y02978D02*
X04698Y02994D01*
X04714D01*
X04706Y02978D01*
Y03078D02*
X04698Y03094D01*
X04714D01*
X04706Y03078D01*
Y03178D02*
X04698Y03194D01*
X04714D01*
X04706Y03178D01*
Y03278D02*
X04698Y03294D01*
X04714D01*
X04706Y03278D01*
Y03378D02*
X04698Y03394D01*
X04714D01*
X04706Y03378D01*
X04406Y01369D02*
X04398Y01385D01*
X04414D01*
X04406Y01369D01*
Y01469D02*
X04398Y01485D01*
X04414D01*
X04406Y01469D01*
Y01569D02*
X04398Y01585D01*
X04414D01*
X04406Y01569D01*
Y01669D02*
X04398Y01685D01*
X04414D01*
X04406Y01669D01*
Y01769D02*
X04398Y01785D01*
X04414D01*
X04406Y01769D01*
Y01869D02*
X04398Y01885D01*
X04414D01*
X04406Y01869D01*
Y01969D02*
X04398Y01985D01*
X04414D01*
X04406Y01969D01*
Y02069D02*
X04398Y02085D01*
X04414D01*
X04406Y02069D01*
Y02169D02*
X04398Y02185D01*
X04414D01*
X04406Y02169D01*
Y02269D02*
X04398Y02285D01*
X04414D01*
X04406Y02269D01*
X04706D02*
X04698Y02285D01*
X04714D01*
X04706Y02269D01*
Y02169D02*
X04698Y02185D01*
X04714D01*
X04706Y02169D01*
Y02069D02*
X04698Y02085D01*
X04714D01*
X04706Y02069D01*
Y01969D02*
X04698Y01985D01*
X04714D01*
X04706Y01969D01*
Y01869D02*
X04698Y01885D01*
X04714D01*
X04706Y01869D01*
Y01769D02*
X04698Y01785D01*
X04714D01*
X04706Y01769D01*
Y01669D02*
X04698Y01685D01*
X04714D01*
X04706Y01669D01*
Y01569D02*
X04698Y01585D01*
X04714D01*
X04706Y01569D01*
Y01469D02*
X04698Y01485D01*
X04714D01*
X04706Y01469D01*
Y01369D02*
X04698Y01385D01*
X04714D01*
X04706Y01369D01*
X02528Y027771D02*
X02532Y027811D01*
X02536D01*
X02532Y027851D01*
X02536Y027891D01*
X02532D01*
X02528Y027931D01*
X02524Y027891D01*
X0252D01*
X02524Y027851D01*
X0252Y027811D01*
X02524D01*
X02528Y027771D01*
Y03033D02*
X02532Y03037D01*
X02536D01*
X02532Y03041D01*
X02536Y03045D01*
X02532D01*
X02528Y03049D01*
X02524Y03045D01*
X0252D01*
X02524Y03041D01*
X0252Y03037D01*
X02524D01*
X02528Y03033D01*
X0173Y046641D02*
Y046801D01*
X01746D01*
Y046641D01*
X0173D01*
X0188D02*
Y046801D01*
X01896D01*
Y046641D01*
X0188D01*
X0218D02*
Y046801D01*
X02196D01*
Y046641D01*
X0218D01*
X0233D02*
Y046801D01*
X02346D01*
Y046641D01*
X0233D01*
X0248D02*
Y046801D01*
X02496D01*
Y046641D01*
X0248D01*
X0203D02*
Y046801D01*
X02046D01*
Y046641D01*
X0203D01*
X011025D02*
Y046801D01*
X011185D01*
Y046641D01*
X011025D01*
X012525D02*
Y046801D01*
X012685D01*
Y046641D01*
X012525D01*
X01319Y04041D02*
Y04057D01*
X01335D01*
Y04041D01*
X01319D01*
Y04491D02*
Y04507D01*
X01335D01*
Y04491D01*
X01319D01*
Y04341D02*
Y04357D01*
X01335D01*
Y04341D01*
X01319D01*
Y04191D02*
Y04207D01*
X01335D01*
Y04191D01*
X01319D01*
Y03891D02*
Y03907D01*
X01335D01*
Y03891D01*
X01319D01*
Y03741D02*
Y03757D01*
X01335D01*
Y03741D01*
X01319D01*
X01604Y04379D02*
X01608Y04383D01*
X01612D01*
X01608Y04387D01*
X01612Y04391D01*
X01608D01*
X01604Y04395D01*
X016Y04391D01*
X01596D01*
X016Y04387D01*
X01596Y04383D01*
X016D01*
X01604Y04379D01*
Y04281D02*
X01608Y04285D01*
X01612D01*
X01608Y04289D01*
X01612Y04293D01*
X01608D01*
X01604Y04297D01*
X016Y04293D01*
X01596D01*
X016Y04289D01*
X01596Y04285D01*
X016D01*
X01604Y04281D01*
Y0418D02*
X01608Y04184D01*
X01612D01*
X01608Y04188D01*
X01612Y04192D01*
X01608D01*
X01604Y04196D01*
X016Y04192D01*
X01596D01*
X016Y04188D01*
X01596Y04184D01*
X016D01*
X01604Y0418D01*
X01734Y04279D02*
X01738Y04283D01*
X01742D01*
X01738Y04287D01*
X01742Y04291D01*
X01738D01*
X01734Y04295D01*
X0173Y04291D01*
X01726D01*
X0173Y04287D01*
X01726Y04283D01*
X0173D01*
X01734Y04279D01*
Y04181D02*
X01738Y04185D01*
X01742D01*
X01738Y04189D01*
X01742Y04193D01*
X01738D01*
X01734Y04197D01*
X0173Y04193D01*
X01726D01*
X0173Y04189D01*
X01726Y04185D01*
X0173D01*
X01734Y04181D01*
Y0438D02*
X01738Y04384D01*
X01742D01*
X01738Y04388D01*
X01742Y04392D01*
X01738D01*
X01734Y04396D01*
X0173Y04392D01*
X01726D01*
X0173Y04388D01*
X01726Y04384D01*
X0173D01*
X01734Y0438D01*
Y04028D02*
X01738Y04032D01*
X01742D01*
X01738Y04036D01*
X01742Y0404D01*
X01738D01*
X01734Y04044D01*
X0173Y0404D01*
X01726D01*
X0173Y04036D01*
X01726Y04032D01*
X0173D01*
X01734Y04028D01*
Y03927D02*
X01738Y03931D01*
X01742D01*
X01738Y03935D01*
X01742Y03939D01*
X01738D01*
X01734Y03943D01*
X0173Y03939D01*
X01726D01*
X0173Y03935D01*
X01726Y03931D01*
X0173D01*
X01734Y03927D01*
Y03829D02*
X01738Y03833D01*
X01742D01*
X01738Y03837D01*
X01742Y03841D01*
X01738D01*
X01734Y03845D01*
X0173Y03841D01*
X01726D01*
X0173Y03837D01*
X01726Y03833D01*
X0173D01*
X01734Y03829D01*
X01604Y03828D02*
X01608Y03832D01*
X01612D01*
X01608Y03836D01*
X01612Y0384D01*
X01608D01*
X01604Y03844D01*
X016Y0384D01*
X01596D01*
X016Y03836D01*
X01596Y03832D01*
X016D01*
X01604Y03828D01*
Y03929D02*
X01608Y03933D01*
X01612D01*
X01608Y03937D01*
X01612Y03941D01*
X01608D01*
X01604Y03945D01*
X016Y03941D01*
X01596D01*
X016Y03937D01*
X01596Y03933D01*
X016D01*
X01604Y03929D01*
Y04027D02*
X01608Y04031D01*
X01612D01*
X01608Y04035D01*
X01612Y04039D01*
X01608D01*
X01604Y04043D01*
X016Y04039D01*
X01596D01*
X016Y04035D01*
X01596Y04031D01*
X016D01*
X01604Y04027D01*
X01319Y02765D02*
Y02781D01*
X01335D01*
Y02765D01*
X01319D01*
Y02915D02*
Y02931D01*
X01335D01*
Y02915D01*
X01319D01*
Y03215D02*
Y03231D01*
X01335D01*
Y03215D01*
X01319D01*
Y03365D02*
Y03381D01*
X01335D01*
Y03365D01*
X01319D01*
Y03515D02*
Y03531D01*
X01335D01*
Y03515D01*
X01319D01*
Y03065D02*
Y03081D01*
X01335D01*
Y03065D01*
X01319D01*
X01228Y025634D02*
X01232Y025714D01*
X01228Y025794D01*
X01236Y025754D01*
X01244Y025794D01*
X0124Y025714D01*
X01244Y025634D01*
X01236Y025674D01*
X01228Y025634D01*
Y023666D02*
X01232Y023746D01*
X01228Y023826D01*
X01236Y023786D01*
X01244Y023826D01*
X0124Y023746D01*
X01244Y023666D01*
X01236Y023706D01*
X01228Y023666D01*
X011392Y026068D02*
Y026028D01*
X011472D01*
Y026068D01*
X011512D01*
Y026148D01*
X011472D01*
Y026188D01*
X011392D01*
Y026148D01*
X011352D01*
Y026068D01*
X011392D01*
X011122D02*
Y026028D01*
X011202D01*
Y026068D01*
X011242D01*
Y026148D01*
X011202D01*
Y026188D01*
X011122D01*
Y026148D01*
X011082D01*
Y026068D01*
X011122D01*
X011392Y023312D02*
Y023272D01*
X011472D01*
Y023312D01*
X011512D01*
Y023392D01*
X011472D01*
Y023432D01*
X011392D01*
Y023392D01*
X011352D01*
Y023312D01*
X011392D01*
X011122D02*
Y023272D01*
X011202D01*
Y023312D01*
X011242D01*
Y023392D01*
X011202D01*
Y023432D01*
X011122D01*
Y023392D01*
X011082D01*
Y023312D01*
X011122D01*
X016Y01505D02*
X01604Y01509D01*
X01608D01*
X01604Y01513D01*
X01608Y01517D01*
X01604D01*
X016Y01521D01*
X01596Y01517D01*
X01592D01*
X01596Y01513D01*
X01592Y01509D01*
X01596D01*
X016Y01505D01*
Y01404D02*
X01604Y01408D01*
X01608D01*
X01604Y01412D01*
X01608Y01416D01*
X01604D01*
X016Y0142D01*
X01596Y01416D01*
X01592D01*
X01596Y01412D01*
X01592Y01408D01*
X01596D01*
X016Y01404D01*
X011Y01518D02*
X01104Y01522D01*
X01108D01*
X01104Y01526D01*
X01108Y0153D01*
X01104D01*
X011Y01534D01*
X01096Y0153D01*
X01092D01*
X01096Y01526D01*
X01092Y01522D01*
X01096D01*
X011Y01518D01*
X01201D02*
X01205Y01522D01*
X01209D01*
X01205Y01526D01*
X01209Y0153D01*
X01205D01*
X01201Y01534D01*
X01197Y0153D01*
X01193D01*
X01197Y01526D01*
X01193Y01522D01*
X01197D01*
X01201Y01518D01*
X01299D02*
X01303Y01522D01*
X01307D01*
X01303Y01526D01*
X01307Y0153D01*
X01303D01*
X01299Y01534D01*
X01295Y0153D01*
X01291D01*
X01295Y01526D01*
X01291Y01522D01*
X01295D01*
X01299Y01518D01*
X014D02*
X01404Y01522D01*
X01408D01*
X01404Y01526D01*
X01408Y0153D01*
X01404D01*
X014Y01534D01*
X01396Y0153D01*
X01392D01*
X01396Y01526D01*
X01392Y01522D01*
X01396D01*
X014Y01518D01*
X011Y01405D02*
X01104Y01409D01*
X01108D01*
X01104Y01413D01*
X01108Y01417D01*
X01104D01*
X011Y01421D01*
X01096Y01417D01*
X01092D01*
X01096Y01413D01*
X01092Y01409D01*
X01096D01*
X011Y01405D01*
X01201D02*
X01205Y01409D01*
X01209D01*
X01205Y01413D01*
X01209Y01417D01*
X01205D01*
X01201Y01421D01*
X01197Y01417D01*
X01193D01*
X01197Y01413D01*
X01193Y01409D01*
X01197D01*
X01201Y01405D01*
X01299D02*
X01303Y01409D01*
X01307D01*
X01303Y01413D01*
X01307Y01417D01*
X01303D01*
X01299Y01421D01*
X01295Y01417D01*
X01291D01*
X01295Y01413D01*
X01291Y01409D01*
X01295D01*
X01299Y01405D01*
X014D02*
X01404Y01409D01*
X01408D01*
X01404Y01413D01*
X01408Y01417D01*
X01404D01*
X014Y01421D01*
X01396Y01417D01*
X01392D01*
X01396Y01413D01*
X01392Y01409D01*
X01396D01*
X014Y01405D01*
X0353Y02866D02*
X03534D01*
X03538Y0287D01*
X03542Y02866D01*
X03546D01*
Y0287D01*
X03542Y02874D01*
X03546Y02878D01*
Y02882D01*
X03542D01*
X03538Y02878D01*
X03534Y02882D01*
X0353D01*
Y02878D01*
X03534Y02874D01*
X0353Y0287D01*
Y02866D01*
X0363D02*
X03634D01*
X03638Y0287D01*
X03642Y02866D01*
X03646D01*
Y0287D01*
X03642Y02874D01*
X03646Y02878D01*
Y02882D01*
X03642D01*
X03638Y02878D01*
X03634Y02882D01*
X0363D01*
Y02878D01*
X03634Y02874D01*
X0363Y0287D01*
Y02866D01*
X0373D02*
X03734D01*
X03738Y0287D01*
X03742Y02866D01*
X03746D01*
Y0287D01*
X03742Y02874D01*
X03746Y02878D01*
Y02882D01*
X03742D01*
X03738Y02878D01*
X03734Y02882D01*
X0373D01*
Y02878D01*
X03734Y02874D01*
X0373Y0287D01*
Y02866D01*
X0383D02*
X03834D01*
X03838Y0287D01*
X03842Y02866D01*
X03846D01*
Y0287D01*
X03842Y02874D01*
X03846Y02878D01*
Y02882D01*
X03842D01*
X03838Y02878D01*
X03834Y02882D01*
X0383D01*
Y02878D01*
X03834Y02874D01*
X0383Y0287D01*
Y02866D01*
X014881Y016537D02*
X014961Y016617D01*
X015041Y016537D01*
X014961Y016457D01*
X014881Y016537D01*
X04817D02*
X04825Y016617D01*
X04833Y016537D01*
X04825Y016457D01*
X04817Y016537D01*
Y046063D02*
X04825Y046143D01*
X04833Y046063D01*
X04825Y045983D01*
X04817Y046063D01*
X014881D02*
X014961Y046143D01*
X015041Y046063D01*
X014961Y045983D01*
X014881Y046063D01*
X013965Y01854D02*
Y0187D01*
X014125D01*
Y01854D01*
X013965D01*
X014005Y01858D02*
Y01866D01*
X014085D01*
Y01858D01*
X014005D01*
X013965Y02054D02*
Y0207D01*
X014125D01*
Y02054D01*
X013965D01*
X014005Y02058D02*
Y02066D01*
X014085D01*
Y02058D01*
X014005D01*
X032805Y019176D02*
X032725Y019336D01*
X032885D01*
X032805Y019176D01*
Y019216D02*
X032765Y019296D01*
X032845D01*
X032805Y019216D01*
Y02831D02*
X032725Y02847D01*
X032885D01*
X032805Y02831D01*
Y02835D02*
X032765Y02843D01*
X032845D01*
X032805Y02835D01*
X040955Y02831D02*
X040875Y02847D01*
X041035D01*
X040955Y02831D01*
Y02835D02*
X040915Y02843D01*
X040995D01*
X040955Y02835D01*
Y019176D02*
X040875Y019336D01*
X041035D01*
X040955Y019176D01*
Y019216D02*
X040915Y019296D01*
X040995D01*
X040955Y019216D01*
X04632Y04309D02*
X04636Y04313D01*
X0464D01*
X04636Y04317D01*
X0464Y04321D01*
X04636D01*
X04632Y04325D01*
X04628Y04321D01*
X04624D01*
X04628Y04317D01*
X04624Y04313D01*
X04628D01*
X04632Y04309D01*
Y04313D02*
X04634Y04315D01*
X04636D01*
X04634Y04317D01*
X04636Y04319D01*
X04634D01*
X04632Y04321D01*
X0463Y04319D01*
X04628D01*
X0463Y04317D01*
X04628Y04315D01*
X0463D01*
X04632Y04313D01*
X03982Y0288D02*
X03986Y02884D01*
X0399D01*
X03986Y02888D01*
X0399Y02892D01*
X03986D01*
X03982Y02896D01*
X03978Y02892D01*
X03974D01*
X03978Y02888D01*
X03974Y02884D01*
X03978D01*
X03982Y0288D01*
Y02884D02*
X03984Y02886D01*
X03986D01*
X03984Y02888D01*
X03986Y0289D01*
X03984D01*
X03982Y02892D01*
X0398Y0289D01*
X03978D01*
X0398Y02888D01*
X03978Y02886D01*
X0398D01*
X03982Y02884D01*
Y03796D02*
X03986Y038D01*
X0399D01*
X03986Y03804D01*
X0399Y03808D01*
X03986D01*
X03982Y03812D01*
X03978Y03808D01*
X03974D01*
X03978Y03804D01*
X03974Y038D01*
X03978D01*
X03982Y03796D01*
Y038D02*
X03984Y03802D01*
X03986D01*
X03984Y03804D01*
X03986Y03806D01*
X03984D01*
X03982Y03808D01*
X0398Y03806D01*
X03978D01*
X0398Y03804D01*
X03978Y03802D01*
X0398D01*
X03982Y038D01*
D114*
X04363Y04308D02*
G03*
X04363Y04308I-00008J0D01*
G01*
X04563Y04258D02*
G03*
X04563Y04258I-00008J0D01*
G01*
X04363Y04208D02*
G03*
X04363Y04208I-00008J0D01*
G01*
X04563Y04158D02*
G03*
X04563Y04158I-00008J0D01*
G01*
X04363Y04108D02*
G03*
X04363Y04108I-00008J0D01*
G01*
X04563Y04058D02*
G03*
X04563Y04058I-00008J0D01*
G01*
X04363Y04008D02*
G03*
X04363Y04008I-00008J0D01*
G01*
X04563Y03958D02*
G03*
X04563Y03958I-00008J0D01*
G01*
X04363Y03908D02*
G03*
X04363Y03908I-00008J0D01*
G01*
X04563Y03858D02*
G03*
X04563Y03858I-00008J0D01*
G01*
X04363Y03808D02*
G03*
X04363Y03808I-00008J0D01*
G01*
X04563Y03758D02*
G03*
X04563Y03758I-00008J0D01*
G01*
X04363Y03708D02*
G03*
X04363Y03708I-00008J0D01*
G01*
X04563Y03658D02*
G03*
X04563Y03658I-00008J0D01*
G01*
X04363Y03608D02*
G03*
X04363Y03608I-00008J0D01*
G01*
X0458Y04473D02*
G03*
X0458Y04473I-00008J0D01*
G01*
X0453Y04673D02*
G03*
X0453Y04673I-00008J0D01*
G01*
X0448Y04473D02*
G03*
X0448Y04473I-00008J0D01*
G01*
X0443Y04673D02*
G03*
X0443Y04673I-00008J0D01*
G01*
X0438Y04473D02*
G03*
X0438Y04473I-00008J0D01*
G01*
X0433Y04673D02*
G03*
X0433Y04673I-00008J0D01*
G01*
X0428Y04473D02*
G03*
X0428Y04473I-00008J0D01*
G01*
X0423Y04673D02*
G03*
X0423Y04673I-00008J0D01*
G01*
X0418Y04473D02*
G03*
X0418Y04473I-00008J0D01*
G01*
X0413Y04673D02*
G03*
X0413Y04673I-00008J0D01*
G01*
X0408Y04473D02*
G03*
X0408Y04473I-00008J0D01*
G01*
X0403Y04673D02*
G03*
X0403Y04673I-00008J0D01*
G01*
X0398Y04473D02*
G03*
X0398Y04473I-00008J0D01*
G01*
X0393Y04673D02*
G03*
X0393Y04673I-00008J0D01*
G01*
X0388Y04473D02*
G03*
X0388Y04473I-00008J0D01*
G01*
X022569Y040768D02*
G03*
X022569Y040768I-00008J0D01*
G01*
X022132Y041042D02*
G03*
X022132Y041042I-00008J0D01*
G01*
X023Y04113D02*
G03*
X023Y04113I-00008J0D01*
G01*
X0225Y04115D02*
G03*
X0225Y04115I-00008J0D01*
G01*
X04808Y049D02*
G03*
X04808Y049I-00008J0D01*
G01*
X04858Y048D02*
G03*
X04858Y048I-00008J0D01*
G01*
X04808Y047D02*
G03*
X04808Y047I-00008J0D01*
G01*
Y045D02*
G03*
X04808Y045I-00008J0D01*
G01*
X04858Y044D02*
G03*
X04858Y044I-00008J0D01*
G01*
X04808Y043D02*
G03*
X04808Y043I-00008J0D01*
G01*
Y027D02*
G03*
X04808Y027I-00008J0D01*
G01*
Y025D02*
G03*
X04808Y025I-00008J0D01*
G01*
Y023D02*
G03*
X04808Y023I-00008J0D01*
G01*
X04858Y022D02*
G03*
X04858Y022I-00008J0D01*
G01*
X04808Y021D02*
G03*
X04808Y021I-00008J0D01*
G01*
X04858Y02D02*
G03*
X04858Y02I-00008J0D01*
G01*
X04808Y019D02*
G03*
X04808Y019I-00008J0D01*
G01*
X04858Y018D02*
G03*
X04858Y018I-00008J0D01*
G01*
X04808Y015D02*
G03*
X04808Y015I-00008J0D01*
G01*
X04858Y014D02*
G03*
X04858Y014I-00008J0D01*
G01*
X04808Y013D02*
G03*
X04808Y013I-00008J0D01*
G01*
X04708Y049D02*
G03*
X04708Y049I-00008J0D01*
G01*
X04758Y048D02*
G03*
X04758Y048I-00008J0D01*
G01*
Y044D02*
G03*
X04758Y044I-00008J0D01*
G01*
Y036D02*
G03*
X04758Y036I-00008J0D01*
G01*
X04708Y035D02*
G03*
X04708Y035I-00008J0D01*
G01*
X04758Y03D02*
G03*
X04758Y03I-00008J0D01*
G01*
Y022D02*
G03*
X04758Y022I-00008J0D01*
G01*
Y02D02*
G03*
X04758Y02I-00008J0D01*
G01*
Y018D02*
G03*
X04758Y018I-00008J0D01*
G01*
Y016D02*
G03*
X04758Y016I-00008J0D01*
G01*
X04708Y013D02*
G03*
X04708Y013I-00008J0D01*
G01*
X04658Y028D02*
G03*
X04658Y028I-00008J0D01*
G01*
X04608Y027D02*
G03*
X04608Y027I-00008J0D01*
G01*
Y025D02*
G03*
X04608Y025I-00008J0D01*
G01*
X04658Y022D02*
G03*
X04658Y022I-00008J0D01*
G01*
Y014D02*
G03*
X04658Y014I-00008J0D01*
G01*
X04508Y023D02*
G03*
X04508Y023I-00008J0D01*
G01*
Y021D02*
G03*
X04508Y021I-00008J0D01*
G01*
X04458Y032D02*
G03*
X04458Y032I-00008J0D01*
G01*
Y03D02*
G03*
X04458Y03I-00008J0D01*
G01*
Y028D02*
G03*
X04458Y028I-00008J0D01*
G01*
Y022D02*
G03*
X04458Y022I-00008J0D01*
G01*
X04308Y039D02*
G03*
X04308Y039I-00008J0D01*
G01*
X04358Y034D02*
G03*
X04358Y034I-00008J0D01*
G01*
X04308Y033D02*
G03*
X04308Y033I-00008J0D01*
G01*
Y023D02*
G03*
X04308Y023I-00008J0D01*
G01*
X04358Y022D02*
G03*
X04358Y022I-00008J0D01*
G01*
X04308Y017D02*
G03*
X04308Y017I-00008J0D01*
G01*
X04258Y034D02*
G03*
X04258Y034I-00008J0D01*
G01*
Y032D02*
G03*
X04258Y032I-00008J0D01*
G01*
Y03D02*
G03*
X04258Y03I-00008J0D01*
G01*
Y028D02*
G03*
X04258Y028I-00008J0D01*
G01*
X04208Y023D02*
G03*
X04208Y023I-00008J0D01*
G01*
Y015D02*
G03*
X04208Y015I-00008J0D01*
G01*
X04158Y032D02*
G03*
X04158Y032I-00008J0D01*
G01*
Y018D02*
G03*
X04158Y018I-00008J0D01*
G01*
X04058Y036D02*
G03*
X04058Y036I-00008J0D01*
G01*
Y034D02*
G03*
X04058Y034I-00008J0D01*
G01*
Y032D02*
G03*
X04058Y032I-00008J0D01*
G01*
X04008Y021D02*
G03*
X04008Y021I-00008J0D01*
G01*
X04058Y02D02*
G03*
X04058Y02I-00008J0D01*
G01*
X04008Y019D02*
G03*
X04008Y019I-00008J0D01*
G01*
Y017D02*
G03*
X04008Y017I-00008J0D01*
G01*
X04058Y016D02*
G03*
X04058Y016I-00008J0D01*
G01*
X04008Y015D02*
G03*
X04008Y015I-00008J0D01*
G01*
X03958Y036D02*
G03*
X03958Y036I-00008J0D01*
G01*
Y034D02*
G03*
X03958Y034I-00008J0D01*
G01*
Y032D02*
G03*
X03958Y032I-00008J0D01*
G01*
X03908Y029D02*
G03*
X03908Y029I-00008J0D01*
G01*
Y021D02*
G03*
X03908Y021I-00008J0D01*
G01*
X03958Y02D02*
G03*
X03958Y02I-00008J0D01*
G01*
Y018D02*
G03*
X03958Y018I-00008J0D01*
G01*
X03858Y036D02*
G03*
X03858Y036I-00008J0D01*
G01*
Y034D02*
G03*
X03858Y034I-00008J0D01*
G01*
Y032D02*
G03*
X03858Y032I-00008J0D01*
G01*
Y03D02*
G03*
X03858Y03I-00008J0D01*
G01*
X03808Y021D02*
G03*
X03808Y021I-00008J0D01*
G01*
Y019D02*
G03*
X03808Y019I-00008J0D01*
G01*
X03858Y018D02*
G03*
X03858Y018I-00008J0D01*
G01*
Y016D02*
G03*
X03858Y016I-00008J0D01*
G01*
X03808Y015D02*
G03*
X03808Y015I-00008J0D01*
G01*
X03758Y036D02*
G03*
X03758Y036I-00008J0D01*
G01*
Y034D02*
G03*
X03758Y034I-00008J0D01*
G01*
X03708Y033D02*
G03*
X03708Y033I-00008J0D01*
G01*
X03758Y032D02*
G03*
X03758Y032I-00008J0D01*
G01*
Y03D02*
G03*
X03758Y03I-00008J0D01*
G01*
X03708Y021D02*
G03*
X03708Y021I-00008J0D01*
G01*
Y019D02*
G03*
X03708Y019I-00008J0D01*
G01*
X03758Y018D02*
G03*
X03758Y018I-00008J0D01*
G01*
X03708Y015D02*
G03*
X03708Y015I-00008J0D01*
G01*
X03608Y033D02*
G03*
X03608Y033I-00008J0D01*
G01*
X03658Y032D02*
G03*
X03658Y032I-00008J0D01*
G01*
Y03D02*
G03*
X03658Y03I-00008J0D01*
G01*
X03608Y021D02*
G03*
X03608Y021I-00008J0D01*
G01*
Y019D02*
G03*
X03608Y019I-00008J0D01*
G01*
X03658Y018D02*
G03*
X03658Y018I-00008J0D01*
G01*
X03608Y015D02*
G03*
X03608Y015I-00008J0D01*
G01*
X03508Y037D02*
G03*
X03508Y037I-00008J0D01*
G01*
X03558Y036D02*
G03*
X03558Y036I-00008J0D01*
G01*
Y03D02*
G03*
X03558Y03I-00008J0D01*
G01*
X03508Y021D02*
G03*
X03508Y021I-00008J0D01*
G01*
Y019D02*
G03*
X03508Y019I-00008J0D01*
G01*
X03558Y018D02*
G03*
X03558Y018I-00008J0D01*
G01*
X03408Y047D02*
G03*
X03408Y047I-00008J0D01*
G01*
X03458Y04D02*
G03*
X03458Y04I-00008J0D01*
G01*
Y038D02*
G03*
X03458Y038I-00008J0D01*
G01*
Y026D02*
G03*
X03458Y026I-00008J0D01*
G01*
X03408Y021D02*
G03*
X03408Y021I-00008J0D01*
G01*
Y019D02*
G03*
X03408Y019I-00008J0D01*
G01*
X03458Y018D02*
G03*
X03458Y018I-00008J0D01*
G01*
X03408Y015D02*
G03*
X03408Y015I-00008J0D01*
G01*
X03308Y047D02*
G03*
X03308Y047I-00008J0D01*
G01*
X03358Y04D02*
G03*
X03358Y04I-00008J0D01*
G01*
Y03D02*
G03*
X03358Y03I-00008J0D01*
G01*
Y028D02*
G03*
X03358Y028I-00008J0D01*
G01*
Y026D02*
G03*
X03358Y026I-00008J0D01*
G01*
X03308Y021D02*
G03*
X03308Y021I-00008J0D01*
G01*
X03358Y018D02*
G03*
X03358Y018I-00008J0D01*
G01*
X03258Y04D02*
G03*
X03258Y04I-00008J0D01*
G01*
Y038D02*
G03*
X03258Y038I-00008J0D01*
G01*
Y03D02*
G03*
X03258Y03I-00008J0D01*
G01*
X03208Y029D02*
G03*
X03208Y029I-00008J0D01*
G01*
X03258Y024D02*
G03*
X03258Y024I-00008J0D01*
G01*
X03208Y021D02*
G03*
X03208Y021I-00008J0D01*
G01*
X03258Y016D02*
G03*
X03258Y016I-00008J0D01*
G01*
X03208Y015D02*
G03*
X03208Y015I-00008J0D01*
G01*
X03158Y04D02*
G03*
X03158Y04I-00008J0D01*
G01*
Y03D02*
G03*
X03158Y03I-00008J0D01*
G01*
X03108Y029D02*
G03*
X03108Y029I-00008J0D01*
G01*
X03158Y028D02*
G03*
X03158Y028I-00008J0D01*
G01*
X03108Y021D02*
G03*
X03108Y021I-00008J0D01*
G01*
X03158Y018D02*
G03*
X03158Y018I-00008J0D01*
G01*
X03058Y04D02*
G03*
X03058Y04I-00008J0D01*
G01*
Y038D02*
G03*
X03058Y038I-00008J0D01*
G01*
X03008Y033D02*
G03*
X03008Y033I-00008J0D01*
G01*
Y031D02*
G03*
X03008Y031I-00008J0D01*
G01*
X03058Y03D02*
G03*
X03058Y03I-00008J0D01*
G01*
Y026D02*
G03*
X03058Y026I-00008J0D01*
G01*
X03008Y019D02*
G03*
X03008Y019I-00008J0D01*
G01*
X02958Y04D02*
G03*
X02958Y04I-00008J0D01*
G01*
X02908Y033D02*
G03*
X02908Y033I-00008J0D01*
G01*
Y031D02*
G03*
X02908Y031I-00008J0D01*
G01*
X02958Y03D02*
G03*
X02958Y03I-00008J0D01*
G01*
X02908Y019D02*
G03*
X02908Y019I-00008J0D01*
G01*
Y015D02*
G03*
X02908Y015I-00008J0D01*
G01*
X02808Y047D02*
G03*
X02808Y047I-00008J0D01*
G01*
X02858Y046D02*
G03*
X02858Y046I-00008J0D01*
G01*
Y04D02*
G03*
X02858Y04I-00008J0D01*
G01*
Y038D02*
G03*
X02858Y038I-00008J0D01*
G01*
Y034D02*
G03*
X02858Y034I-00008J0D01*
G01*
X02808Y033D02*
G03*
X02808Y033I-00008J0D01*
G01*
X02858Y032D02*
G03*
X02858Y032I-00008J0D01*
G01*
X02808Y031D02*
G03*
X02808Y031I-00008J0D01*
G01*
X02858Y03D02*
G03*
X02858Y03I-00008J0D01*
G01*
Y028D02*
G03*
X02858Y028I-00008J0D01*
G01*
X02808Y021D02*
G03*
X02808Y021I-00008J0D01*
G01*
X02858Y018D02*
G03*
X02858Y018I-00008J0D01*
G01*
X02808Y015D02*
G03*
X02808Y015I-00008J0D01*
G01*
X02758Y046D02*
G03*
X02758Y046I-00008J0D01*
G01*
Y04D02*
G03*
X02758Y04I-00008J0D01*
G01*
X02708Y033D02*
G03*
X02708Y033I-00008J0D01*
G01*
X02758Y018D02*
G03*
X02758Y018I-00008J0D01*
G01*
Y016D02*
G03*
X02758Y016I-00008J0D01*
G01*
X02658Y038D02*
G03*
X02658Y038I-00008J0D01*
G01*
Y034D02*
G03*
X02658Y034I-00008J0D01*
G01*
Y016D02*
G03*
X02658Y016I-00008J0D01*
G01*
X02608Y015D02*
G03*
X02608Y015I-00008J0D01*
G01*
X02508Y017D02*
G03*
X02508Y017I-00008J0D01*
G01*
X02358Y048D02*
G03*
X02358Y048I-00008J0D01*
G01*
X02258D02*
G03*
X02258Y048I-00008J0D01*
G01*
X02208Y027D02*
G03*
X02208Y027I-00008J0D01*
G01*
X02258Y02D02*
G03*
X02258Y02I-00008J0D01*
G01*
Y018D02*
G03*
X02258Y018I-00008J0D01*
G01*
X02208Y017D02*
G03*
X02208Y017I-00008J0D01*
G01*
X02108Y047D02*
G03*
X02108Y047I-00008J0D01*
G01*
X02158Y046D02*
G03*
X02158Y046I-00008J0D01*
G01*
X02108Y019D02*
G03*
X02108Y019I-00008J0D01*
G01*
Y017D02*
G03*
X02108Y017I-00008J0D01*
G01*
X02058Y046D02*
G03*
X02058Y046I-00008J0D01*
G01*
X02008Y027D02*
G03*
X02008Y027I-00008J0D01*
G01*
X02058Y022D02*
G03*
X02058Y022I-00008J0D01*
G01*
X02008Y021D02*
G03*
X02008Y021I-00008J0D01*
G01*
X02058Y02D02*
G03*
X02058Y02I-00008J0D01*
G01*
Y018D02*
G03*
X02058Y018I-00008J0D01*
G01*
X01958Y046D02*
G03*
X01958Y046I-00008J0D01*
G01*
Y034D02*
G03*
X01958Y034I-00008J0D01*
G01*
Y032D02*
G03*
X01958Y032I-00008J0D01*
G01*
Y026D02*
G03*
X01958Y026I-00008J0D01*
G01*
Y022D02*
G03*
X01958Y022I-00008J0D01*
G01*
Y02D02*
G03*
X01958Y02I-00008J0D01*
G01*
Y018D02*
G03*
X01958Y018I-00008J0D01*
G01*
X01808Y047D02*
G03*
X01808Y047I-00008J0D01*
G01*
X01858Y046D02*
G03*
X01858Y046I-00008J0D01*
G01*
Y022D02*
G03*
X01858Y022I-00008J0D01*
G01*
Y02D02*
G03*
X01858Y02I-00008J0D01*
G01*
X01808Y017D02*
G03*
X01808Y017I-00008J0D01*
G01*
X01708Y023D02*
G03*
X01708Y023I-00008J0D01*
G01*
X01758Y022D02*
G03*
X01758Y022I-00008J0D01*
G01*
X01708Y021D02*
G03*
X01708Y021I-00008J0D01*
G01*
X01758Y02D02*
G03*
X01758Y02I-00008J0D01*
G01*
Y018D02*
G03*
X01758Y018I-00008J0D01*
G01*
X01708Y017D02*
G03*
X01708Y017I-00008J0D01*
G01*
X01608Y047D02*
G03*
X01608Y047I-00008J0D01*
G01*
X01658Y04D02*
G03*
X01658Y04I-00008J0D01*
G01*
X01608Y029D02*
G03*
X01608Y029I-00008J0D01*
G01*
X01658Y028D02*
G03*
X01658Y028I-00008J0D01*
G01*
Y016D02*
G03*
X01658Y016I-00008J0D01*
G01*
X01508Y047D02*
G03*
X01508Y047I-00008J0D01*
G01*
X01558Y04D02*
G03*
X01558Y04I-00008J0D01*
G01*
X01508Y027D02*
G03*
X01508Y027I-00008J0D01*
G01*
X01558Y022D02*
G03*
X01558Y022I-00008J0D01*
G01*
X01508Y015D02*
G03*
X01508Y015I-00008J0D01*
G01*
X01408Y043D02*
G03*
X01408Y043I-00008J0D01*
G01*
X01458Y042D02*
G03*
X01458Y042I-00008J0D01*
G01*
Y026D02*
G03*
X01458Y026I-00008J0D01*
G01*
X01408Y023D02*
G03*
X01408Y023I-00008J0D01*
G01*
X01458Y018D02*
G03*
X01458Y018I-00008J0D01*
G01*
X01408Y017D02*
G03*
X01408Y017I-00008J0D01*
G01*
X01308Y049D02*
G03*
X01308Y049I-00008J0D01*
G01*
X01358Y046D02*
G03*
X01358Y046I-00008J0D01*
G01*
Y036D02*
G03*
X01358Y036I-00008J0D01*
G01*
X01308Y033D02*
G03*
X01308Y033I-00008J0D01*
G01*
X01358Y03D02*
G03*
X01358Y03I-00008J0D01*
G01*
Y026D02*
G03*
X01358Y026I-00008J0D01*
G01*
Y018D02*
G03*
X01358Y018I-00008J0D01*
G01*
Y016D02*
G03*
X01358Y016I-00008J0D01*
G01*
X01258Y046D02*
G03*
X01258Y046I-00008J0D01*
G01*
Y044D02*
G03*
X01258Y044I-00008J0D01*
G01*
X01208Y027D02*
G03*
X01208Y027I-00008J0D01*
G01*
Y023D02*
G03*
X01208Y023I-00008J0D01*
G01*
Y021D02*
G03*
X01208Y021I-00008J0D01*
G01*
X01258Y02D02*
G03*
X01258Y02I-00008J0D01*
G01*
Y018D02*
G03*
X01258Y018I-00008J0D01*
G01*
Y016D02*
G03*
X01258Y016I-00008J0D01*
G01*
Y014D02*
G03*
X01258Y014I-00008J0D01*
G01*
X01108Y049D02*
G03*
X01108Y049I-00008J0D01*
G01*
Y045D02*
G03*
X01108Y045I-00008J0D01*
G01*
Y043D02*
G03*
X01108Y043I-00008J0D01*
G01*
X01158Y042D02*
G03*
X01158Y042I-00008J0D01*
G01*
X01108Y041D02*
G03*
X01108Y041I-00008J0D01*
G01*
X01158Y04D02*
G03*
X01158Y04I-00008J0D01*
G01*
X01108Y039D02*
G03*
X01108Y039I-00008J0D01*
G01*
X01158Y038D02*
G03*
X01158Y038I-00008J0D01*
G01*
X01108Y037D02*
G03*
X01108Y037I-00008J0D01*
G01*
X01158Y036D02*
G03*
X01158Y036I-00008J0D01*
G01*
X01108Y035D02*
G03*
X01108Y035I-00008J0D01*
G01*
X01158Y034D02*
G03*
X01158Y034I-00008J0D01*
G01*
X01108Y033D02*
G03*
X01108Y033I-00008J0D01*
G01*
X01158Y032D02*
G03*
X01158Y032I-00008J0D01*
G01*
X01108Y021D02*
G03*
X01108Y021I-00008J0D01*
G01*
X01158Y02D02*
G03*
X01158Y02I-00008J0D01*
G01*
Y014D02*
G03*
X01158Y014I-00008J0D01*
G01*
X04833Y04818D02*
G03*
X04833Y04818I-00008J0D01*
G01*
X04452Y03655D02*
G03*
X04452Y03655I-00008J0D01*
G01*
X03852Y04751D02*
G03*
X03852Y04751I-00008J0D01*
G01*
X01901Y01493D02*
G03*
X01901Y01493I-00008J0D01*
G01*
X01647Y04596D02*
G03*
X01647Y04596I-00008J0D01*
G01*
X02053Y03107D02*
G03*
X02053Y03107I-00008J0D01*
G01*
X01968Y03515D02*
G03*
X01968Y03515I-00008J0D01*
G01*
X02562Y041537D02*
G03*
X02562Y041537I-00008J0D01*
G01*
X02588Y04153D02*
G03*
X02588Y04153I-00008J0D01*
G01*
X02374Y039275D02*
G03*
X02374Y039275I-00008J0D01*
G01*
X02424Y039487D02*
G03*
X02424Y039487I-00008J0D01*
G01*
X02993Y029247D02*
G03*
X02993Y029247I-00008J0D01*
G01*
X023735Y019999D02*
G03*
X023735Y019999I-00008J0D01*
G01*
X01674Y03123D02*
G03*
X01674Y03123I-00008J0D01*
G01*
X017092Y031035D02*
G03*
X017092Y031035I-00008J0D01*
G01*
X01781Y03143D02*
G03*
X01781Y03143I-00008J0D01*
G01*
X02471Y019403D02*
G03*
X02471Y019403I-00008J0D01*
G01*
X04228Y04839D02*
G03*
X04228Y04839I-00008J0D01*
G01*
X03886Y0435D02*
G03*
X03886Y0435I-00008J0D01*
G01*
X01541Y03224D02*
G03*
X01541Y03224I-00008J0D01*
G01*
X02801Y01692D02*
G03*
X02801Y01692I-00008J0D01*
G01*
X03539Y03563D02*
G03*
X03539Y03563I-00008J0D01*
G01*
X02445Y03996D02*
G03*
X02445Y03996I-00008J0D01*
G01*
X0238Y04144D02*
G03*
X0238Y04144I-00008J0D01*
G01*
X03546Y03051D02*
G03*
X03546Y03051I-00008J0D01*
G01*
X02411Y04833D02*
G03*
X02411Y04833I-00008J0D01*
G01*
X02437Y04805D02*
G03*
X02437Y04805I-00008J0D01*
G01*
X04777Y042D02*
G03*
X04777Y042I-00008J0D01*
G01*
X04771Y02517D02*
G03*
X04771Y02517I-00008J0D01*
G01*
X03939Y04329D02*
G03*
X03939Y04329I-00008J0D01*
G01*
X03333Y044345D02*
G03*
X03333Y044345I-00008J0D01*
G01*
X031431D02*
G03*
X031431Y044345I-00008J0D01*
G01*
X029433D02*
G03*
X029433Y044345I-00008J0D01*
G01*
X0274Y04435D02*
G03*
X0274Y04435I-00008J0D01*
G01*
X03543Y03215D02*
G03*
X03543Y03215I-00008J0D01*
G01*
X03542Y03387D02*
G03*
X03542Y03387I-00008J0D01*
G01*
X0354Y03746D02*
G03*
X0354Y03746I-00008J0D01*
G01*
X04279Y02486D02*
G03*
X04279Y02486I-00008J0D01*
G01*
X02151Y02072D02*
G03*
X02151Y02072I-00008J0D01*
G01*
X02271Y01872D02*
G03*
X02271Y01872I-00008J0D01*
G01*
X02258Y02746D02*
G03*
X02258Y02746I-00008J0D01*
G01*
X02261Y03098D02*
G03*
X02261Y03098I-00008J0D01*
G01*
X02238Y02925D02*
G03*
X02238Y02925I-00008J0D01*
G01*
X02273Y03804D02*
G03*
X02273Y03804I-00008J0D01*
G01*
X01405Y04092D02*
G03*
X01405Y04092I-00008J0D01*
G01*
X0188Y0301D02*
G03*
X0188Y0301I-00008J0D01*
G01*
X01761Y03167D02*
G03*
X01761Y03167I-00008J0D01*
G01*
X019785Y032495D02*
G03*
X019785Y032495I-00008J0D01*
G01*
X01744Y03322D02*
G03*
X01744Y03322I-00008J0D01*
G01*
X01296Y0229D02*
G03*
X01296Y0229I-00008J0D01*
G01*
X01299Y02175D02*
G03*
X01299Y02175I-00008J0D01*
G01*
X01296Y0261D02*
G03*
X01296Y0261I-00008J0D01*
G01*
X0199Y028D02*
G03*
X0199Y028I-00008J0D01*
G01*
X02931Y01805D02*
G03*
X02931Y01805I-00008J0D01*
G01*
X02462Y02468D02*
G03*
X02462Y02468I-00008J0D01*
G01*
X02273Y02655D02*
G03*
X02273Y02655I-00008J0D01*
G01*
X02499Y01872D02*
G03*
X02499Y01872I-00008J0D01*
G01*
X02397Y02014D02*
G03*
X02397Y02014I-00008J0D01*
G01*
X03337Y0149D02*
G03*
X03337Y0149I-00008J0D01*
G01*
X02328Y02001D02*
G03*
X02328Y02001I-00008J0D01*
G01*
X01643Y02484D02*
G03*
X01643Y02484I-00008J0D01*
G01*
X01642Y02247D02*
G03*
X01642Y02247I-00008J0D01*
G01*
X01297Y02393D02*
G03*
X01297Y02393I-00008J0D01*
G01*
X02327Y01562D02*
G03*
X02327Y01562I-00008J0D01*
G01*
X04149Y01476D02*
G03*
X04149Y01476I-00008J0D01*
G01*
X03943Y01477D02*
G03*
X03943Y01477I-00008J0D01*
G01*
X02964Y01485D02*
G03*
X02964Y01485I-00008J0D01*
G01*
X0313D02*
G03*
X0313Y01485I-00008J0D01*
G01*
X02827Y01447D02*
G03*
X02827Y01447I-00008J0D01*
G01*
X02417Y01562D02*
G03*
X02417Y01562I-00008J0D01*
G01*
X02939Y02836D02*
G03*
X02939Y02836I-00008J0D01*
G01*
X02956Y02867D02*
G03*
X02956Y02867I-00008J0D01*
G01*
X029835Y029005D02*
G03*
X029835Y029005I-00008J0D01*
G01*
X04515Y04208D02*
G03*
X04515Y04208I-00008J0D01*
G01*
X02386Y02745D02*
G03*
X02386Y02745I-00008J0D01*
G01*
X04554Y01377D02*
G03*
X04554Y01377I-00008J0D01*
G01*
X02857Y02012D02*
G03*
X02857Y02012I-00008J0D01*
G01*
X0285Y01983D02*
G03*
X0285Y01983I-00008J0D01*
G01*
X02811Y01923D02*
G03*
X02811Y01923I-00008J0D01*
G01*
X028315Y01954D02*
G03*
X028315Y01954I-00008J0D01*
G01*
X02873Y01672D02*
G03*
X02873Y01672I-00008J0D01*
G01*
X03366Y01435D02*
G03*
X03366Y01435I-00008J0D01*
G01*
X04554Y03386D02*
G03*
X04554Y03386I-00008J0D01*
G01*
X02122Y03095D02*
G03*
X02122Y03095I-00008J0D01*
G01*
X0203Y03435D02*
G03*
X0203Y03435I-00008J0D01*
G01*
Y03745D02*
G03*
X0203Y03745I-00008J0D01*
G01*
X020305Y04045D02*
G03*
X020305Y04045I-00008J0D01*
G01*
X02322Y04142D02*
G03*
X02322Y04142I-00008J0D01*
G01*
X02526Y04539D02*
G03*
X02526Y04539I-00008J0D01*
G01*
X02349Y04541D02*
G03*
X02349Y04541I-00008J0D01*
G01*
X02079D02*
G03*
X02079Y04541I-00008J0D01*
G01*
X01899Y02737D02*
G03*
X01899Y02737I-00008J0D01*
G01*
X02049Y03161D02*
G03*
X02049Y03161I-00008J0D01*
G01*
X01894Y03321D02*
G03*
X01894Y03321I-00008J0D01*
G01*
X01754Y03683D02*
G03*
X01754Y03683I-00008J0D01*
G01*
X01461D02*
G03*
X01461Y03683I-00008J0D01*
G01*
X0218Y02867D02*
G03*
X0218Y02867I-00008J0D01*
G01*
X02192Y04082D02*
G03*
X02192Y04082I-00008J0D01*
G01*
X02213Y02901D02*
G03*
X02213Y02901I-00008J0D01*
G01*
X02157Y02838D02*
G03*
X02157Y02838I-00008J0D01*
G01*
X02075Y03436D02*
G03*
X02075Y03436I-00008J0D01*
G01*
X02073Y03891D02*
G03*
X02073Y03891I-00008J0D01*
G01*
X02127Y0297D02*
G03*
X02127Y0297I-00008J0D01*
G01*
X02001Y03344D02*
G03*
X02001Y03344I-00008J0D01*
G01*
X02114Y0344D02*
G03*
X02114Y0344I-00008J0D01*
G01*
Y03896D02*
G03*
X02114Y03896I-00008J0D01*
G01*
X02156Y0344D02*
G03*
X02156Y0344I-00008J0D01*
G01*
X02158Y03894D02*
G03*
X02158Y03894I-00008J0D01*
G01*
X02193Y03438D02*
G03*
X02193Y03438I-00008J0D01*
G01*
Y03892D02*
G03*
X02193Y03892I-00008J0D01*
G01*
X02637Y03737D02*
G03*
X02637Y03737I-00008J0D01*
G01*
X02636Y03697D02*
G03*
X02636Y03697I-00008J0D01*
G01*
X02635Y03652D02*
G03*
X02635Y03652I-00008J0D01*
G01*
X02634Y03613D02*
G03*
X02634Y03613I-00008J0D01*
G01*
X03487Y04141D02*
G03*
X03487Y04141I-00008J0D01*
G01*
X04432Y04524D02*
G03*
X04432Y04524I-00008J0D01*
G01*
X03965Y04162D02*
G03*
X03965Y04162I-00008J0D01*
G01*
X0402Y04111D02*
G03*
X0402Y04111I-00008J0D01*
G01*
X0433Y04548D02*
G03*
X0433Y04548I-00008J0D01*
G01*
X03224Y02324D02*
G03*
X03224Y02324I-00008J0D01*
G01*
X0319Y02293D02*
G03*
X0319Y02293I-00008J0D01*
G01*
X03154Y02261D02*
G03*
X03154Y02261I-00008J0D01*
G01*
X03113Y0223D02*
G03*
X03113Y0223I-00008J0D01*
G01*
X0234Y03809D02*
G03*
X0234Y03809I-00008J0D01*
G01*
X03081Y02195D02*
G03*
X03081Y02195I-00008J0D01*
G01*
X03045Y02161D02*
G03*
X03045Y02161I-00008J0D01*
G01*
X01335Y01636D02*
G03*
X01335Y01636I-00008J0D01*
G01*
X020975Y029535D02*
G03*
X020975Y029535I-00008J0D01*
G01*
X02271Y04773D02*
G03*
X02271Y04773I-00008J0D01*
G01*
X01754Y03059D02*
G03*
X01754Y03059I-00008J0D01*
G01*
X01808Y03027D02*
G03*
X01808Y03027I-00008J0D01*
G01*
X02069Y02944D02*
G03*
X02069Y02944I-00008J0D01*
G01*
X02038Y02942D02*
G03*
X02038Y02942I-00008J0D01*
G01*
X01958Y0291D02*
G03*
X01958Y0291I-00008J0D01*
G01*
X01835Y02749D02*
G03*
X01835Y02749I-00008J0D01*
G01*
X03611Y0164D02*
G03*
X03611Y0164I-00008J0D01*
G01*
X03701D02*
G03*
X03701Y0164I-00008J0D01*
G01*
Y01436D02*
G03*
X03701Y01436I-00008J0D01*
G01*
X03611D02*
G03*
X03611Y01436I-00008J0D01*
G01*
X015674Y031416D02*
G03*
X015674Y031416I-00008J0D01*
G01*
X04149Y01567D02*
G03*
X04149Y01567I-00008J0D01*
G01*
X03943D02*
G03*
X03943Y01567I-00008J0D01*
G01*
X02964Y01575D02*
G03*
X02964Y01575I-00008J0D01*
G01*
X0313D02*
G03*
X0313Y01575I-00008J0D01*
G01*
D115*
X022529Y040768D02*
G03*
X022529Y040768I-00004J0D01*
G01*
X022092Y041042D02*
G03*
X022092Y041042I-00004J0D01*
G01*
X02296Y04113D02*
G03*
X02296Y04113I-00004J0D01*
G01*
X02246Y04115D02*
G03*
X02246Y04115I-00004J0D01*
G01*
X04804Y049D02*
G03*
X04804Y049I-00004J0D01*
G01*
X04854Y048D02*
G03*
X04854Y048I-00004J0D01*
G01*
X04804Y047D02*
G03*
X04804Y047I-00004J0D01*
G01*
Y045D02*
G03*
X04804Y045I-00004J0D01*
G01*
X04854Y044D02*
G03*
X04854Y044I-00004J0D01*
G01*
X04804Y043D02*
G03*
X04804Y043I-00004J0D01*
G01*
Y027D02*
G03*
X04804Y027I-00004J0D01*
G01*
Y025D02*
G03*
X04804Y025I-00004J0D01*
G01*
Y023D02*
G03*
X04804Y023I-00004J0D01*
G01*
X04854Y022D02*
G03*
X04854Y022I-00004J0D01*
G01*
X04804Y021D02*
G03*
X04804Y021I-00004J0D01*
G01*
X04854Y02D02*
G03*
X04854Y02I-00004J0D01*
G01*
X04804Y019D02*
G03*
X04804Y019I-00004J0D01*
G01*
X04854Y018D02*
G03*
X04854Y018I-00004J0D01*
G01*
X04804Y015D02*
G03*
X04804Y015I-00004J0D01*
G01*
X04854Y014D02*
G03*
X04854Y014I-00004J0D01*
G01*
X04804Y013D02*
G03*
X04804Y013I-00004J0D01*
G01*
X04704Y049D02*
G03*
X04704Y049I-00004J0D01*
G01*
X04754Y048D02*
G03*
X04754Y048I-00004J0D01*
G01*
Y044D02*
G03*
X04754Y044I-00004J0D01*
G01*
Y036D02*
G03*
X04754Y036I-00004J0D01*
G01*
X04704Y035D02*
G03*
X04704Y035I-00004J0D01*
G01*
X04754Y03D02*
G03*
X04754Y03I-00004J0D01*
G01*
Y022D02*
G03*
X04754Y022I-00004J0D01*
G01*
Y02D02*
G03*
X04754Y02I-00004J0D01*
G01*
Y018D02*
G03*
X04754Y018I-00004J0D01*
G01*
Y016D02*
G03*
X04754Y016I-00004J0D01*
G01*
X04704Y013D02*
G03*
X04704Y013I-00004J0D01*
G01*
X04654Y028D02*
G03*
X04654Y028I-00004J0D01*
G01*
X04604Y027D02*
G03*
X04604Y027I-00004J0D01*
G01*
Y025D02*
G03*
X04604Y025I-00004J0D01*
G01*
X04654Y022D02*
G03*
X04654Y022I-00004J0D01*
G01*
Y014D02*
G03*
X04654Y014I-00004J0D01*
G01*
X04504Y023D02*
G03*
X04504Y023I-00004J0D01*
G01*
Y021D02*
G03*
X04504Y021I-00004J0D01*
G01*
X04454Y032D02*
G03*
X04454Y032I-00004J0D01*
G01*
Y03D02*
G03*
X04454Y03I-00004J0D01*
G01*
Y028D02*
G03*
X04454Y028I-00004J0D01*
G01*
Y022D02*
G03*
X04454Y022I-00004J0D01*
G01*
X04304Y039D02*
G03*
X04304Y039I-00004J0D01*
G01*
X04354Y034D02*
G03*
X04354Y034I-00004J0D01*
G01*
X04304Y033D02*
G03*
X04304Y033I-00004J0D01*
G01*
Y023D02*
G03*
X04304Y023I-00004J0D01*
G01*
X04354Y022D02*
G03*
X04354Y022I-00004J0D01*
G01*
X04304Y017D02*
G03*
X04304Y017I-00004J0D01*
G01*
X04254Y034D02*
G03*
X04254Y034I-00004J0D01*
G01*
Y032D02*
G03*
X04254Y032I-00004J0D01*
G01*
Y03D02*
G03*
X04254Y03I-00004J0D01*
G01*
Y028D02*
G03*
X04254Y028I-00004J0D01*
G01*
X04204Y023D02*
G03*
X04204Y023I-00004J0D01*
G01*
Y015D02*
G03*
X04204Y015I-00004J0D01*
G01*
X04154Y032D02*
G03*
X04154Y032I-00004J0D01*
G01*
Y018D02*
G03*
X04154Y018I-00004J0D01*
G01*
X04054Y036D02*
G03*
X04054Y036I-00004J0D01*
G01*
Y034D02*
G03*
X04054Y034I-00004J0D01*
G01*
Y032D02*
G03*
X04054Y032I-00004J0D01*
G01*
X04004Y021D02*
G03*
X04004Y021I-00004J0D01*
G01*
X04054Y02D02*
G03*
X04054Y02I-00004J0D01*
G01*
X04004Y019D02*
G03*
X04004Y019I-00004J0D01*
G01*
Y017D02*
G03*
X04004Y017I-00004J0D01*
G01*
X04054Y016D02*
G03*
X04054Y016I-00004J0D01*
G01*
X04004Y015D02*
G03*
X04004Y015I-00004J0D01*
G01*
X03954Y036D02*
G03*
X03954Y036I-00004J0D01*
G01*
Y034D02*
G03*
X03954Y034I-00004J0D01*
G01*
Y032D02*
G03*
X03954Y032I-00004J0D01*
G01*
X03904Y029D02*
G03*
X03904Y029I-00004J0D01*
G01*
Y021D02*
G03*
X03904Y021I-00004J0D01*
G01*
X03954Y02D02*
G03*
X03954Y02I-00004J0D01*
G01*
Y018D02*
G03*
X03954Y018I-00004J0D01*
G01*
X03854Y036D02*
G03*
X03854Y036I-00004J0D01*
G01*
Y034D02*
G03*
X03854Y034I-00004J0D01*
G01*
Y032D02*
G03*
X03854Y032I-00004J0D01*
G01*
Y03D02*
G03*
X03854Y03I-00004J0D01*
G01*
X03804Y021D02*
G03*
X03804Y021I-00004J0D01*
G01*
Y019D02*
G03*
X03804Y019I-00004J0D01*
G01*
X03854Y018D02*
G03*
X03854Y018I-00004J0D01*
G01*
Y016D02*
G03*
X03854Y016I-00004J0D01*
G01*
X03804Y015D02*
G03*
X03804Y015I-00004J0D01*
G01*
X03754Y036D02*
G03*
X03754Y036I-00004J0D01*
G01*
Y034D02*
G03*
X03754Y034I-00004J0D01*
G01*
X03704Y033D02*
G03*
X03704Y033I-00004J0D01*
G01*
X03754Y032D02*
G03*
X03754Y032I-00004J0D01*
G01*
Y03D02*
G03*
X03754Y03I-00004J0D01*
G01*
X03704Y021D02*
G03*
X03704Y021I-00004J0D01*
G01*
Y019D02*
G03*
X03704Y019I-00004J0D01*
G01*
X03754Y018D02*
G03*
X03754Y018I-00004J0D01*
G01*
X03704Y015D02*
G03*
X03704Y015I-00004J0D01*
G01*
X03604Y033D02*
G03*
X03604Y033I-00004J0D01*
G01*
X03654Y032D02*
G03*
X03654Y032I-00004J0D01*
G01*
Y03D02*
G03*
X03654Y03I-00004J0D01*
G01*
X03604Y021D02*
G03*
X03604Y021I-00004J0D01*
G01*
Y019D02*
G03*
X03604Y019I-00004J0D01*
G01*
X03654Y018D02*
G03*
X03654Y018I-00004J0D01*
G01*
X03604Y015D02*
G03*
X03604Y015I-00004J0D01*
G01*
X03504Y037D02*
G03*
X03504Y037I-00004J0D01*
G01*
X03554Y036D02*
G03*
X03554Y036I-00004J0D01*
G01*
Y03D02*
G03*
X03554Y03I-00004J0D01*
G01*
X03504Y021D02*
G03*
X03504Y021I-00004J0D01*
G01*
Y019D02*
G03*
X03504Y019I-00004J0D01*
G01*
X03554Y018D02*
G03*
X03554Y018I-00004J0D01*
G01*
X03404Y047D02*
G03*
X03404Y047I-00004J0D01*
G01*
X03454Y04D02*
G03*
X03454Y04I-00004J0D01*
G01*
Y038D02*
G03*
X03454Y038I-00004J0D01*
G01*
Y026D02*
G03*
X03454Y026I-00004J0D01*
G01*
X03404Y021D02*
G03*
X03404Y021I-00004J0D01*
G01*
Y019D02*
G03*
X03404Y019I-00004J0D01*
G01*
X03454Y018D02*
G03*
X03454Y018I-00004J0D01*
G01*
X03404Y015D02*
G03*
X03404Y015I-00004J0D01*
G01*
X03304Y047D02*
G03*
X03304Y047I-00004J0D01*
G01*
X03354Y04D02*
G03*
X03354Y04I-00004J0D01*
G01*
Y03D02*
G03*
X03354Y03I-00004J0D01*
G01*
Y028D02*
G03*
X03354Y028I-00004J0D01*
G01*
Y026D02*
G03*
X03354Y026I-00004J0D01*
G01*
X03304Y021D02*
G03*
X03304Y021I-00004J0D01*
G01*
X03354Y018D02*
G03*
X03354Y018I-00004J0D01*
G01*
X03254Y04D02*
G03*
X03254Y04I-00004J0D01*
G01*
Y038D02*
G03*
X03254Y038I-00004J0D01*
G01*
Y03D02*
G03*
X03254Y03I-00004J0D01*
G01*
X03204Y029D02*
G03*
X03204Y029I-00004J0D01*
G01*
X03254Y024D02*
G03*
X03254Y024I-00004J0D01*
G01*
X03204Y021D02*
G03*
X03204Y021I-00004J0D01*
G01*
X03254Y016D02*
G03*
X03254Y016I-00004J0D01*
G01*
X03204Y015D02*
G03*
X03204Y015I-00004J0D01*
G01*
X03154Y04D02*
G03*
X03154Y04I-00004J0D01*
G01*
Y03D02*
G03*
X03154Y03I-00004J0D01*
G01*
X03104Y029D02*
G03*
X03104Y029I-00004J0D01*
G01*
X03154Y028D02*
G03*
X03154Y028I-00004J0D01*
G01*
X03104Y021D02*
G03*
X03104Y021I-00004J0D01*
G01*
X03154Y018D02*
G03*
X03154Y018I-00004J0D01*
G01*
X03054Y04D02*
G03*
X03054Y04I-00004J0D01*
G01*
Y038D02*
G03*
X03054Y038I-00004J0D01*
G01*
X03004Y033D02*
G03*
X03004Y033I-00004J0D01*
G01*
Y031D02*
G03*
X03004Y031I-00004J0D01*
G01*
X03054Y03D02*
G03*
X03054Y03I-00004J0D01*
G01*
Y026D02*
G03*
X03054Y026I-00004J0D01*
G01*
X03004Y019D02*
G03*
X03004Y019I-00004J0D01*
G01*
X02954Y04D02*
G03*
X02954Y04I-00004J0D01*
G01*
X02904Y033D02*
G03*
X02904Y033I-00004J0D01*
G01*
Y031D02*
G03*
X02904Y031I-00004J0D01*
G01*
X02954Y03D02*
G03*
X02954Y03I-00004J0D01*
G01*
X02904Y019D02*
G03*
X02904Y019I-00004J0D01*
G01*
Y015D02*
G03*
X02904Y015I-00004J0D01*
G01*
X02804Y047D02*
G03*
X02804Y047I-00004J0D01*
G01*
X02854Y046D02*
G03*
X02854Y046I-00004J0D01*
G01*
Y04D02*
G03*
X02854Y04I-00004J0D01*
G01*
Y038D02*
G03*
X02854Y038I-00004J0D01*
G01*
Y034D02*
G03*
X02854Y034I-00004J0D01*
G01*
X02804Y033D02*
G03*
X02804Y033I-00004J0D01*
G01*
X02854Y032D02*
G03*
X02854Y032I-00004J0D01*
G01*
X02804Y031D02*
G03*
X02804Y031I-00004J0D01*
G01*
X02854Y03D02*
G03*
X02854Y03I-00004J0D01*
G01*
Y028D02*
G03*
X02854Y028I-00004J0D01*
G01*
X02804Y021D02*
G03*
X02804Y021I-00004J0D01*
G01*
X02854Y018D02*
G03*
X02854Y018I-00004J0D01*
G01*
X02804Y015D02*
G03*
X02804Y015I-00004J0D01*
G01*
X02754Y046D02*
G03*
X02754Y046I-00004J0D01*
G01*
Y04D02*
G03*
X02754Y04I-00004J0D01*
G01*
X02704Y033D02*
G03*
X02704Y033I-00004J0D01*
G01*
X02754Y018D02*
G03*
X02754Y018I-00004J0D01*
G01*
Y016D02*
G03*
X02754Y016I-00004J0D01*
G01*
X02654Y038D02*
G03*
X02654Y038I-00004J0D01*
G01*
Y034D02*
G03*
X02654Y034I-00004J0D01*
G01*
Y016D02*
G03*
X02654Y016I-00004J0D01*
G01*
X02604Y015D02*
G03*
X02604Y015I-00004J0D01*
G01*
X02504Y017D02*
G03*
X02504Y017I-00004J0D01*
G01*
X02354Y048D02*
G03*
X02354Y048I-00004J0D01*
G01*
X02254D02*
G03*
X02254Y048I-00004J0D01*
G01*
X02204Y027D02*
G03*
X02204Y027I-00004J0D01*
G01*
X02254Y02D02*
G03*
X02254Y02I-00004J0D01*
G01*
Y018D02*
G03*
X02254Y018I-00004J0D01*
G01*
X02204Y017D02*
G03*
X02204Y017I-00004J0D01*
G01*
X02104Y047D02*
G03*
X02104Y047I-00004J0D01*
G01*
X02154Y046D02*
G03*
X02154Y046I-00004J0D01*
G01*
X02104Y019D02*
G03*
X02104Y019I-00004J0D01*
G01*
Y017D02*
G03*
X02104Y017I-00004J0D01*
G01*
X02054Y046D02*
G03*
X02054Y046I-00004J0D01*
G01*
X02004Y027D02*
G03*
X02004Y027I-00004J0D01*
G01*
X02054Y022D02*
G03*
X02054Y022I-00004J0D01*
G01*
X02004Y021D02*
G03*
X02004Y021I-00004J0D01*
G01*
X02054Y02D02*
G03*
X02054Y02I-00004J0D01*
G01*
Y018D02*
G03*
X02054Y018I-00004J0D01*
G01*
X01954Y046D02*
G03*
X01954Y046I-00004J0D01*
G01*
Y034D02*
G03*
X01954Y034I-00004J0D01*
G01*
Y032D02*
G03*
X01954Y032I-00004J0D01*
G01*
Y026D02*
G03*
X01954Y026I-00004J0D01*
G01*
Y022D02*
G03*
X01954Y022I-00004J0D01*
G01*
Y02D02*
G03*
X01954Y02I-00004J0D01*
G01*
Y018D02*
G03*
X01954Y018I-00004J0D01*
G01*
X01804Y047D02*
G03*
X01804Y047I-00004J0D01*
G01*
X01854Y046D02*
G03*
X01854Y046I-00004J0D01*
G01*
Y022D02*
G03*
X01854Y022I-00004J0D01*
G01*
Y02D02*
G03*
X01854Y02I-00004J0D01*
G01*
X01804Y017D02*
G03*
X01804Y017I-00004J0D01*
G01*
X01704Y023D02*
G03*
X01704Y023I-00004J0D01*
G01*
X01754Y022D02*
G03*
X01754Y022I-00004J0D01*
G01*
X01704Y021D02*
G03*
X01704Y021I-00004J0D01*
G01*
X01754Y02D02*
G03*
X01754Y02I-00004J0D01*
G01*
Y018D02*
G03*
X01754Y018I-00004J0D01*
G01*
X01704Y017D02*
G03*
X01704Y017I-00004J0D01*
G01*
X01604Y047D02*
G03*
X01604Y047I-00004J0D01*
G01*
X01654Y04D02*
G03*
X01654Y04I-00004J0D01*
G01*
X01604Y029D02*
G03*
X01604Y029I-00004J0D01*
G01*
X01654Y028D02*
G03*
X01654Y028I-00004J0D01*
G01*
Y016D02*
G03*
X01654Y016I-00004J0D01*
G01*
X01504Y047D02*
G03*
X01504Y047I-00004J0D01*
G01*
X01554Y04D02*
G03*
X01554Y04I-00004J0D01*
G01*
X01504Y027D02*
G03*
X01504Y027I-00004J0D01*
G01*
X01554Y022D02*
G03*
X01554Y022I-00004J0D01*
G01*
X01504Y015D02*
G03*
X01504Y015I-00004J0D01*
G01*
X01404Y043D02*
G03*
X01404Y043I-00004J0D01*
G01*
X01454Y042D02*
G03*
X01454Y042I-00004J0D01*
G01*
Y026D02*
G03*
X01454Y026I-00004J0D01*
G01*
X01404Y023D02*
G03*
X01404Y023I-00004J0D01*
G01*
X01454Y018D02*
G03*
X01454Y018I-00004J0D01*
G01*
X01404Y017D02*
G03*
X01404Y017I-00004J0D01*
G01*
X01304Y049D02*
G03*
X01304Y049I-00004J0D01*
G01*
X01354Y046D02*
G03*
X01354Y046I-00004J0D01*
G01*
Y036D02*
G03*
X01354Y036I-00004J0D01*
G01*
X01304Y033D02*
G03*
X01304Y033I-00004J0D01*
G01*
X01354Y03D02*
G03*
X01354Y03I-00004J0D01*
G01*
Y026D02*
G03*
X01354Y026I-00004J0D01*
G01*
Y018D02*
G03*
X01354Y018I-00004J0D01*
G01*
Y016D02*
G03*
X01354Y016I-00004J0D01*
G01*
X01254Y046D02*
G03*
X01254Y046I-00004J0D01*
G01*
Y044D02*
G03*
X01254Y044I-00004J0D01*
G01*
X01204Y027D02*
G03*
X01204Y027I-00004J0D01*
G01*
Y023D02*
G03*
X01204Y023I-00004J0D01*
G01*
Y021D02*
G03*
X01204Y021I-00004J0D01*
G01*
X01254Y02D02*
G03*
X01254Y02I-00004J0D01*
G01*
Y018D02*
G03*
X01254Y018I-00004J0D01*
G01*
Y016D02*
G03*
X01254Y016I-00004J0D01*
G01*
Y014D02*
G03*
X01254Y014I-00004J0D01*
G01*
X01104Y049D02*
G03*
X01104Y049I-00004J0D01*
G01*
Y045D02*
G03*
X01104Y045I-00004J0D01*
G01*
Y043D02*
G03*
X01104Y043I-00004J0D01*
G01*
X01154Y042D02*
G03*
X01154Y042I-00004J0D01*
G01*
X01104Y041D02*
G03*
X01104Y041I-00004J0D01*
G01*
X01154Y04D02*
G03*
X01154Y04I-00004J0D01*
G01*
X01104Y039D02*
G03*
X01104Y039I-00004J0D01*
G01*
X01154Y038D02*
G03*
X01154Y038I-00004J0D01*
G01*
X01104Y037D02*
G03*
X01104Y037I-00004J0D01*
G01*
X01154Y036D02*
G03*
X01154Y036I-00004J0D01*
G01*
X01104Y035D02*
G03*
X01104Y035I-00004J0D01*
G01*
X01154Y034D02*
G03*
X01154Y034I-00004J0D01*
G01*
X01104Y033D02*
G03*
X01104Y033I-00004J0D01*
G01*
X01154Y032D02*
G03*
X01154Y032I-00004J0D01*
G01*
X01104Y021D02*
G03*
X01104Y021I-00004J0D01*
G01*
X01154Y02D02*
G03*
X01154Y02I-00004J0D01*
G01*
Y014D02*
G03*
X01154Y014I-00004J0D01*
G01*
X04829Y04818D02*
G03*
X04829Y04818I-00004J0D01*
G01*
X04448Y03655D02*
G03*
X04448Y03655I-00004J0D01*
G01*
X03848Y04751D02*
G03*
X03848Y04751I-00004J0D01*
G01*
X01897Y01493D02*
G03*
X01897Y01493I-00004J0D01*
G01*
X01643Y04596D02*
G03*
X01643Y04596I-00004J0D01*
G01*
X02049Y03107D02*
G03*
X02049Y03107I-00004J0D01*
G01*
X01964Y03515D02*
G03*
X01964Y03515I-00004J0D01*
G01*
X02558Y041537D02*
G03*
X02558Y041537I-00004J0D01*
G01*
X02584Y04153D02*
G03*
X02584Y04153I-00004J0D01*
G01*
X0237Y039275D02*
G03*
X0237Y039275I-00004J0D01*
G01*
X0242Y039487D02*
G03*
X0242Y039487I-00004J0D01*
G01*
X02989Y029247D02*
G03*
X02989Y029247I-00004J0D01*
G01*
X023695Y019999D02*
G03*
X023695Y019999I-00004J0D01*
G01*
X0167Y03123D02*
G03*
X0167Y03123I-00004J0D01*
G01*
X017052Y031035D02*
G03*
X017052Y031035I-00004J0D01*
G01*
X01777Y03143D02*
G03*
X01777Y03143I-00004J0D01*
G01*
X02467Y019403D02*
G03*
X02467Y019403I-00004J0D01*
G01*
X04224Y04839D02*
G03*
X04224Y04839I-00004J0D01*
G01*
X03882Y0435D02*
G03*
X03882Y0435I-00004J0D01*
G01*
X01537Y03224D02*
G03*
X01537Y03224I-00004J0D01*
G01*
X02797Y01692D02*
G03*
X02797Y01692I-00004J0D01*
G01*
X03535Y03563D02*
G03*
X03535Y03563I-00004J0D01*
G01*
X02441Y03996D02*
G03*
X02441Y03996I-00004J0D01*
G01*
X02376Y04144D02*
G03*
X02376Y04144I-00004J0D01*
G01*
X03542Y03051D02*
G03*
X03542Y03051I-00004J0D01*
G01*
X02407Y04833D02*
G03*
X02407Y04833I-00004J0D01*
G01*
X02433Y04805D02*
G03*
X02433Y04805I-00004J0D01*
G01*
X04773Y042D02*
G03*
X04773Y042I-00004J0D01*
G01*
X04767Y02517D02*
G03*
X04767Y02517I-00004J0D01*
G01*
X03935Y04329D02*
G03*
X03935Y04329I-00004J0D01*
G01*
X03329Y044345D02*
G03*
X03329Y044345I-00004J0D01*
G01*
X031391D02*
G03*
X031391Y044345I-00004J0D01*
G01*
X029393D02*
G03*
X029393Y044345I-00004J0D01*
G01*
X02736Y04435D02*
G03*
X02736Y04435I-00004J0D01*
G01*
X03539Y03215D02*
G03*
X03539Y03215I-00004J0D01*
G01*
X03538Y03387D02*
G03*
X03538Y03387I-00004J0D01*
G01*
X03536Y03746D02*
G03*
X03536Y03746I-00004J0D01*
G01*
X04275Y02486D02*
G03*
X04275Y02486I-00004J0D01*
G01*
X02147Y02072D02*
G03*
X02147Y02072I-00004J0D01*
G01*
X02267Y01872D02*
G03*
X02267Y01872I-00004J0D01*
G01*
X02254Y02746D02*
G03*
X02254Y02746I-00004J0D01*
G01*
X02257Y03098D02*
G03*
X02257Y03098I-00004J0D01*
G01*
X02234Y02925D02*
G03*
X02234Y02925I-00004J0D01*
G01*
X02269Y03804D02*
G03*
X02269Y03804I-00004J0D01*
G01*
X01401Y04092D02*
G03*
X01401Y04092I-00004J0D01*
G01*
X01876Y0301D02*
G03*
X01876Y0301I-00004J0D01*
G01*
X01757Y03167D02*
G03*
X01757Y03167I-00004J0D01*
G01*
X019745Y032495D02*
G03*
X019745Y032495I-00004J0D01*
G01*
X0174Y03322D02*
G03*
X0174Y03322I-00004J0D01*
G01*
X01292Y0229D02*
G03*
X01292Y0229I-00004J0D01*
G01*
X01295Y02175D02*
G03*
X01295Y02175I-00004J0D01*
G01*
X01292Y0261D02*
G03*
X01292Y0261I-00004J0D01*
G01*
X01986Y028D02*
G03*
X01986Y028I-00004J0D01*
G01*
X02927Y01805D02*
G03*
X02927Y01805I-00004J0D01*
G01*
X02458Y02468D02*
G03*
X02458Y02468I-00004J0D01*
G01*
X02269Y02655D02*
G03*
X02269Y02655I-00004J0D01*
G01*
X02495Y01872D02*
G03*
X02495Y01872I-00004J0D01*
G01*
X02393Y02014D02*
G03*
X02393Y02014I-00004J0D01*
G01*
X03333Y0149D02*
G03*
X03333Y0149I-00004J0D01*
G01*
X02324Y02001D02*
G03*
X02324Y02001I-00004J0D01*
G01*
X01639Y02484D02*
G03*
X01639Y02484I-00004J0D01*
G01*
X01638Y02247D02*
G03*
X01638Y02247I-00004J0D01*
G01*
X01293Y02393D02*
G03*
X01293Y02393I-00004J0D01*
G01*
X02323Y01562D02*
G03*
X02323Y01562I-00004J0D01*
G01*
X04145Y01476D02*
G03*
X04145Y01476I-00004J0D01*
G01*
X03939Y01477D02*
G03*
X03939Y01477I-00004J0D01*
G01*
X0296Y01485D02*
G03*
X0296Y01485I-00004J0D01*
G01*
X03126D02*
G03*
X03126Y01485I-00004J0D01*
G01*
X02823Y01447D02*
G03*
X02823Y01447I-00004J0D01*
G01*
X02413Y01562D02*
G03*
X02413Y01562I-00004J0D01*
G01*
X02935Y02836D02*
G03*
X02935Y02836I-00004J0D01*
G01*
X02952Y02867D02*
G03*
X02952Y02867I-00004J0D01*
G01*
X029795Y029005D02*
G03*
X029795Y029005I-00004J0D01*
G01*
X04511Y04208D02*
G03*
X04511Y04208I-00004J0D01*
G01*
X02382Y02745D02*
G03*
X02382Y02745I-00004J0D01*
G01*
X0455Y01377D02*
G03*
X0455Y01377I-00004J0D01*
G01*
X02853Y02012D02*
G03*
X02853Y02012I-00004J0D01*
G01*
X02846Y01983D02*
G03*
X02846Y01983I-00004J0D01*
G01*
X02807Y01923D02*
G03*
X02807Y01923I-00004J0D01*
G01*
X028275Y01954D02*
G03*
X028275Y01954I-00004J0D01*
G01*
X02869Y01672D02*
G03*
X02869Y01672I-00004J0D01*
G01*
X03362Y01435D02*
G03*
X03362Y01435I-00004J0D01*
G01*
X0455Y03386D02*
G03*
X0455Y03386I-00004J0D01*
G01*
X02118Y03095D02*
G03*
X02118Y03095I-00004J0D01*
G01*
X02026Y03435D02*
G03*
X02026Y03435I-00004J0D01*
G01*
Y03745D02*
G03*
X02026Y03745I-00004J0D01*
G01*
X020265Y04045D02*
G03*
X020265Y04045I-00004J0D01*
G01*
X02318Y04142D02*
G03*
X02318Y04142I-00004J0D01*
G01*
X02522Y04539D02*
G03*
X02522Y04539I-00004J0D01*
G01*
X02345Y04541D02*
G03*
X02345Y04541I-00004J0D01*
G01*
X02075D02*
G03*
X02075Y04541I-00004J0D01*
G01*
X01895Y02737D02*
G03*
X01895Y02737I-00004J0D01*
G01*
X02045Y03161D02*
G03*
X02045Y03161I-00004J0D01*
G01*
X0189Y03321D02*
G03*
X0189Y03321I-00004J0D01*
G01*
X0175Y03683D02*
G03*
X0175Y03683I-00004J0D01*
G01*
X01457D02*
G03*
X01457Y03683I-00004J0D01*
G01*
X02176Y02867D02*
G03*
X02176Y02867I-00004J0D01*
G01*
X02188Y04082D02*
G03*
X02188Y04082I-00004J0D01*
G01*
X02209Y02901D02*
G03*
X02209Y02901I-00004J0D01*
G01*
X02153Y02838D02*
G03*
X02153Y02838I-00004J0D01*
G01*
X02071Y03436D02*
G03*
X02071Y03436I-00004J0D01*
G01*
X02069Y03891D02*
G03*
X02069Y03891I-00004J0D01*
G01*
X02123Y0297D02*
G03*
X02123Y0297I-00004J0D01*
G01*
X01997Y03344D02*
G03*
X01997Y03344I-00004J0D01*
G01*
X0211Y0344D02*
G03*
X0211Y0344I-00004J0D01*
G01*
Y03896D02*
G03*
X0211Y03896I-00004J0D01*
G01*
X02152Y0344D02*
G03*
X02152Y0344I-00004J0D01*
G01*
X02154Y03894D02*
G03*
X02154Y03894I-00004J0D01*
G01*
X02189Y03438D02*
G03*
X02189Y03438I-00004J0D01*
G01*
Y03892D02*
G03*
X02189Y03892I-00004J0D01*
G01*
X02633Y03737D02*
G03*
X02633Y03737I-00004J0D01*
G01*
X02632Y03697D02*
G03*
X02632Y03697I-00004J0D01*
G01*
X02631Y03652D02*
G03*
X02631Y03652I-00004J0D01*
G01*
X0263Y03613D02*
G03*
X0263Y03613I-00004J0D01*
G01*
X03483Y04141D02*
G03*
X03483Y04141I-00004J0D01*
G01*
X04428Y04524D02*
G03*
X04428Y04524I-00004J0D01*
G01*
X03961Y04162D02*
G03*
X03961Y04162I-00004J0D01*
G01*
X04016Y04111D02*
G03*
X04016Y04111I-00004J0D01*
G01*
X04326Y04548D02*
G03*
X04326Y04548I-00004J0D01*
G01*
X0322Y02324D02*
G03*
X0322Y02324I-00004J0D01*
G01*
X03186Y02293D02*
G03*
X03186Y02293I-00004J0D01*
G01*
X0315Y02261D02*
G03*
X0315Y02261I-00004J0D01*
G01*
X03109Y0223D02*
G03*
X03109Y0223I-00004J0D01*
G01*
X02336Y03809D02*
G03*
X02336Y03809I-00004J0D01*
G01*
X03077Y02195D02*
G03*
X03077Y02195I-00004J0D01*
G01*
X03041Y02161D02*
G03*
X03041Y02161I-00004J0D01*
G01*
X01331Y01636D02*
G03*
X01331Y01636I-00004J0D01*
G01*
X020935Y029535D02*
G03*
X020935Y029535I-00004J0D01*
G01*
X02267Y04773D02*
G03*
X02267Y04773I-00004J0D01*
G01*
X0175Y03059D02*
G03*
X0175Y03059I-00004J0D01*
G01*
X01804Y03027D02*
G03*
X01804Y03027I-00004J0D01*
G01*
X02065Y02944D02*
G03*
X02065Y02944I-00004J0D01*
G01*
X02034Y02942D02*
G03*
X02034Y02942I-00004J0D01*
G01*
X01954Y0291D02*
G03*
X01954Y0291I-00004J0D01*
G01*
X01831Y02749D02*
G03*
X01831Y02749I-00004J0D01*
G01*
X03607Y0164D02*
G03*
X03607Y0164I-00004J0D01*
G01*
X03697D02*
G03*
X03697Y0164I-00004J0D01*
G01*
Y01436D02*
G03*
X03697Y01436I-00004J0D01*
G01*
X03607D02*
G03*
X03607Y01436I-00004J0D01*
G01*
X015634Y031416D02*
G03*
X015634Y031416I-00004J0D01*
G01*
X04145Y01567D02*
G03*
X04145Y01567I-00004J0D01*
G01*
X03939D02*
G03*
X03939Y01567I-00004J0D01*
G01*
X0296Y01575D02*
G03*
X0296Y01575I-00004J0D01*
G01*
X03126D02*
G03*
X03126Y01575I-00004J0D01*
G01*
M02*
